<svg width="44" height="44" viewBox="0 0 44 44" fill="none" xmlns="http://www.w3.org/2000/svg">
<rect width="44" height="44" rx="8" fill="black"/>
<path d="M31.9997 21.6285C31.9549 20.4724 30.9397 19.5696 29.7266 19.6088C29.1892 19.6267 28.6778 19.8372 28.2897 20.1905C26.5802 19.0771 24.5722 18.4669 22.5082 18.4241L23.4823 13.9458L26.6959 14.5916C26.7855 15.3803 27.5245 15.9512 28.3494 15.8656C29.1742 15.7799 29.7714 15.0734 29.6818 14.2848C29.5923 13.4961 28.8533 12.9252 28.0284 13.0108C27.5544 13.0572 27.1289 13.3213 26.8937 13.7138L23.2136 13.0108C22.9635 12.9573 22.7135 13.1072 22.6575 13.3498C22.6575 13.3534 22.6575 13.3534 22.6575 13.357L21.549 18.3385C19.4588 18.3706 17.4247 18.9843 15.6928 20.1048C14.812 19.3126 13.4236 19.3519 12.595 20.1976C11.7664 21.0397 11.8074 22.3672 12.692 23.1594C12.8637 23.3128 13.0615 23.4448 13.2817 23.5376C13.2668 23.7482 13.2668 23.9587 13.2817 24.1692C13.2817 27.3844 17.2007 30 22.0342 30C26.8676 30 30.7866 27.3879 30.7866 24.1692C30.8016 23.9587 30.8016 23.7482 30.7866 23.5376C31.5406 23.1772 32.0146 22.435 31.9997 21.6285ZM16.9843 23.0666C16.9843 22.2744 17.6598 21.6285 18.4884 21.6285C19.317 21.6285 19.9926 22.2744 19.9926 23.0666C19.9926 23.8588 19.317 24.5047 18.4884 24.5047C17.6561 24.4975 16.9843 23.8588 16.9843 23.0666ZM25.7068 27.0132C24.6394 27.7805 23.333 28.173 21.9969 28.1195C20.6607 28.173 19.3543 27.7805 18.2869 27.0132C18.145 26.8491 18.1712 26.6029 18.3428 26.4673C18.4921 26.3495 18.7049 26.3495 18.8579 26.4673C19.7611 27.0989 20.8622 27.42 21.9819 27.3701C23.1016 27.4272 24.2064 27.1203 25.1209 26.4958C25.2851 26.3424 25.5538 26.346 25.7143 26.503C25.8748 26.66 25.8711 26.9169 25.7068 27.0703V27.0132ZM25.4381 24.5546C24.6095 24.5546 23.934 23.9087 23.934 23.1165C23.934 22.3244 24.6095 21.6785 25.4381 21.6785C26.2667 21.6785 26.9423 22.3244 26.9423 23.1165C26.9759 23.9087 26.3302 24.576 25.5016 24.6081C25.4754 24.6081 25.453 24.6081 25.4269 24.6081L25.4381 24.5546Z" fill="white"/>
</svg>
