<svg width="40" height="40" viewBox="0 0 40 40" fill="none" xmlns="http://www.w3.org/2000/svg">
<path fill-rule="evenodd" clip-rule="evenodd" d="M0 20C0 29.8889 7.22222 38.1111 16.6667 39.7778L16.7781 39.6886C16.741 39.6814 16.7038 39.6741 16.6667 39.6667V25.5556H11.6667V20H16.6667V15.5556C16.6667 10.5556 19.8889 7.77778 24.4445 7.77778C25.8889 7.77778 27.4445 8 28.8889 8.22222V13.3333H26.3333C23.8889 13.3333 23.3333 14.5556 23.3333 16.1111V20H28.6667L27.7778 25.5556H23.3333V39.6667C23.2962 39.6741 23.259 39.6814 23.2219 39.6886L23.3333 39.7778C32.7778 38.1111 40 29.8889 40 20C40 9 31 0 20 0C9 0 0 9 0 20Z" fill="#FFFFFF"/>
</svg>