<svg width="130" height="149" viewBox="0 0 130 149" fill="none" xmlns="http://www.w3.org/2000/svg">
<path d="M129.735 61.2684V35.6728C129.735 35.6728 116.205 35.7399 104.78 25.2723C95.1783 16.4761 94.3792 0 94.3792 0H68.7836C68.7836 0 68.7836 87.3398 68.7836 101.26C68.7836 115.174 56.6751 122.378 47.9887 122.378C41.4434 122.378 26.5533 117.248 26.5533 101.101C26.5533 84.1556 43.6699 79.8246 48.1473 79.8246C52.6247 79.8246 54.3876 80.7823 54.3876 80.7823V53.7654C54.3876 53.7654 50.2274 53.3689 47.1896 53.2652C21.3561 52.3929 0 75.5729 0 101.095C0 122.659 16.8665 148.767 47.6715 148.767C80.4834 148.767 95.5016 121.402 95.5016 101.254C95.5016 86.5346 95.5016 51.0265 95.5016 51.0265C95.5016 51.0265 104.938 56.303 112.618 58.7064C120.298 61.1098 129.735 61.2684 129.735 61.2684Z" fill="#FFFFFF"/>
</svg>