<svg width="38" height="64" viewBox="0 0 38 64" fill="none" xmlns="http://www.w3.org/2000/svg">
<path d="M33.1073 37.9737C34.54 44.0203 35.9074 50.0827 37.5 56.0911L35.2473 55.4741C34.8711 55.086 34.4792 54.644 34.121 54.2401C33.9633 54.0606 33.3821 53.0241 33.2763 53.0061C30.8389 55.178 25.1779 58.1015 23.7588 59.1762C22.7856 59.2233 19.1746 63.3897 18.8029 63.3269C18.866 59.6585 18.7691 55.9992 18.6903 52.333C18.6903 52.3151 18.857 52.3846 18.8029 51.9965C19.2286 52.0144 25.3244 49.0798 26.0677 48.631C31.0822 45.6066 30.2352 43.17 30.0662 37.8615C30.064 37.7875 30.0662 37.7112 30.0662 37.6372C30.0617 37.4509 30.0752 37.2625 30.0662 37.0762C30.2622 37.8032 31.9247 37.6843 33.1073 37.9737Z" fill="#BB2436"/>
<path d="M18.8029 5.55302C18.7376 10.1929 18.7353 14.826 18.6903 19.4636C18.6858 19.9124 18.6948 20.3611 18.6903 20.8098C18.3591 21.6826 18.3524 22.598 18.1271 23.5022C17.4828 26.0981 15.3383 29.3738 13.0023 30.794C11.1033 31.9495 7.06651 32.47 4.83638 32.3646C6.6295 27.5206 17.654 6.1072 18.2397 3.70202C18.3749 3.14559 18.2825 2.56673 18.465 2.01928L18.1271 2.07537C18.3704 1.56606 18.5483 1.01188 18.8029 0.50482C18.8209 2.18531 18.8277 3.87253 18.8029 5.55302Z" fill="#590C23"/>
<path d="M30.4041 32.3646C29.0277 32.2569 28.0028 32.0079 26.6872 31.6915C26.7773 31.696 26.917 31.7072 26.9125 31.6354C26.8832 31.0992 22.5986 23.556 21.6187 22.3243C20.9091 21.4335 19.6612 20.2713 18.8029 19.4636H18.6903C18.7353 14.826 18.7376 10.1929 18.8029 5.55302C22.0355 14.7497 26.9035 23.2801 30.4041 32.3646Z" fill="#E46C6F"/>
<path d="M30.4041 32.3646C26.9035 23.2801 22.0355 14.7497 18.8029 5.55302C18.8277 3.87253 18.8209 2.18531 18.8029 0.50482C18.893 0.325329 18.9561 0.226608 18.9155 0C23.1573 9.24607 27.3675 18.804 31.8683 28.0456C34.2674 32.9704 35.6168 32.7684 30.4041 32.3646Z" fill="#BB2436"/>
<path d="M26.6872 31.6915C25.7231 31.4604 24.6531 31.3056 23.7588 30.794C20.569 28.9655 18.8277 22.939 18.8029 19.4636C19.6612 20.2713 20.9091 21.4335 21.6187 22.3243C22.5986 23.556 26.8832 31.0992 26.9125 31.6354C26.917 31.7072 26.7773 31.696 26.6872 31.6915Z" fill="#DA4853"/>
<path d="M4.83638 32.3646C4.64941 32.3556 3.86773 32.2793 3.71005 32.2524C4.48046 30.3767 5.41982 28.5796 6.30061 26.7555C8.04868 23.1365 9.75169 19.4995 11.4817 15.8738C12.8514 13.0042 14.1579 10.0986 15.5365 7.23576C16.3678 5.50591 17.2981 3.80747 18.1271 2.07537L18.465 2.01928C18.2825 2.56673 18.3749 3.14559 18.2397 3.70202C17.654 6.1072 6.6295 27.5206 4.83638 32.3646Z" fill="#A91A3C"/>
<path d="M32.5441 35.5057C32.6185 36.3516 32.9136 37.1548 33.1073 37.9737C31.9247 37.6843 30.2622 37.8032 30.0662 37.0762C30.0617 36.9641 30.073 36.8519 30.0662 36.7397C30.0617 36.6724 29.8657 36.208 29.9536 35.3935C29.9986 35.3958 29.6585 35.1265 30.6857 35.1692C32.4721 35.2454 32.445 35.5079 32.5441 35.5057Z" fill="#710B1D"/>
<path d="M7.76484 35.3935C7.78061 36.1025 7.74457 36.816 7.76484 37.525C7.78286 38.1667 7.86621 38.7949 7.87747 39.4321C7.9 40.7581 7.71303 42.1716 7.76484 43.4706C7.78511 43.9598 7.7761 44.2021 7.87747 44.7046C3.89026 45.7928 10.9366 52.2859 12.6644 53.2305C15.2752 54.6575 16.3655 53.6254 18.6903 52.333C18.7691 55.9992 18.866 59.6585 18.8029 63.3269C17.4671 62.3801 16.334 61.1685 15.0297 60.1858C14.5656 59.8358 13.5902 59.1425 13.6218 59.4005C10.3892 56.9976 6.75339 55.0568 3.65373 52.4452C3.49604 52.4699 3.04326 53.6837 2.92161 53.9036C2.90359 53.9372 2.82475 54.3052 2.69635 54.6328C2.52289 54.8235 2.34268 54.985 2.13318 55.1376C1.98901 55.243 0.896469 55.5953 0.5 55.9229C1.8989 50.049 3.43522 44.0652 4.61111 38.0859C7.45623 37.258 8.04868 38.4179 7.53957 35.3935C7.61391 35.3913 7.6905 35.3958 7.76484 35.3935Z" fill="#8F112C"/>
<path d="M7.53957 35.3935C8.04868 38.4179 7.45623 37.258 4.61111 38.0859C4.78682 37.1952 4.98731 36.3022 5.06164 35.3935C5.83881 35.4317 6.7579 35.4204 7.53957 35.3935Z" fill="#590C23"/>
<path d="M18.8029 37.525C18.9854 37.5586 18.8817 37.7449 18.9718 37.7493C19.7828 37.7987 20.8911 37.5968 21.3935 36.9641C22.923 39.2481 23.7588 36.8272 23.984 36.7397C24.3016 36.6163 28.9962 36.8317 30.0662 36.7397C30.073 36.8519 30.0617 36.9641 30.0662 37.0762C30.0752 37.2625 30.0617 37.4509 30.0662 37.6372C28.2889 38.7074 26.7458 40.1456 24.8288 41.0026C22.272 42.1469 18.9335 42.452 16.156 42.2366C14.2773 42.0908 12.2003 41.4244 10.5244 40.5539C9.79674 40.1747 8.16807 38.8016 7.99011 39.0394C7.94055 39.21 8.04868 39.2975 8.10274 39.4321H7.87747C7.86621 38.7949 7.78286 38.1667 7.76484 37.525C8.86865 37.6574 13.437 37.0381 13.7344 37.0762C14.8089 37.2176 14.9193 38.943 16.325 36.5714L14.8607 34.8326C14.8945 34.7743 14.5927 34.6352 14.9734 34.4961C15.5838 34.8909 17.4828 36.9551 18.296 37.6372C18.51 37.6977 18.6092 37.4891 18.8029 37.525Z" fill="#FC97A1"/>
<path d="M30.0662 37.6372C30.0662 37.7112 30.064 37.7875 30.0662 37.8615C29.1832 38.05 28.3384 39.4276 27.9262 39.8808C25.9619 42.0414 24.1462 44.487 21.2245 45.3777L21.3371 43.695H15.5928L15.9871 45.4338C13.6826 44.9111 10.4005 42.203 8.89117 40.4417C8.78304 40.3138 8.12752 39.4904 8.10274 39.4321C8.04868 39.2975 7.94055 39.21 7.99011 39.0394C8.16807 38.8016 9.79674 40.1747 10.5244 40.5539C12.2003 41.4244 14.2773 42.0908 16.156 42.2366C18.9335 42.452 22.272 42.1469 24.8288 41.0026C26.7458 40.1456 28.2889 38.7074 30.0662 37.6372Z" fill="#FCFCFC"/>
<path d="M7.87747 44.7046C8.08021 45.7053 8.74475 46.5332 9.51065 47.1727C10.4928 47.9916 17.1111 51.3997 18.3524 51.7721C18.4988 51.8148 18.6542 51.9471 18.8029 51.9965C18.857 52.3846 18.6903 52.3151 18.6903 52.333C16.3655 53.6254 15.2752 54.6575 12.6644 53.2305C10.9366 52.2859 3.89026 45.7928 7.87747 44.7046Z" fill="#710B1D"/>
<path d="M30.0662 37.8615C30.2352 43.17 31.0822 45.6066 26.0677 48.631C25.3244 49.0798 19.2286 52.0144 18.8029 51.9965C18.6542 51.9471 18.4988 51.8148 18.3524 51.7721L18.8029 50.7625C20.2446 50.0064 27.3112 45.5483 27.8135 44.8729C28.9331 43.3652 27.9847 41.5366 27.9262 39.8808C28.3384 39.4276 29.1832 38.05 30.0662 37.8615Z" fill="#FC97A1"/>
<path d="M34.121 54.2401L21.5624 61.9807C20.9902 61.8528 21.6548 61.6083 21.3935 61.532C22.1774 60.7714 22.887 59.8358 23.7588 59.1762C25.1779 58.1015 30.8389 55.178 33.2763 53.0061C33.3821 53.0241 33.9633 54.0606 34.121 54.2401Z" fill="#710B1D"/>
<path d="M23.7588 59.1762C22.887 59.8358 22.1774 60.7714 21.3935 61.532C20.391 62.5035 19.4269 63.6994 18.7466 64C17.4783 62.6897 16.1808 61.4333 14.7481 60.298C14.3742 60.0018 14.0047 59.6855 13.6218 59.4005C13.5902 59.1425 14.5656 59.8358 15.0297 60.1858C16.334 61.1685 17.4671 62.3801 18.8029 63.3269C19.1746 63.3897 22.7856 59.2233 23.7588 59.1762Z" fill="#FCFCFC"/>
<path d="M13.6218 59.4005C14.0047 59.6855 14.3742 60.0018 14.7481 60.298C14.6602 60.473 14.9869 60.6727 14.9734 60.6906C14.3291 61.6397 4.14932 54.3658 2.92161 53.9036C3.04326 53.6837 3.49604 52.4699 3.65373 52.4452C6.75339 55.0568 10.3892 56.9976 13.6218 59.4005Z" fill="#590C23"/>
<path d="M14.9734 34.4961C14.5927 34.6352 14.8945 34.7743 14.8607 34.8326C14.4688 35.4922 13.7975 36.181 13.7344 37.0762C13.437 37.0381 8.86865 37.6574 7.76484 37.525C7.74457 36.816 7.78061 36.1025 7.76484 35.3935C9.83729 35.3038 12.804 34.9784 14.6918 34.1595C14.8067 34.2134 14.9553 34.4848 14.9734 34.4961Z" fill="#EA6578"/>
<path d="M22.6324 34.0473C22.6212 34.1797 22.7045 34.1438 22.7451 34.1595L22.6324 34.9448C21.6908 35.9836 21.4678 36.8721 21.3935 36.9641C20.8911 37.5968 19.7828 37.7987 18.9718 37.7493C18.8817 37.7449 18.9854 37.5586 18.8029 37.525C19.8797 36.4705 21.1254 34.9941 22.2382 34.0473C22.2833 34.0092 22.5896 34.0832 22.6324 34.0473Z" fill="#EA6578"/>
<path d="M29.9536 35.3935C29.8657 36.208 30.0617 36.6724 30.0662 36.7397C28.9962 36.8317 24.3016 36.6163 23.984 36.7397L22.6324 34.9448L22.7451 34.1595C24.4188 34.7586 27.9059 35.0323 29.7846 35.1692C29.8747 35.1759 29.7779 35.3823 29.9536 35.3935Z" fill="#EA6578"/>
<path d="M18.1271 33.4864C18.269 33.6367 18.3546 33.8656 18.5776 33.9351L18.6339 36.9641C19.107 36.4435 19.6521 35.9926 20.1545 35.5057C21.0939 35.3397 21.6908 33.6367 22.9703 33.7108C22.9365 33.8903 22.7473 33.9509 22.6324 34.0473C22.5896 34.0832 22.2833 34.0092 22.2382 34.0473C21.1254 34.9941 19.8797 36.4705 18.8029 37.525C18.6092 37.4891 18.51 37.6977 18.296 37.6372C17.4828 36.9551 15.5838 34.8909 14.9734 34.4961C14.9553 34.4848 14.8067 34.2134 14.6918 34.1595C12.804 34.9784 9.83729 35.3038 7.76484 35.3935C7.6905 35.3958 7.61391 35.3913 7.53957 35.3935C6.7579 35.4204 5.83881 35.4317 5.06164 35.3935C4.76429 35.3778 4.45568 35.4227 4.16058 35.3935C2.58371 35.2365 1.36728 34.9201 0.894216 33.2621C0.835647 33.0601 0.612633 31.7768 0.725266 31.6915C2.90359 34.0069 11.7138 32.4364 12.6644 31.8037C13.0991 31.5142 12.9054 31.1171 12.946 31.0745C14.426 29.587 14.203 30.5809 16.156 32.1402C16.5187 32.4297 18.046 33.3989 18.1271 33.4864Z" fill="#18171E"/>
<path d="M36.8242 31.9159L36.7116 34.3278C36.5359 34.4489 36.3939 34.7047 36.3737 34.7204C35.7294 35.2656 33.5533 35.2499 32.7131 35.2813C32.6297 35.2836 32.5577 35.5057 32.5441 35.5057C32.445 35.5057 32.4721 35.2454 30.6857 35.1692C29.6585 35.1265 29.9986 35.3958 29.9536 35.3935C29.7779 35.3823 29.8747 35.1759 29.7846 35.1692C27.9059 35.0323 24.4188 34.7586 22.7451 34.1595C22.7045 34.1438 22.6212 34.1797 22.6324 34.0473C22.7473 33.9509 22.9365 33.8903 22.9703 33.7108L24.7725 31.9159C27.6198 33.0826 34.2111 33.9509 36.8242 31.9159Z" fill="#4B505D"/>
<path d="M23.7588 30.794C22.6504 30.6258 23.5628 30.8703 23.6461 30.9623C23.6799 31.0005 23.6168 31.2091 23.6461 31.2428C23.5335 31.2428 23.5019 31.0835 23.3645 31.1306C22.8802 31.2989 19.6093 33.4685 18.5776 33.9351C18.3546 33.8656 18.269 33.6367 18.1271 33.4864C18.4019 33.3989 18.447 33.2733 18.465 33.2621C19.0011 32.9255 19.6116 32.6832 20.1545 32.3646C21.1074 31.8059 21.9949 31.1463 22.9703 30.6258L19.9292 26.9798C19.553 24.2516 19.5575 28.252 18.5776 28.6626C18.688 26.0353 18.6677 23.4371 18.6903 20.8098C18.6948 20.3611 18.6858 19.9124 18.6903 19.4636H18.8029C18.8277 22.939 20.569 28.9655 23.7588 30.794Z" fill="#E2DADB"/>
<path d="M23.6461 31.2428C23.7858 31.4066 24.2611 31.3617 23.984 31.6915C22.6459 32.8986 21.4453 34.2537 20.1545 35.5057C19.6521 35.9926 19.107 36.4435 18.6339 36.9641L18.5776 33.9351C19.6093 33.4685 22.8802 31.2989 23.3645 31.1306C23.5019 31.0835 23.5335 31.2428 23.6461 31.2428Z" fill="#687589"/>
<path d="M24.7725 31.9159L22.9703 33.7108C21.6908 33.6367 21.0939 35.3397 20.1545 35.5057C21.4453 34.2537 22.6459 32.8986 23.984 31.6915C24.3625 31.53 24.3895 31.7588 24.7725 31.9159Z" fill="#18171E"/>
<path d="M18.5776 28.6626C18.5146 30.195 18.429 31.7296 18.3524 33.2621C16.9219 32.387 15.6739 31.2719 14.5228 30.0649C14.4575 29.6879 18.5236 26.0622 18.1271 23.5022C18.3524 22.598 18.3591 21.6826 18.6903 20.8098C18.6677 23.4371 18.688 26.0353 18.5776 28.6626Z" fill="#201C2C"/>
<path d="M19.9292 26.9798C20.1725 28.7478 19.9563 30.5876 20.1545 32.3646C19.6116 32.6832 19.0011 32.9255 18.465 33.2621H18.3524C18.429 31.7296 18.5146 30.195 18.5776 28.6626C19.5575 28.252 19.553 24.2516 19.9292 26.9798Z" fill="#4D4657"/>
<path d="M20.1545 32.3646C19.9563 30.5876 20.1725 28.7478 19.9292 26.9798L22.9703 30.6258C21.9949 31.1463 21.1074 31.8059 20.1545 32.3646Z" fill="#ADADAD"/>
<path d="M10.8059 45.8265C12.8063 47.3387 16.6043 49.0999 18.8029 50.7625L18.3524 51.7721C17.1111 51.3997 10.4928 47.9916 9.51065 47.1727C8.74475 46.5332 8.08021 45.7053 7.87747 44.7046C7.7761 44.2021 7.78511 43.9598 7.76484 43.4706C8.34152 44.1998 9.92965 46.4233 10.8059 45.8265Z" fill="#EA6578"/>
<path d="M8.10274 39.4321C8.12752 39.4904 8.78304 40.3138 8.89117 40.4417C8.51047 43.3697 8.48569 44.0742 10.8059 45.8265C9.92965 46.4233 8.34152 44.1998 7.76484 43.4706C7.71303 42.1716 7.9 40.7581 7.87747 39.4321H8.10274Z" fill="#D14762"/>
<path d="M23.984 36.7397C23.7588 36.8272 22.923 39.2481 21.3935 36.9641C21.4678 36.8721 21.6908 35.9836 22.6324 34.9448L23.984 36.7397Z" fill="#191308"/>
<path d="M14.8607 34.8326L16.325 36.5714C14.9193 38.943 14.8089 37.2176 13.7344 37.0762C13.7975 36.181 14.4688 35.4922 14.8607 34.8326Z" fill="#191308"/>
<path d="M27.9262 39.8808C27.9847 41.5366 28.9331 43.3652 27.8135 44.8729C27.3112 45.5483 20.2446 50.0064 18.8029 50.7625C16.6043 49.0999 12.8063 47.3387 10.8059 45.8265C8.48569 44.0742 8.51047 43.3697 8.89117 40.4417C10.4005 42.203 13.6826 44.9111 15.9871 45.4338L15.5928 43.695H21.3371L21.2245 45.3777C24.1462 44.487 25.9619 42.0414 27.9262 39.8808Z" fill="#090807"/>
</svg>
