<svg width="369" height="128" viewBox="0 0 369 128" fill="none" xmlns="http://www.w3.org/2000/svg">
<path d="M91.2749 59.0571C95.4378 66.2201 95.658 75.1603 93.212 82.945C96.4342 77.0556 98.3777 70.4436 99.1731 63.7781C92.3354 57.6164 87.7341 48.093 89.7889 38.7947C94.8071 42.285 98.0998 48.0137 99.4639 53.9331C99.1453 48.3181 98.1447 42.5123 95.9467 37.3368C87.6229 32.1442 80.5799 23.3776 80.225 13.2303C89.3612 17.2287 95.6195 26.0018 97.9736 35.5359C100.881 42.7374 102.1 50.5757 102.047 58.2724C104.73 51.519 109.646 45.0915 116.586 42.4437C115.479 51.3561 109.425 59.2951 101.67 63.613C100.973 70.2442 98.9935 76.7726 96.1541 82.737C101.369 77.1906 108.85 72.9092 116.65 73.5223V73.6038C111.899 81.8301 102.96 87.4065 93.4942 87.9897C93.2847 88.009 93.0431 87.9511 92.9597 88.2019C91.277 90.8326 89.2265 93.2445 87.1333 95.5214C95.4506 92.2111 105.047 93.1802 112.962 97.1765C104.3 101.576 93.5156 102.303 84.7664 97.7446C83.2133 99.1377 81.5537 100.416 79.8083 101.563L80.2212 98.2512C84.0304 95.4464 87.3761 91.9857 90.0497 88.114C91.1893 87.0463 90.0754 86.2081 89.7546 84.9967C89.0148 83.0779 88.4461 81.0948 88.0356 79.0773C86.7228 72.2831 87.5096 64.8801 91.0696 58.8535" fill="url(#paint0_linear_9_236)"/>
<path d="M25.3797 59.0486C21.2167 66.2115 20.9965 75.1517 23.4425 82.9364C20.2203 77.047 18.2768 70.4351 17.4814 63.7695C24.3192 57.6078 28.9204 48.0844 26.8657 38.7861C21.8475 42.2765 18.5547 48.0051 17.1906 53.9245C17.5092 48.3095 18.5098 42.5037 20.7078 37.3282C29.0316 32.1356 36.0746 23.369 36.4295 13.2217C27.2933 17.2202 21.035 25.9932 18.6809 35.5273C15.773 42.7288 14.5543 50.5671 14.6077 58.2639C11.9222 51.5126 7.00667 45.085 0.0662822 42.4373C1.17384 51.3496 7.2269 59.2887 14.9819 63.6066C15.6789 70.2378 17.6589 76.7661 20.4983 82.7306C15.2813 77.1842 7.79992 72.9027 0 73.5159V73.5974C4.75094 81.8237 13.6905 87.4001 23.156 87.9832C23.3655 88.0025 23.6072 87.9447 23.6905 88.1955C25.3733 90.8261 27.4237 93.2381 29.517 95.5149C21.1996 92.2047 11.6037 93.1737 3.68828 97.1701C12.3499 101.569 23.1346 102.296 31.8839 97.7382C34.0322 99.6651 36.3844 101.372 38.8853 102.818L37.4467 98.9708C33.2148 96.0467 29.5098 92.3204 26.6005 88.1076C25.4609 87.0399 26.5749 86.2016 26.8956 84.9903C27.6354 83.0715 28.2041 81.0883 28.6147 79.0709C29.9275 72.2767 29.1406 64.8737 25.5806 58.847" fill="url(#paint1_linear_9_236)"/>
<path d="M71.0524 40.4005L63.772 55.0008L41.9331 47.7007L56.4917 33.1004L71.0524 40.4005Z" fill="#805CD8"/>
<path d="M72.8719 67.7766L85.6131 55.0008L71.0524 40.4005L63.772 55.0008V62.3009L72.8719 67.7766Z" fill="#5E35B1"/>
<path d="M56.4917 69.6011L63.772 76.9012L72.8976 67.7508L63.772 62.3009L56.4917 69.6011Z" fill="#805CD8"/>
<path d="M85.6131 55.0008L63.772 76.9012V128L78.3327 113.4L79.8083 101.563L80.2212 98.2512L81.9729 84.2003L85.6131 55.0008Z" fill="#391E70"/>
<path d="M63.772 76.9012L56.4917 69.6011L45.5722 120.7L63.772 128V76.9012Z" fill="#5E35B1"/>
<path d="M34.6528 58.6498L45.5722 69.6011L34.6528 91.4993V58.6498Z" fill="#391E70"/>
<path d="M41.9331 47.7007L63.772 55.0008V62.3009L56.4917 69.6011H45.5722L34.6528 58.6498L41.9331 47.7007Z" fill="#A08AE4"/>
<path d="M34.6528 91.4993L45.5722 69.6011H56.4917L45.5722 120.7L38.8853 102.818L37.4467 98.9708L34.6528 91.4993Z" fill="#805CD8"/>
<path d="M71.3239 13.1402C59.6754 13.9464 59.0232 14.6003 58.2193 26.2805C57.4153 14.6003 56.7632 13.9464 45.1147 13.1402C56.7632 12.3341 57.4153 11.6802 58.2193 0C59.0232 11.6802 59.6754 12.3341 71.3239 13.1402Z" fill="#14B8A6"/>
<path d="M340.632 72.7839C344.258 72.7839 346.904 73.7013 348.568 75.5359C350.232 77.3706 351.064 80.1013 351.064 83.7279C351.064 87.3546 350.424 90.0853 349.144 91.9199C347.864 93.7119 345.986 95.3546 343.512 96.8479L342.872 97.2319V101.136H334.488V95.0559C334.488 93.6906 334.701 92.6239 335.128 91.8559C335.597 91.0453 336.365 90.3839 337.432 89.8719C338.498 89.3173 339.266 88.9119 339.736 88.6559C340.205 88.3999 340.653 87.9946 341.08 87.4399C341.549 86.8426 341.784 86.0959 341.784 85.1999C341.784 84.2613 341.549 83.5573 341.08 83.0879C340.61 82.5759 339.842 82.3199 338.776 82.3199C337.709 82.3199 335.298 82.8106 331.544 83.7919V74.1279C335.128 73.2319 338.157 72.7839 340.632 72.7839ZM333.336 109.904C333.336 106.533 335.17 104.848 338.84 104.848C342.509 104.848 344.344 106.533 344.344 109.904C344.344 111.525 343.917 112.741 343.064 113.552C342.253 114.32 340.909 114.704 339.032 114.704C335.234 114.704 333.336 113.104 333.336 109.904Z" fill="white"/>
<path d="M326.533 114H305.029V74.2561H327.173L326.533 84.0481H315.973V90.0001H325.125V98.4481H315.973V105.04H327.173L326.533 114Z" fill="white"/>
<path d="M300.604 86.8641C300.604 89.2534 300.241 91.2374 299.516 92.8161C298.79 94.3948 297.66 95.8241 296.124 97.1041L301.436 114H289.596L285.628 99.6641H284.156V114H273.404V74.2561H288.252C292.518 74.2561 295.633 75.2588 297.596 77.2641C299.601 79.2694 300.604 82.4694 300.604 86.8641ZM285.82 92.9441C286.929 92.9441 287.718 92.6241 288.188 91.9841C288.657 91.3441 288.892 90.1921 288.892 88.5281C288.892 86.8214 288.657 85.6481 288.188 85.0081C287.718 84.3254 286.95 83.9841 285.884 83.9841H284.156V92.9441H285.82Z" fill="white"/>
<path d="M270.258 83.9201H262.834V114H251.89V83.9201H244.018L244.658 74.2561H270.898L270.258 83.9201Z" fill="white"/>
<path d="M218.049 86.224C218.049 82.4266 219.159 79.376 221.377 77.072C223.596 74.768 226.625 73.616 230.465 73.616C234.348 73.616 238.316 74 242.369 74.768L241.089 85.008C236.865 84.0266 233.964 83.536 232.385 83.536C230.38 83.536 229.377 84.3466 229.377 85.968C229.377 86.608 229.847 87.2266 230.785 87.824C231.767 88.4213 232.94 89.0613 234.305 89.744C235.671 90.384 237.036 91.1733 238.401 92.112C239.767 93.008 240.919 94.3093 241.857 96.016C242.839 97.7226 243.329 99.6853 243.329 101.904C243.329 105.957 242.241 109.093 240.065 111.312C237.889 113.531 234.796 114.64 230.785 114.64C226.817 114.64 222.935 114.021 219.137 112.784L219.841 103.248C224.407 104.571 227.585 105.232 229.377 105.232C231.169 105.232 232.065 104.443 232.065 102.864C232.065 102.053 231.575 101.307 230.593 100.624C229.655 99.9413 228.503 99.2586 227.137 98.576C225.772 97.8933 224.385 97.104 222.977 96.208C221.612 95.312 220.439 94.0106 219.457 92.304C218.519 90.5973 218.049 88.5706 218.049 86.224Z" fill="white"/>
<path d="M215.47 114H193.966V74.2561H216.11L215.47 84.0481H204.91V90.0001H214.062V98.4481H204.91V105.04H216.11L215.47 114Z" fill="white"/>
<path d="M188.743 114H178.695V93.2641H178.119L174.343 114H164.039L160.455 93.2641H159.815V114H149.895L151.239 74.2561H165.639L169.223 95.7601H169.735L173.191 74.2561H187.399L188.743 114Z" fill="white"/>
<path d="M368.885 50.0001H358.197L356.981 43.7281H349.429L348.213 50.0001H338.037L345.333 10.2561H361.589L368.885 50.0001ZM355.765 36.2401L353.525 22.0321H353.077L350.837 36.2401H355.765Z" fill="white"/>
<path d="M331.09 22.096C326.994 20.8586 323.986 20.24 322.066 20.24C320.188 20.24 318.887 21.072 318.162 22.736C317.479 24.4 317.138 27.0453 317.138 30.672C317.138 34.256 317.458 36.88 318.098 38.544C318.78 40.1653 320.146 40.976 322.194 40.976C322.791 40.976 323.943 40.8053 325.65 40.464V35.6H322.77V28.048H334.994V50H327.442L326.418 47.952H326.162C325.436 48.5493 324.86 48.9973 324.434 49.296C323.239 50.192 321.554 50.64 319.378 50.64C310.46 50.64 306.002 43.8986 306.002 30.416C306.002 23.6746 307.175 18.5333 309.522 14.992C311.868 11.408 315.815 9.61597 321.362 9.61597C325.799 9.61597 329.618 10.2986 332.818 11.664L331.09 22.096Z" fill="white"/>
<path d="M303.823 50.0001H293.135L291.919 43.7281H284.367L283.151 50.0001H272.975L280.271 10.2561H296.527L303.823 50.0001ZM290.703 36.2401L288.463 22.0321H288.015L285.775 36.2401H290.703Z" fill="white"/>
<path d="M271.702 10.2561L264.982 50.0001H248.086L240.918 10.2561H253.014L256.47 36.3041H257.558L260.182 10.2561H271.702Z" fill="white"/>
<path d="M224.305 50.0001H214.257V29.2641H213.681L209.905 50.0001H199.601L196.017 29.2641H195.377V50.0001H185.457L186.801 10.2561H201.201L204.785 31.7601H205.297L208.753 10.2561H222.961L224.305 50.0001Z" fill="white"/>
<path d="M181.47 50.0001H159.966V10.2561H182.11L181.47 20.0481H170.91V26.0001H180.062V34.4481H170.91V41.0401H182.11L181.47 50.0001Z" fill="white"/>
<path d="M156.82 19.9201H149.396V50.0001H138.452V19.9201H130.58L131.22 10.2561H157.46L156.82 19.9201Z" fill="white"/>
<defs>
<linearGradient id="paint0_linear_9_236" x1="58.3337" y1="0" x2="58.3337" y2="127.999" gradientUnits="userSpaceOnUse">
<stop stop-color="#5EEAD4"/>
<stop offset="1" stop-color="#042F2E"/>
</linearGradient>
<linearGradient id="paint1_linear_9_236" x1="58.3337" y1="0" x2="58.3337" y2="127.999" gradientUnits="userSpaceOnUse">
<stop stop-color="#5EEAD4"/>
<stop offset="1" stop-color="#042F2E"/>
</linearGradient>
</defs>
</svg>
