<svg width="763" height="128" viewBox="0 0 763 128" fill="none" xmlns="http://www.w3.org/2000/svg">
<path d="M91.2749 59.0571C95.4378 66.2201 95.658 75.1603 93.212 82.945C96.4342 77.0556 98.3777 70.4436 99.1731 63.7781C92.3354 57.6164 87.7341 48.093 89.7889 38.7947C94.8071 42.285 98.0998 48.0137 99.4639 53.9331C99.1453 48.3181 98.1447 42.5123 95.9467 37.3368C87.6229 32.1442 80.5799 23.3776 80.225 13.2303C89.3612 17.2287 95.6195 26.0018 97.9736 35.5359C100.881 42.7374 102.1 50.5757 102.047 58.2724C104.73 51.519 109.646 45.0915 116.586 42.4437C115.479 51.3561 109.425 59.2951 101.67 63.613C100.973 70.2442 98.9935 76.7726 96.1541 82.737C101.369 77.1906 108.85 72.9092 116.65 73.5223V73.6038C111.899 81.8301 102.96 87.4065 93.4942 87.9897C93.2847 88.009 93.0431 87.9511 92.9597 88.2019C91.277 90.8326 89.2265 93.2445 87.1333 95.5214C95.4506 92.2111 105.047 93.1802 112.962 97.1765C104.3 101.576 93.5156 102.303 84.7664 97.7446C83.2133 99.1377 81.5537 100.416 79.8083 101.563L80.2212 98.2512C84.0304 95.4464 87.3761 91.9857 90.0497 88.114C91.1893 87.0463 90.0754 86.2081 89.7546 84.9967C89.0148 83.0779 88.4461 81.0948 88.0356 79.0773C86.7228 72.2831 87.5096 64.8801 91.0696 58.8535" fill="url(#paint0_linear_8_196)"/>
<path d="M25.3797 59.0486C21.2167 66.2115 20.9965 75.1517 23.4425 82.9364C20.2203 77.047 18.2768 70.4351 17.4814 63.7695C24.3192 57.6078 28.9204 48.0844 26.8657 38.7861C21.8475 42.2765 18.5547 48.0051 17.1906 53.9245C17.5092 48.3095 18.5098 42.5037 20.7078 37.3282C29.0316 32.1356 36.0746 23.369 36.4295 13.2217C27.2933 17.2202 21.035 25.9932 18.6809 35.5273C15.773 42.7288 14.5543 50.5671 14.6077 58.2639C11.9222 51.5126 7.00667 45.085 0.0662822 42.4373C1.17384 51.3496 7.2269 59.2887 14.9819 63.6066C15.6789 70.2378 17.6589 76.7661 20.4983 82.7306C15.2813 77.1842 7.79992 72.9027 0 73.5159V73.5974C4.75094 81.8237 13.6905 87.4001 23.156 87.9832C23.3655 88.0025 23.6072 87.9447 23.6905 88.1955C25.3733 90.8261 27.4237 93.2381 29.517 95.5149C21.1996 92.2047 11.6037 93.1737 3.68828 97.1701C12.3499 101.569 23.1346 102.296 31.8839 97.7382C34.0322 99.6651 36.3844 101.372 38.8853 102.818L37.4467 98.9708C33.2148 96.0467 29.5098 92.3204 26.6005 88.1076C25.4609 87.0399 26.5749 86.2016 26.8956 84.9903C27.6354 83.0715 28.2041 81.0883 28.6147 79.0709C29.9275 72.2767 29.1406 64.8737 25.5806 58.847" fill="url(#paint1_linear_8_196)"/>
<path d="M71.0524 40.4005L63.772 55.0008L41.9331 47.7007L56.4917 33.1004L71.0524 40.4005Z" fill="#805CD8"/>
<path d="M72.8719 67.7766L85.6131 55.0008L71.0524 40.4005L63.772 55.0008V62.3009L72.8719 67.7766Z" fill="#5E35B1"/>
<path d="M56.4917 69.6011L63.772 76.9012L72.8976 67.7508L63.772 62.3009L56.4917 69.6011Z" fill="#805CD8"/>
<path d="M85.6131 55.0008L63.772 76.9012V128L78.3327 113.4L79.8083 101.563L80.2212 98.2512L81.9729 84.2003L85.6131 55.0008Z" fill="#391E70"/>
<path d="M63.772 76.9012L56.4917 69.6011L45.5722 120.7L63.772 128V76.9012Z" fill="#5E35B1"/>
<path d="M34.6528 58.6498L45.5722 69.6011L34.6528 91.4993V58.6498Z" fill="#391E70"/>
<path d="M41.9331 47.7007L63.772 55.0008V62.3009L56.4917 69.6011H45.5722L34.6528 58.6498L41.9331 47.7007Z" fill="#A08AE4"/>
<path d="M34.6528 91.4993L45.5722 69.6011H56.4917L45.5722 120.7L38.8853 102.818L37.4467 98.9708L34.6528 91.4993Z" fill="#805CD8"/>
<path d="M71.3239 13.1402C59.6754 13.9464 59.0232 14.6003 58.2193 26.2805C57.4153 14.6003 56.7632 13.9464 45.1147 13.1402C56.7632 12.3341 57.4153 11.6802 58.2193 0C59.0232 11.6802 59.6754 12.3341 71.3239 13.1402Z" fill="#14B8A6"/>
<path d="M748.251 33.5454C753.086 33.5454 756.613 34.7685 758.832 37.2147C761.051 39.661 762.16 43.3019 762.16 48.1374C762.16 52.973 761.307 56.6139 759.6 59.0601C757.893 61.4494 755.39 63.6396 752.091 65.6307L751.237 66.1427V71.3481H740.059V63.2414C740.059 61.421 740.343 59.9987 740.912 58.9747C741.538 57.8939 742.562 57.0121 743.984 56.3294C745.406 55.5899 746.43 55.0494 747.056 54.7081C747.682 54.3667 748.279 53.8263 748.848 53.0867C749.474 52.2903 749.787 51.2947 749.787 50.1001C749.787 48.8485 749.474 47.9099 748.848 47.2841C748.222 46.6014 747.198 46.2601 745.776 46.2601C744.354 46.2601 741.139 46.9143 736.133 48.2227V35.3374C740.912 34.1427 744.951 33.5454 748.251 33.5454ZM738.523 83.0387C738.523 78.5445 740.969 76.2974 745.861 76.2974C750.754 76.2974 753.2 78.5445 753.2 83.0387C753.2 85.2005 752.631 86.8219 751.493 87.9027C750.412 88.9267 748.62 89.4388 746.117 89.4388C741.054 89.4388 738.523 87.3054 738.523 83.0387Z" fill="white"/>
<path d="M729.452 88.5001H700.78V35.5081H730.305L729.452 48.5641H715.372V56.5001H727.575V67.7641H715.372V76.5534H730.305L729.452 88.5001Z" fill="white"/>
<path d="M694.88 52.3187C694.88 55.5045 694.396 58.1498 693.429 60.2547C692.462 62.3596 690.955 64.2654 688.907 65.9721L695.989 88.5001H680.203L674.912 69.3854H672.949V88.5001H658.613V35.5081H678.411C684.1 35.5081 688.252 36.8449 690.869 39.5187C693.543 42.1925 694.88 46.4592 694.88 52.3187ZM675.168 60.4254C676.647 60.4254 677.699 59.9987 678.325 59.1454C678.951 58.2921 679.264 56.7561 679.264 54.5374C679.264 52.2618 678.951 50.6974 678.325 49.8441C677.699 48.9338 676.676 48.4787 675.253 48.4787H672.949V60.4254H675.168Z" fill="white"/>
<path d="M654.419 48.3934H644.52V88.5001H629.928V48.3934H619.432L620.285 35.5081H655.272L654.419 48.3934Z" fill="white"/>
<path d="M584.807 51.4652C584.807 46.4021 586.286 42.3345 589.245 39.2625C592.203 36.1905 596.242 34.6545 601.362 34.6545C606.539 34.6545 611.829 35.1665 617.234 36.1905L615.527 49.8439C609.895 48.5354 606.027 47.8812 603.922 47.8812C601.248 47.8812 599.911 48.9621 599.911 51.1239C599.911 51.9772 600.537 52.8021 601.789 53.5985C603.097 54.395 604.661 55.2483 606.482 56.1585C608.302 57.0119 610.123 58.0643 611.943 59.3159C613.764 60.5105 615.3 62.2457 616.551 64.5212C617.86 66.7968 618.514 69.4137 618.514 72.3719C618.514 77.7763 617.063 81.9577 614.162 84.9159C611.261 87.8741 607.136 89.3532 601.789 89.3532C596.498 89.3532 591.321 88.5283 586.258 86.8785L587.197 74.1639C593.284 75.9274 597.522 76.8092 599.911 76.8092C602.301 76.8092 603.495 75.7568 603.495 73.6519C603.495 72.571 602.841 71.5754 601.533 70.6652C600.281 69.755 598.745 68.8448 596.925 67.9345C595.104 67.0243 593.255 65.9719 591.378 64.7772C589.557 63.5825 587.993 61.8474 586.685 59.5719C585.433 57.2963 584.807 54.5941 584.807 51.4652Z" fill="white"/>
<path d="M581.369 88.5001H552.697V35.5081H582.222L581.369 48.5641H567.289V56.5001H579.491V67.7641H567.289V76.5534H582.222L581.369 88.5001Z" fill="white"/>
<path d="M545.732 88.5001H532.335V60.8521H531.567L526.532 88.5001H512.793L508.015 60.8521H507.161V88.5001H493.935L495.727 35.5081H514.927L519.705 64.1801H520.388L524.996 35.5081H543.94L545.732 88.5001Z" fill="white"/>
<path d="M472.089 88.5001H457.838L456.217 80.1374H446.147L444.526 88.5001H430.958L440.686 35.5081H462.361L472.089 88.5001ZM454.595 70.1534L451.609 51.2094H451.011L448.025 70.1534H454.595Z" fill="white"/>
<path d="M421.695 51.2945C416.233 49.6448 412.223 48.8199 409.663 48.8199C407.159 48.8199 405.424 49.9292 404.457 52.1479C403.547 54.3665 403.092 57.8937 403.092 62.7292C403.092 67.5079 403.519 71.0065 404.372 73.2252C405.282 75.387 407.103 76.4679 409.833 76.4679C410.63 76.4679 412.166 76.2403 414.441 75.7852V69.2999H410.601V59.2305H426.9V88.4999H416.831L415.465 85.7692H415.124C414.157 86.5657 413.389 87.163 412.82 87.5612C411.227 88.7559 408.98 89.3532 406.079 89.3532C394.189 89.3532 388.244 80.3648 388.244 62.3879C388.244 53.3994 389.808 46.5443 392.937 41.8225C396.066 37.0439 401.328 34.6545 408.724 34.6545C414.64 34.6545 419.732 35.5648 423.999 37.3852L421.695 51.2945Z" fill="white"/>
<path d="M385.339 88.5001H371.088L369.467 80.1374H359.397L357.776 88.5001H344.208L353.936 35.5081H375.611L385.339 88.5001ZM367.845 70.1534L364.859 51.2094H364.261L361.275 70.1534H367.845Z" fill="white"/>
<path d="M342.511 35.5081L333.551 88.5001H311.023L301.466 35.5081H317.594L322.202 70.2387H323.653L327.151 35.5081H342.511Z" fill="white"/>
<path d="M279.315 88.5001H265.918V60.8521H265.15L260.115 88.5001H246.377L241.598 60.8521H240.745V88.5001H227.518L229.31 35.5081H248.51L253.289 64.1801H253.971L258.579 35.5081H277.523L279.315 88.5001Z" fill="white"/>
<path d="M222.202 88.5001H193.53V35.5081H223.055L222.202 48.5641H208.122V56.5001H220.325V67.7641H208.122V76.5534H223.055L222.202 88.5001Z" fill="white"/>
<path d="M189.335 48.3934H179.437V88.5001H164.845V48.3934H154.349L155.202 35.5081H190.189L189.335 48.3934Z" fill="white"/>
<defs>
<linearGradient id="paint0_linear_8_196" x1="58.3337" y1="0" x2="58.3337" y2="127.999" gradientUnits="userSpaceOnUse">
<stop stop-color="#5EEAD4"/>
<stop offset="1" stop-color="#042F2E"/>
</linearGradient>
<linearGradient id="paint1_linear_8_196" x1="58.3337" y1="0" x2="58.3337" y2="127.999" gradientUnits="userSpaceOnUse">
<stop stop-color="#5EEAD4"/>
<stop offset="1" stop-color="#042F2E"/>
</linearGradient>
</defs>
</svg>
