<svg width="108" height="48" viewBox="0 0 108 48" fill="none" xmlns="http://www.w3.org/2000/svg">
<path d="M34.3561 22.1464C35.9172 24.8325 35.9998 28.1851 35.0826 31.1044C36.2909 28.8958 37.0197 26.4164 37.318 23.9168C34.7538 21.6061 33.0283 18.0349 33.7989 14.548C35.6807 15.8569 36.9155 18.0051 37.427 20.2249C37.3075 18.1193 36.9323 15.9421 36.1081 14.0013C32.9866 12.0541 30.3455 8.76659 30.2124 4.96136C33.6385 6.46078 35.9854 9.75066 36.8682 13.326C37.9586 16.0265 38.4156 18.9659 38.3956 21.8522C39.4018 19.3196 41.2452 16.9093 43.8478 15.9164C43.4325 19.2585 41.1626 22.2357 38.2545 23.8549C37.9931 26.3416 37.2506 28.7897 36.1858 31.0264C38.1414 28.9465 40.9469 27.3409 43.8719 27.5709V27.6014C42.0903 30.6863 38.738 32.7774 35.1884 32.9961C35.1098 33.0034 35.0192 32.9817 34.9879 33.0757C34.3569 34.0622 33.588 34.9667 32.803 35.8205C35.922 34.5792 39.5205 34.9426 42.4888 36.4412C39.2407 38.0909 35.1964 38.3635 31.9154 36.6542C31.333 37.1766 30.7107 37.6559 30.0562 38.0863L30.211 36.8442C31.6394 35.7924 32.8941 34.4946 33.8967 33.0428C34.324 32.6424 33.9063 32.328 33.786 31.8738C33.5086 31.1542 33.2953 30.4105 33.1414 29.654C32.6491 27.1062 32.9441 24.33 34.2791 22.07" fill="url(#paint0_linear_0_1)"/>
<path d="M9.64542 22.1432C8.08432 24.8293 8.00173 28.1819 8.91899 31.1011C7.71068 28.8926 6.98184 26.4131 6.68357 23.9136C9.24773 21.6029 10.9732 18.0317 10.2027 14.5448C8.32085 15.8537 7.08608 18.0019 6.57453 20.2217C6.694 18.1161 7.06924 15.9389 7.89349 13.9981C11.0149 12.0509 13.656 8.76338 13.7891 4.95814C10.363 6.45756 8.01617 9.74745 7.13338 13.3227C6.04293 16.0233 5.58591 18.9627 5.60595 21.849C4.59889 19.3172 2.75555 16.9069 0.152908 15.914C0.56824 19.2561 2.83814 22.2333 5.74627 23.8525C6.00766 26.3392 6.75012 28.7873 7.81491 31.024C5.85852 28.9441 3.05302 27.3385 0.128052 27.5685V27.599C1.90965 30.6839 5.26198 32.775 8.81155 32.9937C8.89013 33.001 8.98073 32.9792 9.012 33.0733C9.64302 34.0598 10.4119 34.9643 11.1969 35.8181C8.0779 34.5768 4.47942 34.9402 1.51116 36.4388C4.75925 38.0885 8.80353 38.3611 12.0845 36.6518C12.8901 37.3744 13.7722 38.0146 14.7101 38.5568L14.1706 37.1141C12.5836 36.0175 11.1942 34.6202 10.1033 33.0403C9.67589 32.64 10.0936 32.3256 10.2139 31.8714C10.4913 31.1518 10.7046 30.4081 10.8585 29.6516C11.3509 27.1038 11.0558 24.3276 9.72079 22.0676" fill="url(#paint1_linear_0_1)"/>
<path d="M26.7727 15.1502L24.0426 20.6253L15.853 17.8877L21.3124 12.4126L26.7727 15.1502Z" fill="#805CD8"/>
<path d="M27.455 25.4162L32.2329 20.6253L26.7727 15.1502L24.0426 20.6253V23.3628L27.455 25.4162Z" fill="#5E35B1"/>
<path d="M21.3124 26.1004L24.0426 28.8379L27.4646 25.4066L24.0426 23.3628L21.3124 26.1004Z" fill="#805CD8"/>
<path d="M32.2329 20.6253L24.0426 28.8379V48L29.5028 42.5249L30.0562 38.0863L30.211 36.8442L30.8679 31.5751L32.2329 20.6253Z" fill="#391E70"/>
<path d="M24.0426 28.8379L21.3124 26.1004L17.2176 45.2624L24.0426 48V28.8379Z" fill="#5E35B1"/>
<path d="M13.1228 21.9937L17.2176 26.1004L13.1228 34.3122V21.9937Z" fill="#391E70"/>
<path d="M15.853 17.8877L24.0426 20.6253V23.3628L21.3124 26.1004H17.2176L13.1228 21.9937L15.853 17.8877Z" fill="#A08AE4"/>
<path d="M13.1228 34.3122L17.2176 26.1004H21.3124L17.2176 45.2624L14.7101 38.5568L14.1706 37.1141L13.1228 34.3122Z" fill="#805CD8"/>
<path d="M26.8745 4.92759C22.5063 5.22989 22.2618 5.4751 21.9603 9.85518C21.6588 5.4751 21.4143 5.22989 17.046 4.92759C21.4143 4.6253 21.6588 4.38008 21.9603 0C22.2618 4.38008 22.5063 4.6253 26.8745 4.92759Z" fill="#14B8A6"/>
<path d="M100.62 26.696C101.527 26.696 102.188 26.9253 102.604 27.384C103.02 27.8427 103.228 28.5253 103.228 29.432C103.228 30.3387 103.068 31.0213 102.748 31.48C102.428 31.928 101.959 32.3387 101.34 32.712L101.18 32.808V33.784H99.0844V32.264C99.0844 31.9227 99.1377 31.656 99.2444 31.464C99.3617 31.2613 99.5537 31.096 99.8204 30.968C100.087 30.8293 100.279 30.728 100.396 30.664C100.514 30.6 100.626 30.4987 100.732 30.36C100.85 30.2107 100.908 30.024 100.908 29.8C100.908 29.5653 100.85 29.3893 100.732 29.272C100.615 29.144 100.423 29.08 100.156 29.08C99.8897 29.08 99.2871 29.2027 98.3484 29.448V27.032C99.2444 26.808 100.002 26.696 100.62 26.696ZM98.7964 35.976C98.7964 35.1333 99.2551 34.712 100.172 34.712C101.09 34.712 101.548 35.1333 101.548 35.976C101.548 36.3813 101.442 36.6853 101.228 36.888C101.026 37.08 100.69 37.176 100.22 37.176C99.2711 37.176 98.7964 36.776 98.7964 35.976Z" fill="#7C3AED"/>
<path d="M97.0956 37H91.7196V27.064H97.2556L97.0956 29.512H94.4556V31H96.7436V33.112H94.4556V34.76H97.2556L97.0956 37Z" fill="#7C3AED"/>
<path d="M90.6134 30.216C90.6134 30.8133 90.5227 31.3093 90.3414 31.704C90.16 32.0987 89.8774 32.456 89.4934 32.776L90.8214 37H87.8614L86.8694 33.416H86.5014V37H83.8134V27.064H87.5254C88.592 27.064 89.3707 27.3147 89.8614 27.816C90.3627 28.3173 90.6134 29.1173 90.6134 30.216ZM86.9174 31.736C87.1947 31.736 87.392 31.656 87.5094 31.496C87.6267 31.336 87.6854 31.048 87.6854 30.632C87.6854 30.2053 87.6267 29.912 87.5094 29.752C87.392 29.5813 87.2 29.496 86.9334 29.496H86.5014V31.736H86.9174Z" fill="#7C3AED"/>
<path d="M83.0269 29.48H81.1709V37H78.4349V29.48H76.4669L76.6269 27.064H83.1869L83.0269 29.48Z" fill="#7C3AED"/>
<path d="M69.9747 30.056C69.9747 29.1067 70.2521 28.344 70.8067 27.768C71.3614 27.192 72.1187 26.904 73.0787 26.904C74.0494 26.904 75.0414 27 76.0547 27.192L75.7347 29.752C74.6787 29.5067 73.9534 29.384 73.5587 29.384C73.0574 29.384 72.8067 29.5867 72.8067 29.992C72.8067 30.152 72.9241 30.3067 73.1587 30.456C73.4041 30.6053 73.6974 30.7653 74.0387 30.936C74.3801 31.096 74.7214 31.2933 75.0627 31.528C75.4041 31.752 75.6921 32.0773 75.9267 32.504C76.1721 32.9307 76.2947 33.4213 76.2947 33.976C76.2947 34.9893 76.0227 35.7733 75.4787 36.328C74.9347 36.8827 74.1614 37.16 73.1587 37.16C72.1667 37.16 71.1961 37.0053 70.2467 36.696L70.4227 34.312C71.5641 34.6427 72.3587 34.808 72.8067 34.808C73.2547 34.808 73.4787 34.6107 73.4787 34.216C73.4787 34.0133 73.3561 33.8267 73.1107 33.656C72.8761 33.4853 72.5881 33.3147 72.2467 33.144C71.9054 32.9733 71.5587 32.776 71.2067 32.552C70.8654 32.328 70.5721 32.0027 70.3267 31.576C70.0921 31.1493 69.9747 30.6427 69.9747 30.056Z" fill="#7C3AED"/>
<path d="M69.33 37H63.954V27.064H69.49L69.33 29.512H66.69V31H68.978V33.112H66.69V34.76H69.49L69.33 37Z" fill="#7C3AED"/>
<path d="M62.6481 37H60.1361V31.816H59.9921L59.0481 37H56.4721L55.5761 31.816H55.4161V37H52.9361L53.2721 27.064H56.8721L57.7681 32.44H57.8961L58.7601 27.064H62.3121L62.6481 37Z" fill="#7C3AED"/>
<path d="M107.684 21H105.012L104.708 19.432H102.82L102.516 21H99.9717L101.796 11.064H105.86L107.684 21ZM104.404 17.56L103.844 14.008H103.732L103.172 17.56H104.404Z" fill="#7C3AED"/>
<path d="M98.2349 14.024C97.2109 13.7147 96.4589 13.56 95.9789 13.56C95.5096 13.56 95.1842 13.768 95.0029 14.184C94.8322 14.6 94.7469 15.2613 94.7469 16.168C94.7469 17.064 94.8269 17.72 94.9869 18.136C95.1576 18.5413 95.4989 18.744 96.0109 18.744C96.1602 18.744 96.4482 18.7013 96.8749 18.616V17.4H96.1549V15.512H99.2109V21H97.3229L97.0669 20.488H97.0029C96.8216 20.6373 96.6776 20.7493 96.5709 20.824C96.2722 21.048 95.8509 21.16 95.3069 21.16C93.0776 21.16 91.9629 19.4747 91.9629 16.104C91.9629 14.4187 92.2562 13.1333 92.8429 12.248C93.4296 11.352 94.4162 10.904 95.8029 10.904C96.9122 10.904 97.8669 11.0747 98.6669 11.416L98.2349 14.024Z" fill="#7C3AED"/>
<path d="M91.4181 21H88.7461L88.4421 19.432H86.5541L86.2501 21H83.7061L85.5301 11.064H89.5941L91.4181 21ZM88.1381 17.56L87.5781 14.008H87.4661L86.9061 17.56H88.1381Z" fill="#7C3AED"/>
<path d="M83.388 11.064L81.708 21H77.484L75.692 11.064H78.716L79.58 17.576H79.852L80.508 11.064H83.388Z" fill="#7C3AED"/>
<path d="M71.5387 21H69.0267V15.816H68.8827L67.9387 21H65.3627L64.4667 15.816H64.3067V21H61.8267L62.1627 11.064H65.7627L66.6587 16.44H66.7867L67.6507 11.064H71.2027L71.5387 21Z" fill="#7C3AED"/>
<path d="M60.83 21H55.454V11.064H60.99L60.83 13.512H58.19V15H60.478V17.112H58.19V18.76H60.99L60.83 21Z" fill="#7C3AED"/>
<path d="M54.6675 13.48H52.8115V21H50.0755V13.48H48.1075L48.2675 11.064H54.8275L54.6675 13.48Z" fill="#7C3AED"/>
<defs>
<linearGradient id="paint0_linear_0_1" x1="22.0032" y1="0" x2="22.0032" y2="47.9997" gradientUnits="userSpaceOnUse">
<stop stop-color="#5EEAD4"/>
<stop offset="1" stop-color="#042F2E"/>
</linearGradient>
<linearGradient id="paint1_linear_0_1" x1="22.0032" y1="0" x2="22.0032" y2="47.9997" gradientUnits="userSpaceOnUse">
<stop stop-color="#5EEAD4"/>
<stop offset="1" stop-color="#042F2E"/>
</linearGradient>
</defs>
</svg>
