<svg width="288" height="288" viewBox="0 0 288 288" fill="none" xmlns="http://www.w3.org/2000/svg">
<g clip-path="url(#clip0_3_2)">
<path fill-rule="evenodd" clip-rule="evenodd" d="M32.8661 29.2193L44.9384 35.0982L39.0605 46.8102L20.8221 40.9483L32.8661 29.2216V29.2193ZM13.0669 51.7273L19.4399 42.4187L38.6134 48.5812V54.2859L32.0146 60.8838H22.2825L13.0669 51.7273ZM33.6932 61.7831L39.5059 67.4428L46.7425 59.9712L39.6703 55.8068L33.6932 61.7831ZM40.4362 54.1424L48.0048 58.5992C48.0189 58.6075 48.0327 58.6161 48.0462 58.6251L58.4364 47.8975L46.4243 36.2014L40.4362 48.1329V54.1424ZM40.3414 113.935L40.4355 69.103L58.8239 50.1174L52.1022 102.483L40.3414 113.935ZM20.8019 61.9823L12.9879 54.2184V78.0299L20.8019 61.9823ZM21.8087 110.268L11.3103 83.0075C11.0089 82.7434 10.9083 82.301 11.0922 81.9233L11.1201 81.8659V51.289L18.2458 40.883L32.4972 27.0046V27L46.7486 33.9381L61 47.8165L53.8743 103.328L39.6229 117.206L21.8087 110.268ZM22.4767 62.7066L12.9902 82.1891L22.2603 106.26L31.2797 62.7066H22.4767ZM38.5168 114.815L38.6126 69.1171L32.9545 63.608L23.5567 108.989L38.5168 114.815Z" fill="white"/>
<path fill-rule="evenodd" clip-rule="evenodd" d="M104.866 173.219L116.938 179.098L111.061 190.81L92.8221 184.948L104.866 173.222V173.219ZM85.0669 195.727L91.4399 186.419L110.613 192.581V198.286L104.015 204.884H94.2825L85.0669 195.727ZM105.693 205.783L111.506 211.443L118.742 203.971L111.67 199.807L105.693 205.783ZM112.436 198.142L120.005 202.599C120.019 202.607 120.033 202.616 120.046 202.625L130.436 191.898L118.424 180.201L112.436 192.133V198.142ZM112.341 257.935L112.435 213.103L130.824 194.117L124.102 246.483L112.341 257.935ZM92.8019 205.982L84.9879 198.218V222.03L92.8019 205.982ZM93.8087 254.268L83.3103 227.008C83.0089 226.743 82.9083 226.301 83.0922 225.923L83.1201 225.866V195.289L90.2458 184.883L104.497 171.005V171L118.749 177.938L133 191.816L125.874 247.328L111.623 261.206L93.8087 254.268ZM94.4767 206.707L84.9902 226.189L94.2603 250.26L103.28 206.707H94.4767ZM110.517 258.815L110.613 213.117L104.954 207.608L95.5567 252.989L110.517 258.815Z" fill="white"/>
<path fill-rule="evenodd" clip-rule="evenodd" d="M183.134 114.781L171.062 108.902L176.939 97.1898L195.178 103.052L183.134 114.778V114.781ZM202.933 92.2727L196.56 101.581L177.387 95.4188V89.7141L183.985 83.1162H193.718L202.933 92.2727ZM182.307 82.2169L176.494 76.5572L169.258 84.0288L176.33 88.1932L182.307 82.2169ZM175.564 89.8576L167.995 85.4008C167.981 85.3925 167.967 85.3839 167.954 85.3749L157.564 96.1025L169.576 107.799L175.564 95.8671V89.8576ZM175.659 30.0648L175.565 74.897L157.176 93.8826L163.898 41.5174L175.659 30.0648ZM195.198 82.0177L203.012 89.7816V65.9701L195.198 82.0177ZM194.191 33.7317L204.69 60.9925C204.991 61.2566 205.092 61.699 204.908 62.0767L204.88 62.1341V92.711L197.754 103.117L183.503 116.995V117L169.251 110.062L155 96.1835L162.126 40.6721L176.377 26.7937L194.191 33.7317ZM193.523 81.2934L203.01 61.8109L193.74 37.7402L184.72 81.2934H193.523ZM177.483 29.1848L177.387 74.8829L183.046 80.392L192.443 35.0114L177.483 29.1848Z" fill="white"/>
<path fill-rule="evenodd" clip-rule="evenodd" d="M256.134 258.781L244.062 252.902L249.939 241.19L268.178 247.052L256.134 258.778V258.781ZM275.933 236.273L269.56 245.581L250.387 239.419V233.714L256.985 227.116H266.718L275.933 236.273ZM255.307 226.217L249.494 220.557L242.258 228.029L249.33 232.193L255.307 226.217ZM248.564 233.858L240.995 229.401C240.981 229.393 240.967 229.384 240.954 229.375L230.564 240.102L242.576 251.799L248.564 239.867V233.858ZM248.659 174.065L248.565 218.897L230.176 237.883L236.898 185.517L248.659 174.065ZM268.198 226.018L276.012 233.782V209.97L268.198 226.018ZM267.191 177.732L277.69 204.992C277.991 205.257 278.092 205.699 277.908 206.077L277.88 206.134V236.711L270.754 247.117L256.503 260.995V261L242.251 254.062L228 240.184L235.126 184.672L249.377 170.794L267.191 177.732ZM266.523 225.293L276.01 205.811L266.74 181.74L257.72 225.293H266.523ZM250.483 173.185L250.387 218.883L256.046 224.392L265.443 179.011L250.483 173.185Z" fill="white"/>
<path d="M128 24C110.222 25.2272 109.227 26.2222 108 44C106.773 26.2222 105.778 25.2272 88 24C105.778 22.7728 106.773 21.7778 108 4C109.227 21.7778 110.222 22.7728 128 24Z" fill="white"/>
<path d="M200 168C182.222 169.227 181.227 170.222 180 188C178.773 170.222 177.778 169.227 160 168C177.778 166.773 178.773 165.778 180 148C181.227 165.778 182.222 166.773 200 168Z" fill="white"/>
<path d="M272 24C254.222 25.2272 253.227 26.2222 252 44C250.773 26.2222 249.778 25.2272 232 24C249.778 22.7728 250.773 21.7778 252 4C253.227 21.7778 254.222 22.7728 272 24Z" fill="white"/>
<path d="M56 168C38.2222 169.227 37.2272 170.222 36 188C34.7728 170.222 33.7778 169.227 16 168C33.7778 166.773 34.7728 165.778 36 148C37.2272 165.778 38.2222 166.773 56 168Z" fill="white"/>
<path d="M128 120C110.222 121.227 109.227 122.222 108 140C106.773 122.222 105.778 121.227 88 120C105.778 118.773 106.773 117.778 108 100C109.227 117.778 110.222 118.773 128 120Z" fill="white"/>
<path d="M200 264C182.222 265.227 181.227 266.222 180 284C178.773 266.222 177.778 265.227 160 264C177.778 262.773 178.773 261.778 180 244C181.227 261.778 182.222 262.773 200 264Z" fill="white"/>
<path d="M272 120C254.222 121.227 253.227 122.222 252 140C250.773 122.222 249.778 121.227 232 120C249.778 118.773 250.773 117.778 252 100C253.227 117.778 254.222 118.773 272 120Z" fill="white"/>
<path d="M56 264C38.2222 265.227 37.2272 266.222 36 284C34.7728 266.222 33.7778 265.227 16 264C33.7778 262.773 34.7728 261.778 36 244C37.2272 261.778 38.2222 262.773 56 264Z" fill="white"/>
</g>
<defs>
<clipPath id="clip0_3_2">
<rect width="288" height="288" fill="white"/>
</clipPath>
</defs>
</svg>
