<svg width="64" height="65" viewBox="0 0 64 65" fill="none" xmlns="http://www.w3.org/2000/svg">
<path d="M60.1097 33.7117C57.8409 35.9012 55.5309 38.0412 53.4458 40.4142C52.716 39.9265 51.8711 39.7319 51.0617 39.4415C53.7833 37.1863 56.5158 34.9311 59.037 32.4458C59.38 32.876 59.6433 33.3829 60.107 33.709L60.1097 33.7117Z" fill="#072F34"/>
<path d="M32.9739 9.52137C31.8134 9.53233 28.1728 10.3078 27.5281 11.2696L27.2373 11.2203L32.7819 3.78889C32.8889 5.70154 33.0809 7.59775 32.9767 9.52137H32.9739Z" fill="#008E6A"/>
<path d="M29.7641 3.20797C30.0219 3.58338 28.8093 4.27939 30.0082 3.98619C30.1783 3.94508 32.0302 2.58869 32.0988 2.47908C32.2634 2.21877 32.1591 0.917176 32.1948 0.486966C32.2003 0.484226 32.1646 0.462305 32.2908 0.39106C32.8724 3.02438 31.7531 2.67364 29.6159 4.66575C27.7202 6.43317 25.6241 8.86372 23.7805 10.4941C22.0274 12.0451 18.3567 14.8401 21.0096 11.708C22.7215 9.68578 27.3443 5.87692 29.7641 3.20797Z" fill="#289F92"/>
<path d="M59.0398 32.4485C56.5185 34.9339 53.786 37.1863 51.0645 39.4442C50.8038 39.3511 50.2936 39.3346 49.9451 39.1538C49.8519 39.0277 49.904 38.74 49.8957 38.5701C51.5583 36.9424 53.5199 35.7066 55.3416 34.2954C56.6502 33.8679 57.786 32.9938 58.941 32.254C58.9054 32.4787 59.0316 32.4403 59.037 32.4485H59.0398Z" fill="#013B3D"/>
<path d="M54.856 29.8262C56.1674 30.4317 58.3731 30.6427 59.915 30.7003C59.6433 31.0784 59.0947 31.2346 58.749 31.4785C58.4225 30.977 56.0549 32.5006 54.9081 32.9363C53.38 33.5145 51.7311 33.8488 50.192 34.3941C50.2167 32.6212 50.2387 30.8236 50.192 29.0507C51.7531 29.3083 53.2894 29.6289 54.8615 29.8289L54.856 29.8262Z" fill="#00A282"/>
<path d="M58.749 31.4785C57.5583 32.317 56.4993 33.4021 55.3443 34.2954C53.5199 35.7066 51.561 36.9424 49.8985 38.5701C49.8903 38.3618 50.1619 36.441 50.1893 34.3941C51.7311 33.8488 53.38 33.5145 54.9053 32.9363C56.0549 32.5006 58.4198 30.977 58.7462 31.4785H58.749Z" fill="#008E6A"/>
<path d="M52.1344 28.0779C54.2881 28.7547 56.4829 29.396 58.6502 30.0207C58.3621 30.2427 55.786 29.944 54.856 29.8262C53.284 29.6261 51.7476 29.3083 50.1866 29.0479C50.1811 28.8452 49.9561 27.349 50.0411 27.2997C50.7627 27.4915 51.4239 27.8532 52.1317 28.0779H52.1344Z" fill="#06D6AC"/>
<path d="M60.1097 33.7117C59.6461 33.3857 59.3827 32.8787 59.0398 32.4485C59.0343 32.4403 58.9053 32.4787 58.9438 32.254C60.7709 31.0839 60.3347 30.5742 62.9328 30.8455C63.1385 31.114 60.3731 33.4596 60.1125 33.7117H60.1097Z" fill="#1F4F52"/>
<path d="M51.6461 17.9748C50.5679 18.8133 50.2497 20.1369 48.9712 18.6544C48.3951 17.9885 49.3663 16.7664 49.6022 16.0321C50.3073 16.6541 50.952 17.3391 51.6461 17.9748Z" fill="#2FA590"/>
<path d="M45.5199 12.341C45.0782 13.2891 44.6091 14.24 44.1097 15.1579L42.9904 13.8454C43.2538 13.5248 43.6241 13.3658 43.8656 13.0206C44.2661 12.4479 44.2689 11.9519 44.4499 11.2723C44.7929 11.6341 45.1385 12.0177 45.5199 12.341Z" fill="#2FA590"/>
<path d="M29.7641 3.20797C29.9369 3.01616 30.1975 2.68186 30.2497 2.42976C30.9191 1.82692 31.454 1.0213 32.1948 0.486966C32.1591 0.917176 32.2606 2.21603 32.0988 2.47908C32.0302 2.58869 30.1756 3.94234 30.0082 3.98619C28.8093 4.28213 30.0219 3.58612 29.7641 3.20797Z" fill="#5DBDB4"/>
<path d="M32.9739 9.52137C32.9931 9.52137 32.9465 9.60905 33.3635 9.61727C33.3772 9.71044 33.3416 9.83101 33.3635 9.90773C32.9986 9.90773 32.6475 10.0365 32.2936 10.1023C30.4691 10.4421 29.0508 10.7517 27.4294 11.7546C27.8601 11.1737 27.5062 11.297 27.5254 11.2696C28.1701 10.3078 31.8107 9.53233 32.9712 9.52137H32.9739Z" fill="#091913"/>
<path d="M32.2908 10.105C32.7435 10.8641 32.8313 10.1215 33.07 10.4448C33.0919 12.2122 32.963 14.0016 33.3608 15.7389C29.8985 15.6703 26.4582 15.8978 23.0014 16.0293C24.096 14.6757 25.9835 12.6479 27.4266 11.7546C29.0453 10.7517 30.4636 10.4421 32.2908 10.1023V10.105Z" fill="url(#paint0_linear_3165_11075)"/>
<path d="M39.6845 10.8832C39.7311 10.9435 39.8134 10.9956 39.8793 11.0778C40.2936 11.6039 40.834 12.004 41.2401 12.5356C42.1344 13.7002 42.9191 14.9798 43.7695 16.1773C41.9177 16.2704 39.8601 16.1143 37.9342 16.0321L37.69 15.8375L39.9753 15.8868C39.5912 15.4347 37.4047 13.4508 37.3498 13.1658C37.177 12.2698 38.7737 11.4039 39.0041 10.59C39.2922 10.6942 39.4129 10.9353 39.6845 10.8805V10.8832Z" fill="#13B895"/>
<path d="M35.3059 9.81457C35.5391 9.84471 35.7531 9.87211 35.9863 9.91047C36.8889 10.0612 38.1646 10.2859 39.0014 10.59C38.7709 11.4039 37.1742 12.2698 37.3471 13.1658C37.4019 13.4481 39.5912 15.432 39.9726 15.8868L37.6872 15.8375L37.9314 16.0321C37.7695 16.0238 37.6077 16.0375 37.4458 16.0321C36.3731 13.9605 34.727 12.2067 33.5556 10.2037C33.4952 10.0995 33.3909 10.0228 33.3608 9.91321C33.3388 9.83649 33.3745 9.71318 33.3608 9.62275C33.3937 9.62275 33.4266 9.62275 33.4568 9.62275C34.0384 9.64193 34.7215 9.74058 35.3059 9.81731V9.81457Z" fill="#00A282"/>
<path d="M33.3608 9.91047C33.3909 10.0201 33.4952 10.0995 33.5556 10.2009C33.2373 10.1215 33.1989 10.3571 33.2647 10.6394C33.3361 10.9545 36.6337 15.1223 36.9602 15.9334C35.7668 15.8868 34.5487 15.7635 33.3608 15.7389C32.963 13.9988 33.0892 12.2122 33.07 10.4448C32.834 10.1215 32.7462 10.8641 32.2908 10.105C32.6447 10.0393 32.9959 9.91321 33.3608 9.91047Z" fill="#06D6AC"/>
<path d="M33.5556 10.2037C34.727 12.2067 36.3731 13.9605 37.4458 16.0321C37.0535 16.0156 36.9849 15.9361 36.9602 15.9361C36.631 15.1251 33.3361 10.9572 33.2647 10.6421C33.2016 10.3599 33.2373 10.1269 33.5556 10.2037Z" fill="#92E2B4"/>
<path d="M13.8107 19.6244C14.5871 18.3722 15.4568 17.1802 16.2414 15.9334C16.8532 16.5636 19.2812 14.2729 20.0357 13.7002C20.225 14.1906 21.3278 16.0293 21.155 16.128L17.07 16.2239L16.8258 18.701C16.6831 18.9641 14.2497 19.4436 13.8107 19.6244Z" fill="#19484E"/>
<path d="M16.2442 15.9334C15.4568 17.1802 14.5871 18.3722 13.8134 19.6244C13.5665 19.7258 12.5898 20.3122 12.3539 20.4986L13.3278 18.0708C14.5322 16.9418 15.7147 15.7991 16.9273 14.6702C16.7792 15.1196 16.4966 15.5388 16.2469 15.9334H16.2442Z" fill="#356D6D"/>
<path d="M20.0357 13.7002C19.2812 14.2729 16.8532 16.5664 16.2414 15.9334C16.4911 15.5388 16.7737 15.1196 16.9218 14.6702C17.8272 13.8289 18.7407 12.9877 19.6461 12.1437C19.7311 12.6534 19.8491 13.2206 20.0357 13.6974V13.7002Z" fill="#19484E"/>
<path d="M12.3539 20.5013C12.3265 20.5232 12.1811 20.578 12.1591 20.5972H10.7984C11.5912 19.7039 12.4582 18.8873 13.3278 18.0708L12.3539 20.4986V20.5013Z" fill="#36A798"/>
<path d="M54.5652 20.5013C56.299 22.6195 58.011 24.7596 59.8162 26.8147C57.7092 25.3103 59.8848 28.7849 60.8861 27.9793C61.4787 28.6397 62.1756 29.2315 62.7353 29.9221L62.5405 29.9714L62.9794 30.5057C61.9095 30.851 59.9396 28.4259 58.9438 27.349C58.3018 26.6558 56.7435 24.2444 56.0741 24.4828C55.5117 24.6828 56.4115 25.5487 56.8999 26.231C55.5034 24.7404 54.0878 23.2826 52.62 21.8604C52.7901 20.7534 52.1097 19.6053 52.1344 18.4599C52.9218 19.1641 53.7942 19.7724 54.5652 20.5013Z" fill="#00E6B3"/>
<path d="M62.7353 29.9221C62.9191 30.1495 63.1029 30.3578 63.3196 30.5523L63.1742 30.6975C62.2771 30.7441 61.3909 30.5139 60.4993 30.503C60.299 30.555 60.2963 30.4098 60.2085 30.3084C59.8381 29.8837 59.4211 29.5439 59.0425 29.1439C58.9136 29.0068 58.5816 28.4972 58.0686 27.9793C58.2771 27.9108 57.4211 26.9544 56.9026 26.231C56.4143 25.5487 55.5117 24.6828 56.0768 24.4828C56.7462 24.2444 58.3045 26.6558 58.9465 27.349C59.9424 28.4259 61.9122 30.851 62.9822 30.5057L62.5432 29.9714L62.738 29.9221H62.7353Z" fill="#00D090"/>
<path d="M52.1344 18.4599C52.1097 19.6053 52.7929 20.7534 52.62 21.8604C52.225 21.4768 51.7476 21.1809 51.5501 20.9863C51.1193 20.5643 50.7435 20.0738 50.2853 19.6738L51.8409 18.1667C51.9369 18.2543 52.0439 18.3777 52.1317 18.4571L52.1344 18.4599Z" fill="#60F1C8"/>
<path d="M59.8189 26.8147C60.1646 27.2065 60.5377 27.5902 60.8889 27.9793C59.8875 28.7821 57.7119 25.3103 59.8189 26.8147Z" fill="#00E6B3"/>
<path d="M40.5597 10.4941C40.6557 10.59 40.7545 10.6887 40.8505 10.7846C40.7435 11.1216 40.3374 10.9243 40.0713 10.9791L38.6118 8.74589C39.2071 9.34325 39.9479 9.89129 40.5569 10.4941H40.5597Z" fill="#00D7BA"/>
<path d="M44.4499 11.2723C44.2689 11.9519 44.2661 12.4479 43.8656 13.0206C42.8697 12.004 41.69 11.171 40.6557 10.2037C39.9918 9.57891 39.3635 8.8966 38.7106 8.26088C37.797 7.37032 34.2497 3.52035 33.4595 3.11207C33.0398 2.89559 33.0892 3.10933 33.07 3.11207C32.9191 3.13399 32.9931 2.84627 32.7792 3.30662C32.7215 2.33385 32.6228 1.36931 32.6831 0.39106C32.738 0.415722 32.8807 0.363658 32.9273 0.39106C33.6077 0.799348 43.2675 10.0228 44.4527 11.2723H44.4499Z" fill="#00E6B3"/>
<path d="M38.7106 8.25814C39.3635 8.89386 39.9918 9.57617 40.6557 10.2009L40.5597 10.4914C39.9506 9.88581 39.2099 9.34051 38.6145 8.74315C38.5185 8.64725 38.4198 8.5486 38.3237 8.45269L38.7133 8.25814H38.7106Z" fill="#00765B"/>
<path d="M38.7106 8.25814L38.321 8.45269C36.9575 7.0826 35.5391 5.64948 34.2359 4.22732C33.7723 3.72313 33.2702 3.19153 33.4568 3.10933C34.2469 3.51761 37.7942 7.36758 38.7078 8.25814L38.7106 8.25814Z" fill="#13B895"/>
<path d="M51.2593 22.055C51.8628 22.8633 52.5652 23.7018 53.3032 24.3869C53.6104 25.883 54.2771 27.2833 55.3471 28.3711C54.2771 28.0231 53.1084 27.8834 52.0412 27.497C51.679 27.3655 50.0137 26.7297 49.9012 26.4776C49.7147 24.6472 49.4952 22.8058 49.2209 20.9891C49.915 21.285 50.5405 21.8248 51.2647 22.0577L51.2593 22.055Z" fill="#1EB29A"/>
<path d="M51.5501 20.9863C51.7476 21.1809 52.225 21.4768 52.62 21.8604C54.0878 23.2853 55.5007 24.7404 56.8999 26.231C57.4184 26.9544 58.2771 27.9108 58.0658 27.9793C56.0933 25.9735 53.9369 24.1293 51.9369 22.1509C51.3059 21.5261 50.7078 20.8493 50.0878 20.2081C50.7051 20.3725 50.8587 21.3097 51.5473 20.9863H51.5501Z" fill="#091913"/>
<path d="M55.3443 28.3684C56.9712 28.8972 58.6722 29.385 60.1097 30.3112C59.9561 30.5386 59.1468 30.1632 58.6502 30.0207C56.4801 29.396 54.2881 28.752 52.1344 28.0779C51.9561 27.5491 51.2894 27.9793 52.0384 27.4943C53.1084 27.8806 54.2743 28.0204 55.3443 28.3684Z" fill="#091913"/>
<path d="M50.0905 20.2081C50.7078 20.8493 51.3059 21.5261 51.9396 22.1509C51.6735 22.1947 51.5007 22.1317 51.2593 22.055C50.5377 21.8221 49.9122 21.2823 49.2154 20.9863C49.1687 20.6849 48.6804 18.9969 48.8752 18.849C49.262 19.3175 49.6708 19.7724 50.0905 20.2081Z" fill="#248F81"/>
<path d="M58.6502 30.0207C59.1468 30.1632 59.9534 30.5413 60.1097 30.3112H60.2058C60.2936 30.4126 60.299 30.5578 60.4966 30.5057C60.4664 30.5057 59.9753 30.703 59.9122 30.7003C58.3731 30.6427 56.1646 30.4317 54.8532 29.8262C55.7805 29.944 58.3567 30.2427 58.6475 30.0207L58.6502 30.0207Z" fill="#1EB29A"/>
<path d="M59.0398 29.1466C59.4184 29.5494 59.8381 29.8864 60.2058 30.3112H60.1097C58.6694 29.385 56.9684 28.8972 55.3443 28.3684C54.2743 27.2805 53.6077 25.8803 53.3004 24.3841C54.3759 25.3871 55.6543 26.2173 56.7545 27.2011C57.6379 27.993 58.9492 29.67 59.0398 29.1439V29.1466Z" fill="#00D09E"/>
<path d="M51.9396 22.1509C53.9369 24.132 56.0933 25.9735 58.0686 27.9793C58.5789 28.4972 58.9108 29.0068 59.0425 29.1439C58.952 29.67 57.6406 27.993 56.7572 27.2011C55.6598 26.2146 54.3786 25.3843 53.3032 24.3841C52.5679 23.6991 51.8656 22.8606 51.2593 22.0522C51.5034 22.1317 51.6735 22.192 51.9396 22.1482V22.1509Z" fill="#BAF2CB"/>
<path d="M33.07 3.10933C33.2894 3.04356 33.1331 3.15317 33.166 3.20523C32.8121 4.78084 33.2181 5.10966 33.4568 5.63304C33.0837 5.60564 33.3553 5.84951 33.3608 6.2167C33.369 7.35662 33.4431 8.48009 33.4568 9.61727C33.4239 9.61727 33.3909 9.61727 33.3608 9.61727C32.9438 9.60905 32.9904 9.51863 32.9712 9.52137C33.0754 7.60049 32.8834 5.70428 32.7764 3.78889C32.7682 3.62722 32.7846 3.46281 32.7764 3.30388C32.9904 2.84353 32.9163 3.13399 33.0672 3.10933H33.07Z" fill="#0DD9AF"/>
<path d="M33.4595 3.10933C33.273 3.19153 33.775 3.72313 34.2387 4.22732C35.5418 5.64948 36.9602 7.0826 38.3237 8.45269C38.4198 8.55134 38.5185 8.64725 38.6145 8.74315L40.0741 10.9764C40.0741 10.9764 40.1097 11.1107 39.8793 11.0723C39.8134 10.9901 39.7311 10.938 39.6845 10.8778C38.7901 9.75428 37.9973 8.51846 37.059 7.42786C35.9973 6.19478 33.8409 4.26843 33.1687 3.20249C33.1331 3.14769 33.2922 3.04082 33.0727 3.10659C33.0919 3.10385 33.0398 2.89011 33.4623 3.10659L33.4595 3.10933Z" fill="#A5FFDD"/>
<path d="M39.6845 10.8832C39.4101 10.938 39.2922 10.6969 39.0041 10.5928C38.1674 10.2886 36.8916 10.0639 35.989 9.91321C35.5199 8.36775 34.1427 7.12644 33.4595 5.63852C33.2181 5.1124 32.8148 4.78358 33.1687 3.21071C33.8409 4.27665 35.9973 6.203 37.059 7.43608C37.9973 8.52668 38.7901 9.7625 39.6845 10.886V10.8832Z" fill="#00D09E"/>
<path d="M35.3059 9.81457C34.7215 9.73784 34.0384 9.63919 33.4568 9.62001C33.4431 8.48283 33.369 7.35936 33.3608 6.21944L35.3059 9.81457Z" fill="#00D09E"/>
<path d="M33.4595 5.63578C34.1427 7.1237 35.5199 8.36501 35.989 9.91047C35.7558 9.87211 35.5418 9.84471 35.3086 9.81457L33.3635 6.21944C33.3608 5.85225 33.0864 5.61112 33.4595 5.63578Z" fill="#00E7BB"/>
<path d="M53.3992 0.39106C53.5473 0.385579 53.476 0.514368 53.4952 0.585613C53.2785 1.16653 53.4815 1.73649 53.3992 2.33385C53.3306 2.82161 52.9218 4.14786 52.7188 4.66575C52.2524 5.85773 52.4609 6.09339 51.454 5.34532C51.5775 5.03568 51.594 5.01102 51.6488 4.66575C51.6488 4.65479 51.7311 4.67123 51.8436 4.52052L50.3841 3.35594C50.4527 2.33659 50.8669 2.42702 51.0645 2.19136C51.07 2.18588 50.9273 2.08724 50.9684 2.04613C51.1193 1.88446 53.0123 0.648637 53.3992 0.3938V0.39106Z" fill="#5DBDB4"/>
<path d="M53.786 4.76166C53.8107 4.86853 53.7503 4.98636 53.882 5.15077C53.6982 5.2823 52.9684 5.69606 52.716 5.83033C52.6886 5.84403 52.203 5.71524 52.1317 5.97556C52.4609 6.83598 52.3759 7.75668 52.6173 8.69657C52.4609 8.80892 52.0604 9.00347 52.0329 9.03635C51.6955 9.03087 51.5528 8.61162 51.3525 8.45269C51.6406 8.45543 50.8176 7.60597 50.4774 7.28811C50.7682 6.63595 51.1879 6.00845 51.4513 5.34532C52.4582 6.09339 52.2497 5.85773 52.716 4.66575C53.6461 4.93155 53.4047 4.49038 53.5912 3.88754C53.6296 4.21362 53.7119 4.44928 53.786 4.76166Z" fill="#00E6B3"/>
<path d="M51.6461 4.66575C51.5912 5.01376 51.5748 5.03568 51.4513 5.34532C51.1879 6.00845 50.7709 6.63595 50.4774 7.28811C50.3347 7.15384 49.2209 6.34823 49.2126 6.26876C50.7545 4.56985 49.5501 3.44637 51.6433 4.66575H51.6461Z" fill="#289F92"/>
<path d="M53.8848 5.15077C53.7503 4.98636 53.8134 4.87127 53.7887 4.76166C54.7188 4.28761 53.8519 1.79678 53.4979 0.585613C53.476 0.514368 53.5473 0.385579 53.4019 0.39106C53.4211 0.377359 53.3388 0.232129 53.6461 0.00195312L53.7915 0.147183C53.893 1.73101 55.155 4.24376 53.8875 5.15077H53.8848Z" fill="#1E2016"/>
<path d="M53.786 4.76166C53.7119 4.44928 53.6296 4.21362 53.5912 3.88754C53.5364 3.42445 53.5967 2.7805 53.3964 2.33385C53.4787 1.73649 53.2757 1.16653 53.4925 0.585613C53.8464 1.79678 54.7133 4.29035 53.7833 4.76166H53.786Z" fill="#DAFFF3"/>
<path d="M53.594 3.88754C53.4074 4.48764 53.6488 4.93155 52.7188 4.66575C52.9218 4.14786 53.3306 2.82435 53.3992 2.33385C53.5995 2.78324 53.5391 3.42445 53.594 3.88754Z" fill="#00E6B3"/>
<path d="M32.6804 0.39106C32.62 1.36931 32.7215 2.33111 32.7764 3.30662C32.7846 3.46829 32.7682 3.62996 32.7764 3.79163L27.2318 11.223L27.5226 11.2723C27.5034 11.2997 27.8573 11.1792 27.4266 11.7574C25.9835 12.6507 24.096 14.6784 23.0014 16.0321C26.4554 15.8978 29.8985 15.6703 33.3608 15.7416C34.546 15.7663 35.7668 15.8896 36.9602 15.9361C36.9849 15.9361 37.0535 16.0184 37.4458 16.0321C37.6077 16.0375 37.7695 16.0238 37.9314 16.0321C39.8573 16.117 41.915 16.2704 43.7668 16.1773C42.9163 14.9798 42.1344 13.6974 41.2373 12.5356C41.4842 12.6918 43.1797 14.1221 43.1824 13.1658C43.1824 12.9987 41.1413 11.0805 40.8477 10.7846C40.7517 10.6887 40.653 10.59 40.5569 10.4941L40.653 10.2037C41.6872 11.1737 42.8669 12.0067 43.8628 13.0206C43.6214 13.3686 43.251 13.5248 42.9877 13.8454L44.107 15.1579C44.6063 14.24 45.0755 13.2891 45.5172 12.341C45.7257 11.8916 45.6982 11.7848 45.7119 11.7574C45.9287 11.2778 47.3635 8.22252 47.3663 8.017C47.3663 7.73202 46.6639 7.61693 47.7065 5.73443C48.3045 5.47411 49.5473 6.5647 49.9918 2.67364C50.2277 2.47086 50.406 2.19684 50.5761 1.94475L50.9657 2.04065C50.9246 2.0845 51.07 2.1804 51.0617 2.18588C50.8615 2.42428 50.4472 2.33385 50.3813 3.35046L51.8409 4.51504C51.7284 4.66575 51.6488 4.64931 51.6461 4.66027C49.5528 3.44089 50.7572 4.56437 49.2154 6.26328C49.2236 6.34275 50.3347 7.14836 50.4801 7.28263C50.8203 7.60049 51.6434 8.45269 51.3553 8.44721C51.1385 8.27732 50.5679 7.94576 50.2853 7.86355C49.5967 7.17302 48.8615 6.53456 48.1948 5.82211C48.0796 5.82211 47.561 7.06068 47.5638 7.13466C47.5638 7.91562 50.8395 9.49122 51.5995 9.71044C51.9012 9.483 51.8244 9.33777 51.8436 9.32133C52.118 9.07745 52.0274 9.04457 52.0384 9.03087C52.0658 8.99799 52.4636 8.80344 52.6228 8.69109C52.3813 7.75394 52.4664 6.8305 52.1372 5.97008C52.2085 5.70976 52.6941 5.83855 52.7215 5.82485C52.6063 6.65787 52.6612 7.4443 52.9163 8.25266V8.54312C51.1139 10.6476 50.4472 13.4316 49.6104 16.0238C49.3717 16.7582 48.4033 17.9803 48.9794 18.6462C50.2579 20.1286 50.5761 18.8051 51.6543 17.9666C51.7257 18.0324 51.786 18.1036 51.8491 18.1612L50.2936 19.6683C50.749 20.0683 51.1276 20.5588 51.5583 20.9808C50.8697 21.3042 50.7188 20.367 50.0988 20.2026C49.679 19.7669 49.2675 19.3093 48.8834 18.8435C48.6886 18.9887 49.177 20.6794 49.2236 20.9808C49.4979 22.7976 49.7202 24.639 49.904 26.4694C50.0165 26.7243 51.6818 27.36 52.0439 27.4888C51.2949 27.9738 51.9643 27.5436 52.1399 28.0724C51.4294 27.8505 50.7682 27.486 50.0494 27.2942C49.9643 27.3435 50.1893 28.8397 50.1948 29.0425C50.2414 30.8126 50.2195 32.6129 50.1948 34.3858C50.1646 36.4355 49.8957 38.3536 49.904 38.5619C49.9095 38.7318 49.8573 39.0168 49.9534 39.1455C50.3018 39.3264 50.8121 39.3428 51.0727 39.436C51.882 39.7265 52.727 39.9183 53.4568 40.4088C55.5391 38.0358 57.8491 35.8929 60.1207 33.7063C60.3813 33.4542 63.1468 31.1086 62.941 30.84C60.3429 30.5687 60.7792 31.0812 58.952 32.2485C57.797 32.9856 56.6612 33.8597 55.3525 34.2899C56.5075 33.3966 57.5665 32.3115 58.7572 31.473C59.1029 31.2291 59.6543 31.0729 59.9232 30.6948C59.9835 30.6948 60.4774 30.5002 60.5075 30.5002C61.3992 30.5085 62.2853 30.7414 63.1824 30.6948L63.3279 30.5496C63.1111 30.355 62.9273 30.144 62.7435 29.9193C62.1838 29.2288 61.4897 28.6369 60.8944 27.9765C60.5432 27.5874 60.1701 27.2038 59.8244 26.8119C58.0192 24.7568 56.3045 22.614 54.5734 20.4986C57.9232 23.647 61.0398 27.0449 64.0082 30.5523C61.2565 34.3447 57.3772 37.074 54.3786 40.6554C59.1879 40.8308 60.7599 35.8299 62.9877 32.5444C61.4486 41.7679 58.1344 40.9294 57.6379 41.3843C57.3361 41.661 57.6324 42.1625 57.3471 42.2584C57.1632 42.3187 54.0631 41.6418 53.5528 41.5788C52.4966 42.8585 51.4129 44.0971 50.0988 45.1246C50.5844 45.7412 50.642 46.2371 50.6831 46.2892C50.7353 46.3577 52.0521 46.6838 51.3635 47.5031C50.8724 46.6427 50.0878 47.2894 50.0027 46.9688C50.2442 46.703 49.9369 45.5822 49.6132 45.996C50.6804 47.3634 47.9808 47.599 47.9589 48.2293C47.9177 49.3664 49.6022 46.8318 51.3635 47.5004C52.0905 48.7773 50.3786 48.9855 49.5144 49.8816C49.476 49.92 49.5528 50.2269 49.5144 50.2707C48.6063 51.3421 47.1139 50.246 46.4499 49.4459C42.8944 53.2109 39.0151 56.6444 35.0206 59.9381C34.4774 60.3875 33.8848 60.7711 33.3663 61.2506C33.4403 61.3438 33.6022 61.2835 33.7558 61.3C34.6557 62.3412 35.9781 63.2236 34.2908 64.4073C32.0329 65.9912 27.4897 64.1963 31.4211 61.3959C31.6269 61.3712 31.8162 61.3356 32.0055 61.2506C32.0192 61.2095 31.6214 60.9958 31.3251 60.7163C27.1468 56.7759 22.7078 53.1123 18.631 49.0595C17.8546 49.4925 16.8148 50.7502 15.9067 50.7119C15.2977 50.6845 11.561 47.9799 13.4266 47.262C12.963 46.0124 14.2798 45.7302 14.3018 45.5137C14.3265 45.2616 11.5171 42.0337 11.1413 41.5788C10.5926 41.6172 7.72017 42.2474 7.54184 42.1625C7.27846 42.0364 7.52538 41.6775 7.25103 41.4829C6.76543 41.1377 2.55144 41.5679 1.02606 32.254C3.70096 36.2629 3.91495 40.9102 10.0219 40.6581L0 30.4564C2.9904 27.3271 6.37311 24.6116 9.53086 21.6659C8.34842 23.2333 6.88066 24.7458 5.44582 26.1351C4.72977 26.8284 1.25103 29.6782 0.971193 30.2153C0.962963 30.2317 0.828532 30.1714 0.875172 30.555C4.69136 34.3338 8.81207 37.7617 12.546 41.6309C12.9355 42.0337 14.93 44.5574 15.1248 44.593C15.3909 44.6424 16.0631 43.8943 16.0494 43.7682C15.9973 43.275 9.47874 38.0248 8.94925 36.8712C11.4266 38.6687 13.5281 40.913 15.8052 42.9434L15.561 40.0772C11.6022 36.6711 7.57476 33.361 3.40192 30.218C4.73251 29.0781 5.81344 27.7025 7.00137 26.4283C7.44033 25.9598 7.83265 25.4391 8.26612 24.9705C8.98217 24.2006 11.9369 20.7918 12.1564 20.5999C12.1783 20.5808 12.3237 20.5232 12.3512 20.504C12.5871 20.315 13.561 19.7313 13.8107 19.6299C14.2497 19.4518 16.6831 18.9695 16.8258 18.7065L17.07 16.2293L21.155 16.1334C21.3278 16.0321 20.225 14.1961 20.0357 13.7056C19.8491 13.2261 19.7311 12.6589 19.6461 12.1519C20.8889 10.9956 22.0412 9.71044 23.2922 8.55682C25.5638 6.4688 27.9561 4.50134 30.2469 2.43524C30.1948 2.68734 29.9342 3.02164 29.7613 3.21345C27.3416 5.8824 22.7188 9.694 21.0069 11.7135C18.3539 14.8455 22.0274 12.0506 23.7778 10.4996C25.6214 8.86646 27.7174 6.43865 29.6132 4.67123C31.7503 2.67912 32.8697 3.02986 32.2881 0.39654C32.4198 0.322555 32.3594 0.300634 32.4335 0.201987C32.7682 0.141703 32.6612 0.39106 32.6776 0.39654L32.6804 0.39106Z" fill="#0A0C0E"/>
<path d="M32.5844 60.9136C32.7133 60.1272 32.4527 59.253 32.4883 58.4858C32.4883 58.4529 32.4883 58.42 32.4883 58.3899C32.4966 58.2364 32.6557 58.4036 32.6831 58.0994C32.6831 58.0665 32.6804 58.0337 32.6831 58.0035C33.6735 57.1897 36.6831 54.6303 36.4774 53.9234C38.5871 52.3971 40.4993 50.6763 42.0713 48.58L44.0658 50.668C40.3676 54.2111 36.7215 57.8692 32.5899 60.9163L32.5844 60.9136Z" fill="#072F34"/>
<path d="M20.0357 30.0207C19.7394 33.4898 20.4005 36.852 21.69 40.0745L19.6955 41.6775C18.2359 38.2139 17.4815 34.9503 17.5062 31.1853C17.5062 31.0565 17.5034 30.925 17.5062 30.7962L18.8203 32.8376C19.1084 32.7938 19.4321 30.1194 20.0357 30.0207Z" fill="#00D090"/>
<path d="M32.4856 58.4858C32.4527 59.253 32.7106 60.1272 32.5816 60.9136C30.2606 59.1215 28.4472 56.7841 26.3073 54.792C25.3525 54.1645 19.262 48.6156 19.1578 48.1361C19.0919 47.8292 19.8134 46.8235 19.8875 46.8235C23.6241 51.2681 28.0357 54.9975 32.3375 58.8694L32.4829 58.4803L32.4856 58.4858Z" fill="#071B1F"/>
<path d="M49.7503 40.1238C50.1701 40.1539 52.8313 40.68 52.8148 41.0472C52.4527 41.4692 49.2208 45.311 48.9739 45.1767L49.7531 40.1238H49.7503Z" fill="#072F34"/>
<path d="M32.5844 49.9364C31.1248 50.0542 28.7517 49.6185 29.1797 50.3255C29.0343 50.1748 28.8669 50.0734 28.7407 49.8405C29.8299 52.5834 31.4787 55.3126 32.6804 58.0967C32.6557 58.4008 32.4938 58.2337 32.4856 58.3871C28.9685 54.8852 25.1056 51.7422 21.786 48.0402C25.7257 46.4344 28.4444 47.5798 32.4362 47.4099C32.7545 47.5497 32.5679 49.6048 32.5816 49.9364H32.5844Z" fill="#122A2C"/>
<path d="M29.1797 50.3255C29.7695 50.9338 30.214 51.8299 30.6392 52.5588C31.0041 53.1863 32.3457 56.1457 32.4883 56.0087C32.5871 55.7374 32.5542 55.4579 32.5844 55.1839C32.6639 54.4824 32.6612 53.7507 32.6804 53.0465L32.9712 53.1424C32.941 54.0987 32.8477 55.1071 32.9712 56.058L32.7764 56.3484C32.6886 56.891 32.7298 57.4582 32.6804 58.0008C32.6776 58.0337 32.6804 58.0665 32.6804 58.0967C31.4787 55.3099 29.8326 52.5834 28.7407 49.8405C28.8669 50.0734 29.0316 50.1775 29.1797 50.3255Z" fill="#0F1421"/>
<path d="M32.6804 57.998C32.7325 57.4582 32.6886 56.8883 32.7764 56.3457C33.9781 55.4962 35.2812 54.781 36.4719 53.9179C36.6804 54.6249 33.668 57.1842 32.6776 57.998H32.6804Z" fill="#0F3031"/>
<path d="M19.989 45.3713C20.1674 45.3055 23.1495 46.4344 23.6351 46.4892L21.4458 47.314C21.3032 46.9825 19.2785 45.6288 19.9863 45.3713H19.989Z" fill="#071B1F"/>
<path d="M41.2401 12.5328C40.8313 12.004 40.2936 11.6012 39.8793 11.0751C40.1097 11.1107 40.0631 10.9791 40.0741 10.9791C40.3402 10.9243 40.7462 11.1216 40.8532 10.7846C41.1468 11.0778 43.1879 12.9987 43.1879 13.1658C43.1879 14.1194 41.4897 12.6918 41.2428 12.5356L41.2401 12.5328Z" fill="#509F7F"/>
<path d="M44.3045 47.2154C44.4444 47.2181 44.9684 47.1715 45.0343 47.2647L44.6941 49.4514L42.6996 47.4593C42.7627 47.3168 44.2085 47.2154 44.3045 47.2154Z" fill="#071B1F"/>
<path d="M47.1742 28.3684C48.3347 34.4571 47.9973 38.0933 45.7147 43.9107C45.07 43.1325 44.4143 42.3844 43.8656 41.5295C46.5734 33.9501 44.9383 29.9495 42.8916 22.5866C42.9191 22.3838 44.7243 20.9781 45.0316 20.6931C45.8025 23.2661 46.6694 25.7268 47.1715 28.3684H47.1742Z" fill="url(#paint1_linear_3165_11075)"/>
<path d="M45.7147 43.9135C47.9973 38.0933 48.332 34.4571 47.1742 28.3711C48.0247 28.4944 47.2291 25.6912 47.0782 24.8746C47.1358 24.8856 47.4101 24.7924 47.4184 24.7787C47.5912 24.5102 46.5405 20.2519 46.3978 19.534C46.5816 19.3723 47.6159 18.1639 47.7119 18.1749C50.0741 27.3024 49.6187 36.8465 48.0521 46.1056C47.8518 46.4975 46.2716 44.5848 45.7174 43.9189L45.7147 43.9135Z" fill="#00E6B3"/>
<path d="M47.0754 24.8719C47.2263 25.6885 48.0247 28.4917 47.1715 28.3684C46.6694 25.7268 45.8025 23.2661 45.0316 20.6931C45.3553 20.3917 45.6735 20.1122 46.0055 19.819C46.2442 21.5261 46.7599 23.1785 47.0754 24.8719Z" fill="#00E6B3"/>
<path d="M47.0754 24.8719C46.7599 23.1785 46.2469 21.5289 46.0055 19.819C46.2305 19.6217 46.3676 19.5505 46.3951 19.5285C46.5377 20.2465 47.5885 24.5075 47.4156 24.7733C47.4074 24.787 47.1331 24.8801 47.0754 24.8692V24.8719Z" fill="#00E6B3"/>
<path d="M47.1248 46.6317C48.3896 46.3385 46.8121 47.6648 45.7641 48.5745C45.7202 46.4125 46.3429 47.3442 47.1248 46.6317Z" fill="#072F34"/>
<path d="M26.1646 10.59C26.3155 10.6394 26.4883 10.6969 26.6502 10.6859C26.2195 11.1984 25.8299 11.7354 25.3855 12.2396L22.321 15.2511C22.0933 15.2319 21.4842 13.5248 21.5912 13.2097C22.5295 12.2068 26.856 8.48557 28.9822 6.31261C28.7353 6.89627 25.6927 10.1927 25.7723 10.4421C25.7778 10.4613 26.0878 10.5626 26.1619 10.5873L26.1646 10.59Z" fill="#008E6A"/>
<path d="M31.8052 3.98619C30.9054 4.34789 30.62 5.29326 30.0549 5.9783C28.7764 7.52377 27.2565 8.89112 26.1646 10.5928C26.0933 10.5681 25.7805 10.4667 25.775 10.4475C25.6955 10.1982 28.738 6.90449 28.9849 6.31809C30.4362 4.83564 33.3443 1.12543 31.8052 3.98619Z" fill="#00D09E"/>
<path d="M31.8052 3.98619C31.1962 5.12062 27.7202 9.41724 26.6502 10.6887C26.4883 10.6996 26.3155 10.6421 26.1646 10.5928C27.2565 8.89112 28.7764 7.52377 30.0549 5.9783C30.6228 5.29326 30.9054 4.34789 31.8052 3.98619Z" fill="#06D6AC"/>
<path d="M25.3855 12.2424C24.3786 13.385 23.3032 14.4701 22.225 15.5443L21.2044 13.7467C21.1495 13.4398 21.4458 13.3686 21.594 13.2124C21.487 13.5275 22.096 15.2347 22.3237 15.2538L25.3882 12.2424H25.3855Z" fill="#0F776D"/>
<path d="M50.2853 7.87177C50.3621 7.9485 50.3128 8.37049 51.8409 9.32955C51.8244 9.34599 51.9012 9.49122 51.5967 9.71866C50.8368 9.50218 47.5638 7.92384 47.561 7.14288C47.561 7.0689 48.0768 5.83033 48.192 5.83033C48.8615 6.54004 49.5967 7.18125 50.2826 7.87177H50.2853Z" fill="#00D090"/>
<path d="M50.4801 10.105C49.5007 11.297 47.9342 15.1771 47.2702 16.0321C46.8477 16.5746 46.332 16.5527 46.3951 16.8103C46.1674 16.7938 45.0837 16.7116 45.0343 16.5664C45.4184 15.5717 47.4047 9.02539 47.6598 8.69657C47.7174 8.62258 47.797 8.52668 47.904 8.55134C48.6639 9.26105 49.5501 9.67756 50.4829 10.105H50.4801Z" fill="#289F92"/>
<path d="M49.1193 14.8647L47.2702 16.0293C47.9342 15.1771 49.5007 11.2943 50.4801 10.1023C50.5514 10.1352 50.9712 10.1352 51.1111 10.1982C51.3059 10.4092 49.4129 14.292 49.1166 14.862L49.1193 14.8647Z" fill="#00D090"/>
<path d="M49.1193 14.8647C48.9684 15.1552 48.3073 16.7281 48.0988 16.8075C47.5364 16.7774 46.9575 16.8486 46.3978 16.8075C46.3347 16.5499 46.8505 16.5746 47.273 16.0293L49.1221 14.8647H49.1193Z" fill="#00E6B3"/>
<path d="M51.3553 8.45269C51.5556 8.61162 51.6982 9.02813 52.0357 9.03635C52.0247 9.05005 52.1152 9.08568 51.8409 9.32681C50.3128 8.36775 50.3621 7.94576 50.2853 7.86903C50.5679 7.95124 51.1385 8.28006 51.3553 8.45269Z" fill="#63FBD5"/>
<path d="M17.3141 31.2839C17.1962 35.5312 17.8711 37.9262 19.454 41.8254L17.2647 43.7189C17.0261 43.6148 16.9849 43.4011 16.9246 43.1846C16.4335 41.4336 16.085 33.5254 16.1454 31.3798C16.5213 31.3196 16.9465 31.3333 17.3114 31.2839H17.3141Z" fill="#19484E"/>
<path d="M19.1605 20.4027C18.7106 22.2139 18.2167 24.85 17.8957 26.716C17.8354 27.0695 17.594 27.782 17.5062 28.2231C17.4705 29.2425 17.3388 30.2646 17.3114 31.2839C16.9438 31.336 16.5185 31.3223 16.1454 31.3798C16.2387 28.0615 16.9026 23.4771 17.4102 20.1095L19.1605 20.3999V20.4027Z" fill="#356D6D"/>
<path d="M19.2593 20.3067C19.2702 20.4273 19.1632 20.3972 19.1632 20.4027L17.4129 20.1122C17.4486 19.8683 17.7229 17.583 17.8519 17.5857C18.2085 18.3228 18.7792 18.9641 19.166 19.6738C19.4568 20.2108 19.2483 20.2766 19.262 20.304L19.2593 20.3067Z" fill="#008869"/>
<path d="M20.0357 30.0207C19.4321 30.1221 19.1084 32.7965 18.8203 32.8376L17.5062 30.7962C17.5391 29.4096 17.6927 28.0834 17.8957 26.716C18.2167 24.8472 18.7106 22.2139 19.1605 20.4027C19.1605 20.3972 19.2675 20.4273 19.2565 20.3067C19.8601 21.4138 20.546 22.4852 21.2016 23.5621C20.8971 25.7268 20.2195 27.8368 20.0357 30.0235L20.0357 30.0207Z" fill="#008E6A"/>
<path d="M17.5089 30.7989C17.5062 30.9277 17.5089 31.0592 17.5089 31.188C17.4239 31.1853 17.4129 31.2702 17.3141 31.2839C17.3416 30.2673 17.4705 29.2425 17.5089 28.2231C17.5967 27.782 17.8381 27.0695 17.8985 26.716C17.6955 28.0834 17.5446 29.4096 17.5089 30.7962V30.7989Z" fill="#1F4F52"/>
<path d="M33.1193 63.1468C33.8052 62.966 33.2483 63.7798 32.535 63.8264C31.8189 63.873 31.1385 63.1688 31.8546 63.2427C32.0219 63.2592 32.214 63.6428 32.535 63.6319C32.8313 63.6209 33.0809 63.1551 33.1193 63.1468Z" fill="#6B7777"/>
<path d="M51.3553 47.5059C49.594 46.8372 47.9095 49.3719 47.9506 48.2347C47.9726 47.6045 50.6722 47.3661 49.6049 46.0015C49.9287 45.5877 50.2359 46.7057 49.9945 46.9743C50.0796 47.2949 50.8669 46.6482 51.3553 47.5086V47.5059Z" fill="#BFC4B7"/>
<path d="M49.166 46.2454C49.4047 46.2344 49.4568 46.5194 49.4102 46.6838C49.3553 46.8646 47.3141 48.1197 49.166 46.2454Z" fill="#5CE0BD"/>
<path d="M49.8491 48.3827C49.9259 48.3663 50.1536 48.3608 50.1893 48.432L49.07 49.4514C48.6996 49.2048 49.5665 48.4403 49.8491 48.3827Z" fill="#96B0AD"/>
<path d="M37.8354 17.9748C37.7723 18.1475 38.0713 18.2379 38.1756 18.2653C39.3717 18.5886 40.6694 18.7174 41.8711 19.0435C42.0631 19.0956 42.9794 19.7066 42.9904 19.2381C43.7339 19.4655 44.4554 19.7806 45.2263 19.9176C44.4609 20.6027 43.7641 21.4302 42.7956 21.8604C35.1907 19.8574 28.8724 20.4383 21.3004 22.055C20.9465 21.4686 20.6804 20.7918 20.3265 20.2081C20.1317 20.0957 21.1029 19.5669 21.2016 19.5285C22.0796 19.6025 23.4376 19.0353 24.3621 18.849C27.0178 18.3174 31.8546 17.9694 32.2414 17.8762C32.3128 17.8598 32.2908 17.7474 32.2908 17.6816C34.1646 17.6378 35.9781 17.7118 37.8354 17.9721V17.9748Z" fill="#1EB29A"/>
<path d="M42.7956 21.8604C42.7764 21.8687 42.6475 22.0879 42.4554 22.1509C35.6818 21.9207 28.8669 22.0221 22.225 23.51C22.0165 23.4607 21.465 22.3263 21.3004 22.0522C28.8724 20.4355 35.1907 19.8574 42.7956 21.8577V21.8604Z" fill="#0F776D"/>
<path d="M45.2291 19.9176C44.4582 19.7779 43.7339 19.4655 42.9931 19.2381C41.2812 18.712 39.6077 18.2242 37.8381 17.9748C35.9808 17.7145 34.1701 17.6405 32.2936 17.6844C29.3663 17.7529 23.8793 18.4489 21.2044 19.5313C21.1056 19.5724 20.1344 20.0985 20.3292 20.2108C20.0768 19.7943 18.0412 17.1747 18.3347 17.0048C28.0384 16.5143 38.0247 15.6566 47.5638 17.8296C46.7819 18.5201 46.0082 19.2216 45.2291 19.9176Z" fill="#00E6B3"/>
<path d="M32.2908 17.6816C32.2908 17.7474 32.3155 17.8598 32.2414 17.8762C31.8546 17.9694 27.0178 18.3146 24.3621 18.849C23.4376 19.0353 22.0796 19.6025 21.2016 19.5285C23.8765 18.4462 29.3635 17.7501 32.2908 17.6816Z" fill="#00765B"/>
<path d="M42.9904 19.2381C42.9822 19.7066 42.0631 19.0956 41.8711 19.0435C40.6694 18.7202 39.3717 18.5914 38.1756 18.2653C38.0713 18.2379 37.7723 18.1447 37.8354 17.9748C39.6049 18.2242 41.2785 18.712 42.9904 19.2381Z" fill="#008E6A"/>
<path d="M44.3539 42.7461C37.1385 44.1025 29.7476 43.412 22.4691 43.1353C21.6626 42.8009 20.7929 42.5763 20.1344 41.9707C20.6667 41.5048 21.0864 40.8691 21.7394 40.5129C29.1276 42.9407 35.7065 43.1599 43.1385 40.7074C43.572 41.3596 43.8957 42.1104 44.3539 42.7489V42.7461Z" fill="#00D090"/>
<path d="M44.3539 42.7461C44.6475 43.1517 45.1468 43.8559 45.4239 44.2039C43.9918 44.4505 42.5789 44.9575 41.144 45.1767C38.3649 45.5987 35.5802 45.5603 32.7792 45.5658C32.203 45.522 31.6049 45.4425 31.0288 45.3712C29.0617 45.1301 26.4993 44.6122 24.6091 44.0121C23.8793 43.7792 23.1742 43.4312 22.4691 43.138C29.7476 43.4175 37.1385 44.1053 44.3539 42.7489V42.7461Z" fill="#1EB29A"/>
<path d="M34.8203 46.6317C35.0123 46.1933 35.3032 46.2481 35.1111 45.659C37.1358 45.6864 39.144 45.5685 41.1413 45.2699C41.4842 45.2726 41.3004 45.3932 41.1907 45.5603H46.2497C46.631 45.3301 45.7641 45.0342 46.0055 44.8808C46.1646 45.0671 47.3827 46.1001 47.3663 46.1933L47.2208 46.3385C43.0892 46.3687 38.952 46.692 34.8203 46.629V46.6317Z" fill="#509F7F"/>
<path d="M22.4691 43.1353C23.1742 43.4285 23.8793 43.7765 24.6091 44.0094C23.2647 44.1409 24.5624 45.4589 23.3443 45.4672C21.5062 45.0945 19.6955 44.5875 17.8985 44.0587C18.5816 43.2887 19.3635 42.6448 20.1344 41.9707C20.7929 42.579 21.6626 42.8037 22.4691 43.1353Z" fill="#356D6D"/>
<path d="M24.6091 44.0094C26.4993 44.6095 29.0617 45.1274 31.0288 45.3685C30.9026 45.4836 30.3567 46.3193 30.299 46.3413C30.2058 46.3769 28.5953 45.9686 28.3045 46.2454C26.6283 46.0673 24.9959 45.8042 23.3443 45.4672C24.5624 45.4617 23.2647 44.1409 24.6091 44.0094Z" fill="#356D6D"/>
<path d="M32.7792 45.5631C33.561 45.6206 34.3292 45.6507 35.1139 45.659C35.3059 46.2481 35.0151 46.1933 34.823 46.6317C32.6475 46.5988 30.4719 46.4728 28.3073 46.2426C28.5981 45.9659 30.2085 46.3742 30.3018 46.3385C30.3594 46.3166 30.9026 45.4809 31.0315 45.3658C31.6077 45.437 32.2058 45.5165 32.7819 45.5603L32.7792 45.5631Z" fill="#399272"/>
<path d="M45.4239 44.2039C45.6022 44.4259 45.8189 44.6643 46.0082 44.8835C45.7668 45.0369 46.6337 45.3356 46.2524 45.5631H41.1934C41.3059 45.3959 41.4897 45.2753 41.144 45.2726V45.1767C42.5789 44.9575 43.989 44.4505 45.4239 44.2039Z" fill="#65ADA2"/>
<path d="M41.144 45.1767V45.2726C39.1468 45.5713 37.1358 45.6864 35.1139 45.6617C34.3292 45.6507 33.561 45.6233 32.7792 45.5658C35.5802 45.5603 38.3649 45.6014 41.144 45.1767Z" fill="#57A99E"/>
<path d="M36.6694 49.5473C36.6694 49.5802 36.6694 49.6131 36.6694 49.6432C36.727 50.6132 36.7874 51.586 36.7654 52.5588C35.5171 53.7507 34.1783 54.8194 32.9712 56.0552C32.8477 55.1044 32.941 54.096 32.9712 53.1397C33.0123 51.8984 33.0837 50.6872 33.166 49.4486L36.6667 49.5446L36.6694 49.5473Z" fill="#00805A"/>
<path d="M36.4746 47.4099C36.5734 48.1114 36.6255 48.8403 36.6694 49.5473L33.1687 49.4514C33.1879 49.15 33.1084 47.4894 33.2181 47.4099C34.3018 47.3743 35.3937 47.4593 36.4774 47.4099H36.4746Z" fill="#006D4D"/>
<path d="M39.6845 49.7418C39.2977 49.4651 37.7229 49.7391 36.6694 49.6459C36.6694 49.6131 36.6694 49.5802 36.6694 49.55C36.6255 48.8431 36.5734 48.1169 36.4746 47.4127C38.1756 47.336 39.8711 47.1304 41.5802 47.2181C41.2181 48.1142 40.3347 49.0102 39.6845 49.7446V49.7418Z" fill="#013B3D"/>
<path d="M39.6845 49.7418C38.7709 50.7749 37.7558 51.6134 36.7654 52.5588C36.7846 51.586 36.727 50.6132 36.6694 49.6432C37.7229 49.7364 39.2977 49.4623 39.6845 49.7391V49.7418Z" fill="#115C56"/>
<path d="M32.5844 49.9364C32.6255 50.9804 32.7133 51.9943 32.6804 53.0438C32.6584 53.748 32.6612 54.4796 32.5844 55.1811C31.7558 54.4714 31.4623 53.178 30.6392 52.5588C30.214 51.8299 29.7695 50.9311 29.1797 50.3255C28.7517 49.6185 31.1248 50.0542 32.5844 49.9364Z" fill="#006D4D"/>
<path d="M32.5844 55.1811C32.5542 55.4579 32.5844 55.7346 32.4883 56.0059C32.3457 56.1429 31.0041 53.1835 30.6392 52.556C31.4623 53.1753 31.7558 54.4687 32.5844 55.1784V55.1811Z" fill="#013B3D"/>
<path d="M41.3361 24.9678C41.3608 25.0774 41.8409 25.7515 42.2113 27.0558C42.4856 28.0259 42.8505 29.5165 42.8916 30.5057C42.2442 30.2207 40.727 29.3329 41.4321 30.0207C37.7805 30.8565 38.4938 30.7469 36.8615 33.857C37.2373 35.1503 37.3827 35.0791 37.6406 34.2954C37.6022 34.975 37.6406 35.4134 38.321 35.6545V37.1123C38.3731 38.3481 38.1728 39.6059 38.5158 40.8033C36.8916 41.1541 35.2894 41.6007 33.6049 41.4829C33.4925 41.2527 34.0439 40.8691 34.1399 40.7047C34.642 40.8006 36.3512 39.2031 35.989 38.8578C38.9053 37.3809 34.3018 38.5591 32.3429 38.4687C30.2963 38.3755 27.8381 37.0959 28.9383 38.3728C29.2867 38.7784 31.0672 38.5098 32.3429 41.5788C29.1495 41.535 26.2058 40.28 23.1029 39.7319C22.6722 39.5319 22.7792 39.3648 22.7627 39.3428C23.3141 39.8059 23.4047 39.3428 23.4431 39.3428C24.6255 39.2661 26.5377 39.647 27.8683 39.5374C27.9671 39.4798 27.8958 39.2551 27.9177 39.1483C28.0439 38.466 27.9424 37.2055 28.0137 36.5259C28.0192 36.4848 28.192 35.9806 28.2085 35.7477C28.2661 34.8928 28.5185 34.5639 28.3045 33.5145C28.9849 32.9034 27.5117 31.6128 27.4294 31.2319C27.2483 30.4043 27.5171 26.0858 27.7202 24.8692C32.2661 24.6445 36.7984 24.5486 41.3361 24.9651V24.9678Z" fill="#C4E697"/>
<path d="M35.3059 23.2196C36.2442 23.1867 36.0631 24.006 35.8903 24.143C35.701 24.2937 35.251 24.0279 35.3059 24.3869C31.454 24.3211 27.5062 24.3567 23.7311 25.0665C23.6187 25.0582 23.69 25.2829 23.2455 24.8719C23.262 24.85 23.2291 24.7952 23.2455 24.776C23.3032 24.7047 23.3443 24.5075 23.3909 24.4855C27.3635 23.8937 31.2757 23.299 35.3059 23.2223V23.2196Z" fill="#949A69"/>
<path d="M44.1591 33.4213C43.9918 33.4925 43.7613 33.2213 43.4787 32.9363C42.6996 32.1553 40.9218 30.7277 39.7339 31.0894C39.6214 31.1223 38.1866 32.6897 38.1289 32.7883C37.786 33.3774 37.7888 33.8488 37.6433 34.2954C37.3855 35.0818 37.2401 35.1531 36.8642 33.857C38.4993 30.7469 37.7833 30.8565 41.4348 30.0207C41.7586 30.3358 43.2977 30.9798 43.8656 31.1387C43.9451 31.9032 44.0905 32.654 44.1564 33.4213H44.1591Z" fill="#C2D295"/>
<path d="M41.8244 23.8032C41.5501 23.6032 41.2346 24.6198 41.2401 24.6773C39.262 24.4115 37.2977 24.4198 35.3059 24.3869C35.251 24.0307 35.701 24.2937 35.8903 24.143C36.0631 24.006 36.2442 23.1867 35.3059 23.2196C37.3361 23.1812 39.358 23.2881 41.3855 23.3155C41.6872 23.4607 41.6872 23.5456 41.8244 23.8005V23.8032Z" fill="#B0B587"/>
<path d="M21.786 34.1009C21.6379 35.1914 22.1207 35.4901 22.3704 36.3341C22.4362 36.5588 22.4883 36.7945 22.5652 37.0137C22.834 37.7974 22.9657 38.6386 23.4403 39.3456C23.4019 39.3456 23.3114 39.8087 22.7599 39.3456C21.4733 37.7316 21.0398 34.0597 21.0096 32.0594C21.4403 32.2211 21.3306 33.6843 21.7888 34.1009H21.786Z" fill="#B8FFD3"/>
<path d="M41.8244 23.8032C41.9973 24.1293 44.0137 30.6701 43.7202 30.8948C43.4266 30.8071 43.1687 30.6263 42.8944 30.5057C42.8532 29.5193 42.4883 28.0259 42.214 27.0558C41.8436 25.7488 41.3635 25.0774 41.3388 24.9678C41.2977 24.7842 41.2455 24.7157 41.2428 24.6773C41.2373 24.6198 41.5501 23.6032 41.8272 23.8032L41.8244 23.8032Z" fill="#949A69"/>
<path d="M22.9547 24.7733C22.5213 26.0803 21.2181 29.9467 21.1056 30.8948H21.0096C21.0809 29.3028 21.8326 24.8308 22.1289 24.6773C22.1646 24.6582 22.8669 24.576 22.9081 24.5814C22.9877 24.5897 22.9465 24.7705 22.9575 24.776L22.9547 24.7733Z" fill="#949A69"/>
<path d="M44.2551 35.3641C44.1674 36.7205 43.6433 37.981 43.38 39.299C43.2044 39.5812 42.62 39.721 42.31 39.8333C42.0823 39.4661 42.631 38.6386 42.8944 37.8905C42.9657 37.6878 42.9712 37.4685 42.9904 37.4055C43.0123 37.3315 43.2922 36.9589 43.476 35.9477C43.5117 35.745 43.5501 35.5751 43.572 35.3641H44.2551Z" fill="#E8EEDA"/>
<path d="M35.989 38.8606C36.3539 39.2031 34.6447 40.8006 34.1399 40.7074C34.332 40.3814 34.7133 39.3319 34.9657 39.1538C35.0151 39.1181 35.7723 38.9702 35.9863 38.8633L35.989 38.8606Z" fill="#C4E697"/>
<path d="M44.1591 33.4213C44.2167 34.0789 44.299 34.6982 44.2551 35.3641H43.5748C43.6708 34.5393 43.7997 33.7172 43.4787 32.9363C43.7641 33.2213 43.9918 33.4925 44.1591 33.4213Z" fill="#CDDFB9"/>
<path d="M33.4102 39.4442C34.8258 38.9674 32.9931 41.1322 32.8258 41.0965C32.7929 41.0883 32.3896 40.5978 32.3868 40.5622C32.3868 40.4855 33.3361 39.4689 33.4074 39.4442H33.4102Z" fill="#A6BA4E"/>
<path d="M35.3059 24.3869C37.2949 24.4198 39.2593 24.4115 41.2401 24.6773C41.2428 24.7157 41.2949 24.7842 41.3361 24.9678C36.7956 24.5513 32.2661 24.6472 27.7202 24.8719C26.5514 24.9294 24.62 25.124 23.7311 25.0665C27.5062 24.3567 31.454 24.3211 35.3059 24.3869Z" fill="#1C0601"/>
<path d="M28.3045 33.5172C28.5158 34.5667 28.2661 34.8982 28.2085 35.7504C27.4431 35.8436 22.9602 35.6299 22.7133 35.7504C22.5267 35.8409 22.6749 36.4136 22.3731 36.3341C22.1235 35.4901 21.6406 35.1887 21.7888 34.1009C21.8765 33.4679 22.9657 31.9334 23.4897 31.5744C25.0233 30.5276 27.9342 31.684 28.3045 33.5172Z" fill="#C1CC85"/>
<path d="M26.3594 36.9178C26.1454 38.1207 26.823 38.7729 27.915 39.151C27.8957 39.2579 27.9643 39.4826 27.8656 39.5401C26.535 39.6497 24.6228 39.2688 23.4403 39.3456C22.9657 38.6386 22.834 37.7974 22.5652 37.0137C23.8134 36.7671 25.1084 37.0109 26.3594 36.9178Z" fill="#C1CC85"/>
<path d="M28.2058 35.7532C28.1893 35.9834 28.0165 36.4903 28.011 36.5314C27.3196 36.7972 27.1001 36.863 26.3567 36.9205C25.1056 37.0137 23.8107 36.7725 22.5624 37.0164C22.4883 36.7972 22.4335 36.5588 22.3676 36.3368C22.6694 36.4191 22.5213 35.8464 22.7078 35.7532C22.9547 35.6326 27.4376 35.8464 28.203 35.7532H28.2058Z" fill="#C1CC85"/>
<path d="M28.011 36.5287C27.9396 37.211 28.0412 38.4687 27.915 39.151C26.8203 38.7729 26.1454 38.1207 26.3594 36.9178C27.1029 36.863 27.3224 36.7945 28.0137 36.5287H28.011Z" fill="#C1CC85"/>
<path d="M23.7339 25.0665C24.62 25.124 26.5542 24.9294 27.7229 24.8719C27.5199 26.0885 27.2483 30.4071 27.4321 31.2346C27.5144 31.6155 28.9877 32.9061 28.3073 33.5172C27.9369 31.684 25.0261 30.5276 23.4925 31.5744C22.9684 31.9334 21.8765 33.4679 21.7915 34.1009C21.3361 33.6843 21.4458 32.2238 21.0123 32.0594C21.0069 31.6785 20.9959 31.273 21.0123 30.8948H21.1084C20.9246 32.4321 21.6433 29.396 21.8875 28.6123C22.0933 27.9491 23.0014 25.2446 23.2483 24.8719C23.6927 25.2829 23.6241 25.0582 23.7339 25.0665Z" fill="#C1CC85"/>
<path d="M23.2455 24.7733C23.2291 24.7924 23.262 24.8472 23.2455 24.8692C22.9986 25.2418 22.0878 27.9464 21.8848 28.6095C21.6433 29.3932 20.9246 32.4293 21.1056 30.8921C21.2181 29.944 22.5185 26.0803 22.9547 24.7705C22.9959 24.7897 23.1413 24.7596 23.2455 24.7705V24.7733Z" fill="#1C0601"/>
<path d="M24.2689 30.0207C24.5432 29.9933 25.679 30.0235 25.8244 30.1166C26.7682 30.7249 24.3923 30.0372 22.4691 30.9414C22.2798 30.6153 23.8381 30.0618 24.2689 30.018V30.0207Z" fill="#0A0C0E"/>
<path d="M42.9904 37.4028C42.9712 37.4685 42.963 37.6878 42.8944 37.8878H39.5391C39.3882 37.9947 39.5665 39.8635 39.4897 40.2197C39.487 40.2361 39.2565 40.2635 39.2949 40.5102C39.2538 40.5211 39.4678 40.5951 38.5158 40.8006C38.1728 39.6031 38.3731 38.3427 38.321 37.1096C39.8381 37.5398 41.4403 37.1096 42.9904 37.4V37.4028Z" fill="#C4E697"/>
<path d="M42.8944 37.8905C42.631 38.6386 42.085 39.4661 42.31 39.8333C41.3855 40.1704 40.2497 40.2745 39.2949 40.5129C39.2565 40.2663 39.487 40.2389 39.4897 40.2224C41.3855 40.3786 41.5281 39.4278 42.214 37.8905H42.8944Z" fill="#C4E697"/>
<path d="M43.476 32.9363C43.7997 33.7172 43.668 34.542 43.572 35.3641C43.5473 35.5723 43.5117 35.745 43.476 35.9477C42.3018 35.934 39.1715 35.9587 38.321 35.6573C37.6379 35.4161 37.6022 34.9777 37.6406 34.2981C37.786 33.8542 37.7833 33.3829 38.1262 32.791C38.1838 32.6897 39.6187 31.125 39.7311 31.0921C40.9191 30.7277 42.6968 32.1553 43.476 32.939V32.9363Z" fill="#C4E697"/>
<path d="M43.476 35.9477C43.2922 36.9589 43.0123 37.3315 42.9904 37.4055C41.4403 37.1151 39.8381 37.5453 38.321 37.1151L38.321 35.6573C39.1715 35.9587 42.3018 35.934 43.476 35.9477Z" fill="#C4E697"/>
<path d="M42.214 37.8905C41.5281 39.425 41.3855 40.3786 39.4897 40.2224C39.5665 39.8662 39.3855 37.9974 39.5391 37.8905H42.214Z" fill="#C4E697"/>
<path d="M38.5844 32.7719C38.31 32.8787 37.2922 35.8354 35.4294 33.0459C35.5199 32.9335 35.7915 31.8484 36.9383 30.5797L38.5844 32.7719Z" fill="#191308"/>
<path d="M27.4733 30.4427L29.2565 32.5663C27.5446 35.4627 27.4102 33.3555 26.1015 33.1829C26.1783 32.0896 26.9959 31.2483 27.4733 30.4427Z" fill="#191308"/>
<defs>
<linearGradient id="paint0_linear_3165_11075" x1="9.52411" y1="30.9891" x2="46.357" y2="41.1986" gradientUnits="userSpaceOnUse">
<stop stop-color="#009684"/>
<stop offset="1" stop-color="#00A17B"/>
</linearGradient>
<linearGradient id="paint1_linear_3165_11075" x1="-39.6588" y1="30.976" x2="-3.99305" y2="67.3303" gradientUnits="userSpaceOnUse">
<stop stop-color="#00876E"/>
<stop offset="1" stop-color="#009F7A"/>
</linearGradient>
</defs>
</svg>
