<svg width="40" height="65" viewBox="0 0 40 65" fill="none" xmlns="http://www.w3.org/2000/svg">
<path d="M1.99213 23.2759C1.87546 23.3357 1.52544 23.5297 1.56732 23.6999C-2.1782 25.3988 4.39142 28.7278 6.55437 29.101C6.56634 29.4802 6.26418 29.7548 6.12956 30.0534C6.63814 29.2174 4.75341 29.2174 2.62935 28.0411C1.85452 27.6111 0.687781 26.9364 0.295877 26.1362C-0.496906 24.524 0.382634 23.5685 1.99213 23.2759Z" fill="#FDF7FF"/>
<path d="M6.34496 30.4774C6.33 30.5461 6.18042 30.6983 6.02784 31.8538C5.615 34.932 6.09067 38.0252 5.60303 41.0676C5.71372 38.2879 5.18121 32.1643 6.13255 30.0564C6.26718 29.7548 6.56933 29.4832 6.55736 29.104C6.75182 29.2712 6.47659 29.8653 6.34496 30.4804V30.4774Z" fill="#FFD7C1"/>
<path d="M8.14592 34.2901C8.05617 34.5379 7.91557 34.7887 7.82881 35.0305C7.68521 33.0092 7.71513 28.88 8.89084 27.4589C8.63954 29.731 8.47799 32.021 8.14891 34.2901H8.14592Z" fill="#5E6184"/>
<path d="M6.02485 31.8538C6.18042 30.6983 6.32701 30.546 6.34197 30.4774C6.689 31.2417 7.26937 27.9873 7.2963 29.5787C7.30228 29.8593 6.49155 34.8484 6.34197 35.0843C5.71672 36.0725 6.14452 32.0389 6.02485 31.8538Z" fill="#2D316A"/>
<path d="M38.3853 1.25365C34.8343 3.7646 31.3819 6.41588 27.7232 8.77157C27.2954 9.18956 27.0919 9.95091 26.6103 10.5719C26.5654 10.6316 26.2752 10.8168 26.1855 11.2616C25.632 11.7154 22.5297 9.78968 21.6232 10.0435C21.2941 9.75982 20.9112 9.46126 20.5612 9.19553C20.9232 7.90274 21.0279 8.42822 21.3031 8.3476C23.9746 7.5773 23.9866 8.11472 26.344 9.30003C27.7381 6.36512 27.4479 7.84303 28.6775 7.49967C28.9467 7.42503 32.9645 4.33486 33.135 4.11094C33.2427 3.97061 33.1889 3.37348 33.2936 3.15851C34.7924 2.51062 36.1805 1.74032 37.6434 1.04167C40.4436 -0.295908 40.8205 -0.469077 38.3853 1.25365Z" fill="#0A1517"/>
<path d="M37.6434 1.04167C36.1805 1.74032 34.7924 2.51062 33.2936 3.15851C31.7409 3.83029 29.1053 4.52893 28.4651 5.38283C26.5086 4.76182 27.8189 6.06655 27.2984 6.33526C24.3127 6.12029 25.8893 6.82193 25.282 7.28769C24.4952 7.89378 22.6464 7.25783 22.0989 7.28769C21.8117 7.30262 19.8402 7.7445 20.7736 8.02814C20.7257 8.01918 20.8693 8.12368 19.8193 7.92364C19.3645 7.83705 18.5927 7.65194 18.5448 7.81914C18.476 7.76838 18.3294 7.73554 18.3324 7.60716C19.9958 7.03092 21.7967 6.84283 23.478 6.33526C25.4824 5.73216 32.4978 3.22718 34.4065 2.41806C35.1065 2.12248 35.648 1.75525 37.0601 1.25365C37.1438 1.2238 37.1139 1.11333 37.1139 1.04167C37.3233 0.996886 37.7152 0.955087 37.6434 1.04167Z" fill="#C974FF"/>
<path d="M37.1139 1.04167C37.1139 1.11333 37.1438 1.2238 37.0601 1.25365C35.648 1.75525 35.1065 2.12248 34.4065 2.41806C32.4978 3.22718 25.4824 5.73216 23.478 6.33526C21.7967 6.84283 19.9958 7.03092 18.3324 7.60716C18.3085 7.61611 18.2158 7.35039 17.8029 7.6609C17.5755 8.35656 17.1298 8.91189 16.7409 9.515L17.9615 7.39816C19.7445 7.12049 25.7008 5.60079 26.8735 4.96185C26.9603 4.91408 26.9274 4.82451 26.9274 4.74987C27.2475 4.94991 27.6753 4.61552 27.9894 4.53789C30.5742 3.90194 36.0728 1.2656 37.1139 1.04466V1.04167Z" fill="#FFCAFF"/>
<path d="M18.3324 7.60716C18.3264 7.73554 18.473 7.76838 18.5448 7.81914C18.6555 7.89975 18.6436 7.92065 18.6495 7.92364C17.2584 9.79267 16.5973 11.9752 15.5712 14.0652C15.2989 14.0353 15.1164 13.9666 14.8292 13.9607C14.6886 13.9577 14.545 13.9607 14.4044 13.9607C14.4613 13.8651 14.8292 12.8351 15.3587 11.9483C15.8434 11.1422 16.2203 10.3181 16.7379 9.51201C17.1268 8.90891 17.5696 8.35357 17.7999 7.65791C18.2128 7.35039 18.3055 7.61313 18.3294 7.60417L18.3324 7.60716Z" fill="#E2B1FF"/>
<path d="M14.4074 13.9577C14.3595 14.0383 14.0155 14.1517 13.2407 15.3878C12.5526 16.4836 11.9782 17.6659 11.2243 18.7228C9.36651 19.2841 8.475 21.3293 7.29929 22.7475C6.51249 22.7445 5.43849 22.7982 4.64571 22.852C4.60981 22.852 4.57391 22.852 4.541 22.852L7.03303 22.64C8.91477 19.3886 10.7038 18.8094 11.2243 18.2451C11.7239 17.7047 12.3701 16.1014 12.8159 15.4386C13.1988 14.8683 13.5817 14.301 13.9826 13.7457C14.4134 13.1426 14.9519 12.5723 15.3617 11.9453C14.8292 12.8321 14.4642 13.8621 14.4074 13.9577Z" fill="#FFE9F1"/>
<path d="M26.6073 10.5719C25.9551 11.8677 26.3889 11.6707 26.3949 11.7363C26.4398 12.1513 26.2962 12.5753 26.4996 12.5843C26.4906 12.7246 26.5026 12.8679 26.4996 13.0082C26.4637 14.2234 26.6222 15.4027 26.712 16.6089C26.4906 16.4507 26.2064 16.397 25.9701 16.2925C27.2146 15.982 21.8207 13.9159 21.4078 14.7041C19.8133 13.9845 20.3368 14.2144 22.5207 14.1756C24.2499 12.02 24.2618 12.5604 22.1498 10.5749C21.9643 10.4017 21.8207 10.2196 21.6202 10.0464C22.5267 9.79267 25.629 11.7184 26.1825 11.2646C26.2722 10.8227 26.5624 10.6346 26.6073 10.5749V10.5719Z" fill="#2B283F"/>
<path d="M26.5026 12.5813C26.2991 12.5723 26.4427 12.1484 26.3979 11.7334H26.5026C26.4607 11.9632 26.5205 12.3126 26.5026 12.5813Z" fill="#C692D7"/>
<path d="M33.2936 3.15851C33.1859 3.37646 33.2427 3.97061 33.135 4.11094C32.9645 4.33486 28.9497 7.42503 28.6775 7.49967C27.4479 7.84303 27.7381 6.36512 26.344 9.30003C23.9896 8.11472 23.9746 7.57431 21.3031 8.3476C21.2373 8.24012 20.8604 8.04307 20.7736 8.03112C19.8402 7.7445 21.8147 7.3056 22.0989 7.29068C22.6434 7.26082 24.4922 7.89677 25.282 7.29068C25.8893 6.82491 24.3127 6.12328 27.2984 6.33825C27.8189 6.06954 26.5086 4.7648 28.4651 5.38582C29.1023 4.5349 31.7379 3.83327 33.2936 3.1615V3.15851Z" fill="#2B283F"/>
<path d="M20.5612 9.19553C20.9082 9.46126 21.2912 9.75684 21.6232 10.0435C21.8267 10.2166 21.9673 10.3988 22.1527 10.5719C21.692 10.9869 19.8821 13.886 19.7116 14.0144C19.3227 14.304 18.8201 14.0861 18.4371 14.3846C18.0093 14.2891 17.058 14.2413 16.5285 14.1726C17.4738 12.2797 18.8141 10.4585 19.3945 8.45509C19.7355 8.69693 20.2531 8.96265 20.5612 9.19553Z" fill="#B550FF"/>
<path d="M20.7736 8.02814C20.8604 8.04306 21.2403 8.23713 21.3031 8.34462C21.0279 8.42523 20.9232 7.89677 20.5612 9.19255C20.2531 8.95668 19.7355 8.69394 19.3945 8.4521C19.3885 8.44911 19.4034 8.42822 19.2898 8.3476L19.8193 7.92364C20.8693 8.12666 20.7257 8.02216 20.7736 8.02814Z" fill="#2B283F"/>
<path d="M19.8193 7.92364L19.2898 8.3476C19.0803 8.19832 18.8619 8.06695 18.6525 7.92364C18.6466 7.92065 18.6585 7.89677 18.5478 7.81914C18.5957 7.65493 19.3645 7.83705 19.8223 7.92364H19.8193Z" fill="#2B283F"/>
<path d="M15.5741 14.0652C15.8942 14.101 16.2084 14.1308 16.5285 14.1697C17.058 14.2353 18.0123 14.2861 18.4371 14.3816C20.0915 14.7489 22.6015 16.2507 22.8408 15.4416L27.2445 17.2419C27.2984 18.7228 28.3185 20.6336 27.8817 21.3711C27.1907 20.6665 28.4292 20.8665 26.9812 20.0992C26.1615 19.6663 22.9695 18.6153 21.8356 18.4063C21.8326 18.054 21.8536 17.6987 21.8356 17.3464C21.8356 17.3285 21.9942 17.4031 21.9403 16.9762C21.7429 16.7523 17.6533 16.7105 16.9533 16.606L16.8994 16.394L19.4453 16.606C19.9389 16.2507 18.2367 14.94 16.3161 14.4891C15.9242 14.3966 15.2301 14.2921 14.8292 14.2771L14.8292 13.9607C15.1164 13.9666 15.2989 14.0383 15.5712 14.0652H15.5741Z" fill="#2B283F"/>
<path d="M19.2868 8.3476C19.4004 8.42822 19.3855 8.44911 19.3915 8.4521C18.8141 10.4555 17.4738 12.2797 16.5255 14.1697C16.2054 14.1279 15.8913 14.098 15.5712 14.0652C16.5973 11.9752 17.2554 9.79267 18.6495 7.92364C18.859 8.06695 19.0773 8.19832 19.2868 8.3476Z" fill="#E2B1FF"/>
<path d="M14.4074 13.9577C14.548 13.9577 14.6916 13.9547 14.8322 13.9577V14.2742C14.18 13.5755 12.3851 17.4957 11.7538 18.6153C11.6222 18.6362 11.329 18.69 11.2243 18.7198C11.9782 17.6599 12.5526 16.4806 13.2407 15.3848C14.0155 14.1517 14.3595 14.0353 14.4074 13.9547V13.9577Z" fill="#5E6184"/>
<path d="M7.29929 22.7475C7.78692 22.7475 8.66646 22.7326 8.99554 22.7475C9.32762 22.7624 9.62379 22.8341 9.94988 22.852C12.5197 22.9923 15.1344 23.4282 17.6952 23.6999V24.2284C13.6715 23.8193 8.29251 22.8997 4.4333 23.1685C4.19996 22.8311 4.53801 23.0759 4.64571 22.852C5.43849 22.7982 6.51249 22.7445 7.29929 22.7475Z" fill="#7153EE"/>
<path d="M4.541 22.855C4.5769 22.855 4.6128 22.855 4.64571 22.855C4.541 23.0789 4.19996 22.8341 4.4333 23.1714C3.52086 23.2341 2.40797 23.3207 1.56732 23.6999C1.52544 23.5297 1.87546 23.3386 1.99213 23.2759C2.74004 22.8878 3.74523 22.9147 4.53801 22.852L4.541 22.855Z" fill="#EEA5F7"/>
<path d="M26.715 14.8056C26.7868 15.555 26.8107 16.4149 27.4569 16.8717C27.8159 21.1113 28.9946 22.2757 31.2772 25.5003C31.1486 25.4107 31.0828 25.4197 30.9601 25.3958C30.634 24.8225 29.925 24.0701 29.3686 23.7537C29.7934 23.4581 28.7493 22.3235 28.3065 21.7951C28.1629 21.6219 28.0313 21.5234 27.8817 21.3711C28.3215 20.6336 27.3013 18.7198 27.2445 17.2419V16.9762C27.0889 16.7433 26.8646 16.7134 26.715 16.606C26.6252 15.3998 26.4667 14.2204 26.5026 13.0052C26.9005 13.1157 26.6372 14.0025 26.715 14.8056Z" fill="#FFE2D8"/>
<path d="M21.4108 14.7011C22.9036 15.3759 24.7046 15.7312 25.9731 16.2895C26.2124 16.394 26.4936 16.4477 26.715 16.606C26.8646 16.7134 27.0889 16.7433 27.2445 16.9762V17.2419L22.8408 15.4416C22.6015 16.2507 20.0915 14.7489 18.4371 14.3816C18.8201 14.0831 19.3227 14.301 19.7116 14.0114C19.8821 13.886 21.689 10.9869 22.1527 10.5689C24.2648 12.5544 24.2529 12.014 22.5237 14.1697C20.3398 14.2115 19.8163 13.9786 21.4108 14.6981V14.7011Z" fill="#5E6184"/>
<path d="M21.4108 14.7011C22.9036 15.3759 24.7046 15.7312 25.9731 16.2895C27.2176 15.979 21.8237 13.9129 21.4108 14.7011Z" fill="#2B283F"/>
<path d="M17.6952 24.2314C22.1827 24.6852 27.7381 25.0166 32.073 25.9242C32.6354 26.0407 33.3474 26.5751 33.9308 26.2407C34.1342 26.3064 34.3676 26.381 34.568 26.4527C35.4087 26.8319 39.7495 28.5009 38.8132 29.7339C38.8072 29.7429 38.6396 29.8116 38.6007 29.8384C35.6749 30.4565 32.6384 30.8088 29.6348 30.6864C29.557 30.6834 29.6049 30.9043 29.5301 30.8984C29.4404 30.8894 28.9497 30.1161 28.7343 30.4206C29.0395 32.0986 29.2339 33.8363 29.584 35.5023C29.6079 35.6187 29.9489 35.4903 30.0088 35.6068C30.2032 38.2132 30.7746 40.8227 31.4956 43.3367C31.7768 44.3189 32.4888 45.7461 32.4499 46.6716C30.7746 42.7395 29.5331 39.0373 28.1001 35.0245C27.1039 32.2329 26.2662 29.3816 25.0756 26.6587L19.1342 25.8108C18.3235 26.1392 16.5464 27.432 15.8972 27.5037C16.2263 26.9961 18.0901 26.2765 17.6473 26.0198C16.0977 26.2168 12.1098 24.9628 11.8107 24.9599C11.1046 24.9599 11.1675 26.187 11.0149 26.6527C10.6021 27.9067 10.2969 29.2324 9.84816 30.4654C9.37548 31.7642 8.62458 32.9734 8.1519 34.2781C8.48398 32.012 8.64253 29.722 8.89383 27.4469C7.72111 28.8651 7.6882 32.9943 7.8318 35.0186C6.95525 37.425 6.03084 39.8165 5.49833 42.3245C5.256 42.1484 5.53423 41.4975 5.60303 41.0526C6.09067 38.0102 5.615 34.9171 6.02784 31.8388C6.14751 32.024 5.71971 36.0576 6.34496 35.0693C6.49454 34.8335 7.30527 29.8414 7.29929 29.5638C7.27236 27.9754 6.69199 31.2298 6.34496 30.4624C6.47659 29.8474 6.75182 29.2533 6.55736 29.0861C4.39441 28.7128 -2.17521 25.3838 1.57031 23.685C2.41096 23.3028 3.52385 23.2192 4.4363 23.1565C8.2955 22.8848 13.6775 23.8074 17.6982 24.2164L17.6952 24.2314Z" fill="#0A1517"/>
<path d="M16.9533 16.606C16.7738 17.3315 16.7169 18.0898 16.6362 18.8303C15.4335 19.0154 14.213 18.5228 13.0283 18.5138L16.3161 14.4891C18.2367 14.94 19.9419 16.2537 19.4453 16.606L16.8994 16.394L16.9533 16.606Z" fill="#B550FF"/>
<path d="M14.8322 14.2771C15.2331 14.2891 15.9272 14.3966 16.3191 14.4891L13.0313 18.5138C12.5945 18.5108 12.1876 18.5556 11.7568 18.6183C12.3851 17.4987 14.183 13.5785 14.8352 14.2771H14.8322Z" fill="#E2B1FF"/>
<path d="M27.8817 21.3711C28.0313 21.5234 28.1629 21.6219 28.3065 21.7951L27.8817 21.8996C27.2236 21.1561 25.1653 20.547 24.1691 20.4157L26.4517 20.6277V20.4157C24.5849 20.132 21.4736 18.2093 21.9433 19.4632C21.9403 19.4513 21.7489 19.3946 21.7309 19.305C21.6202 18.7258 21.8386 18.4511 21.8356 18.4063C22.9695 18.6153 26.1615 19.6663 26.9812 20.0992C28.4322 20.8665 27.1907 20.6665 27.8817 21.3711Z" fill="#0A1517"/>
<path d="M30.2152 25.1838C28.0732 25.0733 25.9671 24.6195 23.849 24.3359C22.8648 23.9477 21.1057 24.3508 21.7279 22.6937C21.8955 22.2459 27.4928 23.5417 28.148 23.8044C28.7313 24.0403 29.8801 24.6613 30.2182 25.1808L30.2152 25.1838Z" fill="#5D2B6F"/>
<path d="M24.1691 20.4187C25.1653 20.55 27.2266 21.1591 27.8817 21.9025C28.0104 22.0459 28.1689 22.5415 28.5189 22.8012L28.3604 22.9595C27.5826 22.6519 26.7359 22.3773 25.9192 22.219C23.7712 21.798 21.2941 21.9354 21.8356 20.9471C22.6194 20.2545 23.2118 20.2933 24.1691 20.4187Z" fill="#5D2B6F"/>
<path d="M23.849 24.3359C25.9671 24.6195 28.0732 25.0733 30.2152 25.1838C30.4485 25.2047 30.7477 25.351 30.9571 25.3958C31.0828 25.4226 31.1486 25.4137 31.2742 25.5003C32.1717 25.6854 33.0543 25.966 33.9278 26.2407C33.3474 26.5721 32.6324 26.0407 32.07 25.9242C27.7351 25.0166 22.1827 24.6852 17.6922 24.2314V23.7029C19.7445 23.9179 21.7967 24.0642 23.846 24.3388L23.849 24.3359Z" fill="#644BCC"/>
<path d="M24.1691 20.4187C23.2088 20.2933 22.6194 20.2574 21.8356 20.9471C21.4467 21.2905 21.7578 21.5144 21.4108 21.4756C21.4138 21.2128 21.719 20.7471 21.3061 19.7827C21.3929 19.8066 21.4617 19.6125 21.5724 19.6782C21.8267 19.8275 22.3352 21.1412 21.9433 19.4662C21.4736 18.2123 24.5849 20.138 26.4517 20.4187V20.6306L24.1691 20.4187Z" fill="#211D2B"/>
<path d="M10.7995 22.855C11.2213 22.4728 12.1158 21.9832 12.6573 21.9025C13.5518 21.7682 15.2062 22.1175 15.1493 21.798C15.3498 21.8428 16.1485 22.0041 16.2114 22.1683C16.2323 22.222 16.0468 23.2282 15.9451 23.2789C15.7148 23.3984 11.4965 22.8998 10.7995 22.855Z" fill="#954EA4"/>
<path d="M15.1493 21.7951C15.2032 22.1145 13.5488 21.7652 12.6573 21.8996C12.1158 21.9802 11.2213 22.4698 10.7995 22.852C10.5183 22.8341 10.2311 22.8639 9.94988 22.852C9.6208 22.8341 9.32762 22.7594 8.99554 22.7475C8.65151 22.7654 8.81006 22.643 9.04939 22.5355C10.6409 21.8189 13.4351 21.4099 15.1493 21.7951Z" fill="#AB93DF"/>
<path d="M13.0283 18.5108C14.213 18.5228 15.4335 19.0154 16.6362 18.8273C16.6212 18.9646 16.6511 19.1109 16.6362 19.2513C15.8793 19.102 14.8651 19.6095 14.7275 20.4157C14.6138 21.0755 15.4635 21.183 15.6818 20.6277C15.7955 20.338 15.619 19.2304 16.5315 19.9917C16.4956 20.4873 16.2024 23.2491 16.4776 23.3804C17.4828 22.9296 20.986 23.7148 21.2523 23.5924C21.5245 23.3207 21.3989 22.3295 21.4108 21.4756C21.7578 21.5144 21.4467 21.2905 21.8356 20.9471C21.2941 21.9324 23.7742 21.798 25.9192 22.219C26.7359 22.3802 27.5826 22.6519 28.3604 22.9595L28.5189 22.8012C28.1689 22.5415 28.0104 22.0459 27.8817 21.9025L28.3065 21.798C28.7463 22.3265 29.7934 23.4611 29.3686 23.7566C29.925 24.0731 30.634 24.8255 30.9601 25.3988C30.7477 25.354 30.4515 25.2077 30.2182 25.1868C29.8831 24.6673 28.7313 24.0462 28.148 23.8104C27.4928 23.5447 21.8955 22.2489 21.7279 22.6997C21.1087 24.3538 22.8677 23.9537 23.849 24.3418C21.7997 24.0671 19.7475 23.9238 17.6952 23.7059C15.1344 23.4372 12.5197 22.9983 9.94988 22.858C10.2311 22.8699 10.5183 22.84 10.7995 22.858C11.4965 22.9027 15.7148 23.3984 15.9451 23.2819C16.0438 23.2312 16.2293 22.225 16.2114 22.1712C16.1515 22.0041 15.3528 21.8458 15.1493 21.801C13.4351 21.4159 10.6409 21.8249 9.04939 22.5415C8.81306 22.649 8.6545 22.7714 8.99555 22.7535C8.66647 22.7385 7.78393 22.7535 7.29929 22.7535C8.475 21.3353 9.36651 19.2901 11.2243 18.7288C11.332 18.6959 11.6222 18.6422 11.7538 18.6243C12.1846 18.5586 12.5885 18.5138 13.0283 18.5198V18.5108Z" fill="#16191E"/>
<path d="M12.2325 18.9348C12.6453 18.9169 14.9968 19.1468 15.0985 19.2513C14.4104 20.771 11.9273 19.5827 8.89084 20.9979C9.82423 19.5767 10.4884 19.0094 12.2325 18.9318V18.9348Z" fill="#ECB853"/>
<path d="M11.8077 20.5232C12.3701 20.4784 14.5001 20.3201 14.5121 20.8934C14.5301 21.6756 12.7171 21.2517 11.2752 21.4756C10.3777 21.6129 7.79889 22.7564 7.72111 22.5863C8.41816 21.0755 10.258 20.6486 11.8047 20.5202L11.8077 20.5232Z" fill="#AB93DF"/>
<path d="M16.6362 19.2542C16.6122 19.4901 16.5464 19.7797 16.5315 19.9947C15.619 19.2334 15.7985 20.341 15.6818 20.6306C15.1822 20.7919 15.1404 20.5411 14.7275 20.4187C14.8681 19.6125 15.8793 19.105 16.6362 19.2542Z" fill="#FFCFAF"/>
<path d="M15.6818 20.6306C15.4635 21.186 14.6138 21.0785 14.7275 20.4187C15.1404 20.5411 15.1852 20.7919 15.6818 20.6306Z" fill="#F28BC8"/>
<path d="M21.8356 17.3464C21.8536 17.6957 21.8326 18.054 21.8356 18.4063C21.8356 18.4511 21.6172 18.7288 21.7309 19.305C21.7489 19.3946 21.9403 19.4513 21.9433 19.4632C22.3352 21.1382 21.8267 19.8245 21.5724 19.6752C21.4617 19.6095 21.3929 19.8036 21.3061 19.7797C21.0937 19.723 20.8843 19.6961 20.6689 19.6752C21.1176 19.105 20.7257 18.2481 20.986 17.5584C21.4497 17.5315 21.4677 17.6778 21.6771 17.1344L21.8356 17.3464Z" fill="#F28BC8"/>
<path d="M21.8356 17.3464L21.6771 17.1344C21.4677 17.6778 21.4497 17.5315 20.986 17.5584C20.4864 17.5882 17.785 17.0687 17.5905 17.5046L17.5367 19.4632C17.6653 19.5528 20.2381 19.6275 20.6659 19.6752C20.8813 19.6991 21.0907 19.723 21.3031 19.7797C21.716 20.7471 21.4138 21.2099 21.4078 21.4726C21.3959 22.3265 21.5215 23.3177 21.2493 23.5894C20.983 23.7119 17.4798 22.9266 16.4746 23.3775C16.1994 23.2461 16.4926 20.4843 16.5285 19.9887C16.5434 19.7738 16.6092 19.4841 16.6332 19.2483C16.6481 19.1109 16.6182 18.9646 16.6332 18.8243C16.714 18.0839 16.7738 17.3255 16.9503 16.6C17.6503 16.7045 21.7399 16.7463 21.9373 16.9702C21.9912 17.3972 21.8297 17.3225 21.8326 17.3404L21.8356 17.3464Z" fill="#FAB3DC"/>
<path d="M17.4319 19.9947C21.357 20.5679 20.977 19.4901 20.6689 22.8012L17.2195 22.431L17.4319 19.9947Z" fill="#191110"/>
<path d="M18.1739 20.5232C20.2082 20.971 20.5014 20.2037 20.3488 22.1653C18.6705 22.3086 17.3721 22.6609 18.1739 20.5232Z" fill="#5D2B6F"/>
<path d="M20.986 17.5584C20.7257 18.2481 21.1176 19.108 20.6689 19.6752C20.2411 19.6275 17.6683 19.5528 17.5396 19.4632L17.5935 17.5046C17.788 17.0658 20.4894 17.5882 20.989 17.5584H20.986Z" fill="#16191E"/>
<path d="M19.553 17.9824C20.6809 17.7554 20.3877 18.672 20.1902 19.4662C16.0947 19.7409 19.2838 18.0391 19.553 17.9824Z" fill="#5D2B6F"/>
<path d="M20.3488 62.8808C20.3488 62.8808 20.274 63.0271 20.2441 63.0928C19.6458 64.4214 20.9561 63.7885 22.1527 63.5168C22.0869 64.1557 22.5626 63.5765 22.6823 63.8333C21.4318 64.0661 19.2479 64.932 18.5987 64.9977C16.8546 65.0275 15.0925 64.7708 13.4531 64.1497C13.7463 64.1945 14.7006 64.3677 14.3027 63.9378C14.6408 64.0184 16.0678 64.3558 16.2652 64.2542C16.4327 64.1229 16.1396 63.9885 15.999 63.6183C15.9032 63.3615 15.7028 62.7107 15.6818 62.6659C15.7507 62.6748 15.8404 62.6509 15.8942 62.6659C15.8853 63.7168 17.0311 64.5588 18.0153 64.1497C18.2038 64.8245 20.2561 63.893 19.924 62.6659C19.9449 62.6629 19.8462 62.4778 20.3488 62.6659V62.8808Z" fill="#3E289A"/>
<path d="M5.38764 54.6195C5.48038 55.148 6.64412 57.1006 6.87448 59.0681C6.37487 59.1816 6.63515 59.5727 6.66207 59.7041L6.44967 59.9161C5.63295 57.9306 4.92393 55.9063 4.2209 53.8791C4.44826 54.0701 5.07651 54.3478 5.38764 54.6195Z" fill="#C974FF"/>
<path d="M29.0485 61.7134C29.0006 61.5851 28.8331 61.1103 28.8361 61.0775C28.857 60.758 29.584 60.2236 28.5698 60.1251C27.3253 60.5371 20.8813 62.3046 20.3458 62.8779V62.6659C20.3458 62.3852 20.3159 61.8478 20.3458 61.7672C20.4984 61.3701 27.5138 59.9041 28.4621 59.3846C29.4733 56.8916 29.2519 55.4824 31.1665 53.4551C31.3101 53.3058 31.4418 53.064 31.5913 52.9266C31.4687 54.0074 29.3895 61.4119 29.0455 61.7164L29.0485 61.7134Z" fill="#D293FF"/>
<path d="M20.7736 46.8896C20.4535 47.0568 20.8753 47.0807 20.8783 47.2061C20.9262 49.1707 20.1484 60.1967 20.5612 60.973C20.8215 61.4656 23.0203 60.8446 23.6904 60.6565C24.3785 60.4624 25.9611 60.0773 25.1234 59.8086C26.0449 59.5339 26.9962 59.2771 27.9356 59.0681L28.2018 58.8024C28.2676 58.3874 28.9587 55.8974 28.7852 55.7839C28.6715 55.9451 28.483 55.8884 28.3065 55.8884C27.6783 55.8914 27.0112 56.2974 27.0859 55.9929C28.6296 55.4047 29.94 54.5299 31.1695 53.4521C29.2549 55.4794 29.4763 56.8886 28.4651 59.3816C27.5167 59.9011 20.5014 61.3671 20.3488 61.7642C20.3189 61.8448 20.3488 62.3822 20.3488 62.6629C19.8462 62.4748 19.9449 62.6599 19.924 62.6629C19.3107 62.7554 18.7453 62.9525 18.12 62.9794C17.0311 63.0271 16.8486 62.9346 15.8913 62.6629C15.8374 62.648 15.7477 62.6718 15.6789 62.6629C15.643 62.5942 15.61 62.5196 15.5741 62.4509C16.3968 62.9286 20.2082 63.0271 20.2411 61.9732C20.2411 61.8986 20.0287 61.8269 20.0287 61.815C20.0317 59.7996 20.0766 57.7933 20.1334 55.7779C20.2052 53.3775 20.3308 50.98 20.3458 48.5765C20.3458 48.5048 20.3458 48.4362 20.3458 48.3645C20.3458 48.1227 20.3637 47.9853 20.3458 47.7286C20.3308 47.5196 20.3548 47.3046 20.3458 47.0926V46.8806C20.3667 46.8836 20.7227 46.8806 20.7706 46.8806L20.7736 46.8896Z" fill="#0A1517"/>
<path d="M28.8361 61.0805C27.9475 61.3074 26.4158 62.0658 25.7068 62.2449C25.3807 62.3285 25.1384 62.0956 24.9649 62.1404C23.5498 62.4927 21.4796 63.3257 20.2441 63.0928C20.274 63.0271 20.3428 62.8898 20.3488 62.8808C20.8813 62.3076 27.3283 60.5371 28.5728 60.1281C29.584 60.2266 28.86 60.764 28.839 61.0805H28.8361Z" fill="#B696D7"/>
<path d="M29.0485 61.7134C28.127 62.0837 27.1308 62.1941 26.1825 62.4539C24.8542 62.8181 23.493 63.2093 22.1498 63.5138C20.9531 63.7855 19.6428 64.4185 20.2411 63.0898C21.4766 63.3197 23.5468 62.4897 24.9619 62.1374C25.1354 62.0926 25.3777 62.3255 25.7038 62.2419C26.4158 62.0628 27.9445 61.3044 28.8331 61.0775C28.8331 61.1103 28.9976 61.5851 29.0455 61.7134L29.0485 61.7134Z" fill="#C974FF"/>
<path d="M14.195 63.1973C13.5428 63.5825 12.5765 62.8719 12.6035 63.4093C11.4666 63.063 9.71952 62.2568 9.20795 62.1374C8.44508 61.9613 7.8318 63.2899 6.87448 60.1251C9.27676 61.2059 11.691 62.3643 14.195 63.1973Z" fill="#FFCAFF"/>
<path d="M14.195 63.1973C14.4822 63.2929 14.7604 63.3257 15.0446 63.4093C15.4485 63.5287 15.7357 63.8183 15.999 63.6213C16.1396 63.9915 16.4327 64.1259 16.2652 64.2572C16.0648 64.3587 14.6408 64.0184 14.3027 63.9408C13.8031 63.8243 13.13 63.5735 12.6064 63.4123C12.5795 62.8749 13.5458 63.5855 14.198 63.2003L14.195 63.1973Z" fill="#B696D7"/>
<path d="M6.87448 60.1251C7.8318 63.2869 8.44508 61.9613 9.20795 62.1374C9.21992 62.3673 8.82502 62.7554 8.78314 62.8779C8.89383 62.5136 7.80487 62.7554 7.2963 62.1882C7.06295 61.9284 6.63814 60.3759 6.44667 59.9101L6.65908 59.6981C6.71293 59.9609 6.8655 60.0982 6.87149 60.1221L6.87448 60.1251Z" fill="#3E289A"/>
<path d="M6.87448 59.0681C6.86849 59.1846 6.97021 59.1308 7.08688 59.2801C7.09885 59.2951 7.03303 59.4533 7.24544 59.5966C9.59985 60.9133 14.4134 60.8476 15.0446 63.4093C14.7604 63.3257 14.4822 63.2929 14.195 63.1973C11.691 62.3673 9.27676 61.2059 6.87448 60.1251C6.86849 60.1012 6.71592 59.9668 6.66207 59.7011C6.63515 59.5697 6.37487 59.1786 6.87448 59.0652L6.87448 59.0681Z" fill="#FFE7FF"/>
<path d="M15.3617 62.0329C15.4485 62.1523 15.4934 62.3106 15.5741 62.4569C15.61 62.5255 15.6459 62.6002 15.6789 62.6689C15.7028 62.7136 15.9002 63.3675 15.996 63.6213C15.7327 63.8183 15.4455 63.5317 15.0416 63.4093C14.4134 60.8506 9.59686 60.9133 7.24245 59.5966C7.03004 59.4533 7.09287 59.2921 7.08389 59.2801C9.57891 60.3311 12.2774 60.7939 14.8831 61.5044C15.1404 61.6358 15.2062 61.8179 15.3617 62.0329Z" fill="#E2B1FF"/>
<path d="M18.12 62.9853C18.5329 63.4571 18.6854 63.8691 18.0153 64.1497C17.0311 64.5618 15.8823 63.7168 15.8942 62.6659C16.8516 62.9376 17.0341 63.0301 18.123 62.9823L18.12 62.9853Z" fill="#FFE7FF"/>
<path d="M19.924 62.6689C20.2561 63.896 18.2038 64.8275 18.0153 64.1527C18.6884 63.8721 18.5329 63.4601 18.12 62.9883C18.7453 62.9615 19.3107 62.7614 19.924 62.6718V62.6689Z" fill="#C974FF"/>
<path d="M10.0576 30.4774C10.0815 32.9764 9.00751 37.9774 8.25362 40.4316C8.24165 40.4704 8.13994 40.554 7.93651 41.172C7.93052 41.1929 7.53264 41.1273 7.88266 41.384C7.93352 41.4228 8.84297 41.6945 9.10324 41.808C8.75921 42.0558 7.82582 42.1185 7.82881 42.4439C6.49454 42.1752 7.80188 42.6111 8.25362 42.7604C7.95147 43.8353 7.22151 42.1394 6.13255 43.2381C6.59925 43.5128 7.44289 43.477 7.40699 43.8203C6.30607 43.9039 4.11619 45.149 6.98218 44.1368C7.42195 44.5488 8.46603 44.713 9.10324 44.8773L9.20795 45.6177C7.96942 45.3848 6.71293 45.2684 5.49533 44.928L6.02485 50.8038C5.58808 51.3054 5.01667 51.4069 4.96282 51.4398C4.60682 50.2365 4.5081 48.6511 4.2209 47.5226C4.1132 47.1016 4.01747 47.1195 4.00849 47.0986C3.94866 46.9523 4.10423 46.6925 3.84994 46.5701C2.81782 47.7166 1.91734 49.3349 2.31224 50.9113C1.6092 47.9197 4.14312 46.1133 5.49533 42.3335C6.02785 39.8255 6.95226 37.434 7.82881 35.0275C7.91557 34.7857 8.05617 34.5349 8.14592 34.2871C8.6186 32.9824 9.3695 31.7761 9.84218 30.4744C9.91098 30.4654 10.0037 30.4893 10.0546 30.4744L10.0576 30.4774Z" fill="#FDF7FF"/>
<path d="M15.5741 48.3735C15.5382 52.6271 15.5033 56.8806 15.4694 61.1342C15.8224 61.5761 16.1785 61.4776 16.2114 61.5044C16.3609 61.6239 16.5345 61.6955 16.6362 61.8209C16.6661 61.8597 16.7349 61.9822 16.7409 62.0329C15.9152 61.7941 15.3169 61.1432 15.6789 61.9284C15.6639 61.9254 15.4066 62.0359 15.3617 62.0329C15.2062 61.8179 15.1433 61.6358 14.8831 61.5044C12.2774 60.7968 9.57891 60.3341 7.08389 59.2801C6.96722 59.1308 6.8655 59.1876 6.87149 59.0681C6.64412 57.1006 5.48038 55.148 5.38464 54.6195C5.33678 54.3508 5.19617 54.2164 5.59705 54.1955C6.23128 54.6732 8.50791 56.6348 9.25881 56.3124C9.43232 56.2377 9.17504 56.0377 9.20496 55.9959C9.79132 55.1659 9.53703 55.6197 10.7965 55.7302C10.7068 54.6762 11.0508 53.5357 10.4794 52.6072C10.7935 52.9863 10.9132 52.9505 11.0089 53.6671C11.5055 57.3036 10.0157 55.3928 9.57592 55.6794C10.1473 57.6291 9.60285 56.8946 6.70994 56.6318C6.55138 56.7244 6.98816 58.1306 7.0809 58.3247C7.10483 58.3755 7.14372 58.7935 7.55956 59.0652C8.53783 59.3458 14.5001 61.0835 14.8801 61.0775C15.0656 61.0745 15.1284 61.0894 15.251 60.9193C15.3109 60.6147 15.1404 60.5102 15.1463 60.4416C15.1643 60.0922 15.1404 59.7339 15.1463 59.3816C15.2211 59.3816 15.3288 59.4085 15.3587 59.3279C15.5861 58.674 15.0925 50.1052 15.254 48.3167C15.619 47.9256 15.5502 48.3585 15.5712 48.3705L15.5741 48.3735Z" fill="#16191E"/>
<path d="M32.1269 52.8191C31.8307 54.0522 29.9459 61.6806 29.6857 62.0837C29.6079 62.2061 29.4134 62.3255 29.3147 62.4539C29.1591 62.5285 27.6364 62.645 27.1398 62.7704C26.7389 62.5076 26.4218 62.9525 26.1855 62.4539C27.1338 62.1941 28.13 62.0837 29.0515 61.7134C29.3955 61.4089 31.4747 54.0044 31.5973 52.9236C31.8307 52.7087 31.9025 52.4758 32.1269 52.8191Z" fill="#3E289A"/>
<path d="M38.5978 29.8414C38.4422 29.9549 38.2417 30.0982 38.0682 30.1579C36.6412 30.6505 31.5614 30.8386 29.6857 30.9521C29.943 36.6398 30.996 42.1872 33.1859 47.4181C32.5487 47.0837 32.8119 47.4031 32.7611 47.4181C32.5247 47.2628 32.5367 46.8986 32.444 46.6776C32.4799 45.7521 31.7708 44.3219 31.4896 43.3426C30.7687 40.8287 30.1972 38.2192 30.0028 35.6127C29.943 35.4933 29.6019 35.6217 29.578 35.5082C29.228 33.8422 29.0335 32.1016 28.7284 30.4266C28.9438 30.1221 29.4344 30.8954 29.5241 30.9043C29.5989 30.9103 29.554 30.6894 29.6288 30.6923C32.6294 30.8148 35.6689 30.4625 38.5948 29.8444L38.5978 29.8414Z" fill="#0A1517"/>
<path d="M26.715 41.808L27.3522 42.6559C26.9244 42.647 21.1745 44.7787 20.7198 45.0922C20.3787 45.3281 20.6689 45.3132 21.0369 45.1967C21.9373 44.9161 27.0321 42.6798 27.5078 42.7604C27.5496 42.7664 28.0941 43.3008 28.0911 43.3426C28.0493 43.7576 21.1625 45.6923 20.292 46.2537C21.3211 46.1223 22.5506 45.558 23.6336 45.1937C24.4234 46.1432 23.5229 45.9342 23.7383 46.2537C22.7481 46.4477 21.692 46.8657 20.7676 46.8896C20.7198 46.8896 20.3637 46.8926 20.3428 46.8896C18.9786 46.6836 19.8941 46.6209 19.547 46.3611C19.3346 46.2029 18.7393 46.6209 18.3264 46.6776C18.6047 46.1581 18.9278 45.6834 19.3885 45.3012C21.0069 43.9607 24.5939 42.7664 26.6043 41.808C26.6342 41.7931 26.6821 41.8229 26.709 41.808H26.715Z" fill="#B1ABD7"/>
<path d="M17.6952 46.0447C18.0841 46.5821 17.773 46.7582 18.3324 46.6806C18.7453 46.6209 19.3406 46.2059 19.553 46.3641C19.9 46.6239 18.9846 46.6866 20.3488 46.8926V47.1046C19.6697 47.006 20.0795 47.4658 19.3406 47.633C17.6055 48.0271 15.5622 46.8777 15.4694 47.0508C14.8412 48.2272 17.3661 48.4959 18.3863 48.3735C18.491 48.3615 19.7505 47.8838 20.3488 47.7375C20.3667 47.9943 20.3488 48.1316 20.3488 48.3735L18.5987 48.9019L18.3324 49.0602C18.4401 49.1378 18.4581 49.1945 18.4371 49.3259C17.7909 49.1647 16.696 49.0602 16.1037 48.7974C16.0737 48.7825 15.9182 48.5466 15.5741 48.3735C15.5502 48.3615 15.622 47.9286 15.257 48.3197C15.0985 50.1082 15.5921 58.68 15.3617 59.3309C15.3348 59.4115 15.2241 59.3846 15.1493 59.3846C15.1493 59.2801 15.1493 59.1726 15.1493 59.0681C15.1912 55.2345 15.0177 51.4099 15.0446 47.5793L14.8322 47.5255C12.1637 46.5283 9.3695 45.9282 6.55736 45.5132C6.52146 45.5072 6.48557 45.5162 6.45266 45.5132C6.42573 45.5102 6.04879 45.355 5.974 45.3012L5.81544 45.4595L6.34496 50.5411C6.51548 50.7769 6.51249 50.6097 6.76977 50.5948C7.89163 50.5232 7.84377 49.5498 9.21094 51.0188C9.06734 50.983 9.00751 51.0785 8.89383 51.1233C7.93651 50.3709 7.67624 50.8068 6.87747 51.1233L6.02784 50.8068L5.49833 44.931C6.71592 45.2684 7.97241 45.3878 9.21094 45.6207C10.1114 45.7879 11.0269 45.9282 11.9154 46.1492C13.1419 46.4567 15.3647 47.5405 15.1523 46.7851C18.5209 47.2867 17.8239 46.8508 17.061 45.6207C16.5554 44.8056 15.4276 43.3605 14.6198 42.8679C14.7485 42.8798 14.7215 42.7664 14.7245 42.7634C16.0139 43.6024 16.8217 44.8355 17.6952 46.0447Z" fill="#0A1517"/>
<path d="M26.715 55.1509L26.7688 56.4228L28.3065 55.8944C28.48 55.8944 28.6685 55.9481 28.7852 55.7899C28.9587 55.9033 28.2676 58.3934 28.2018 58.8084L27.9356 59.0741C26.9962 59.2831 26.0449 59.5429 25.1234 59.8146C23.6157 60.2624 22.1049 60.6834 20.5612 60.979C20.1513 60.2057 20.9262 49.1796 20.8783 47.2121C22.9336 46.8657 24.932 46.2268 26.9782 45.8357C28.13 45.6147 29.8652 45.6087 30.5323 45.0952C30.3229 46.7881 30.1225 48.472 29.6827 50.1261C29.5181 50.2724 27.7531 49.1886 25.5453 50.8665C25.5034 51.5741 24.196 55.6734 25.3867 55.6854C25.7008 55.6854 26.3051 55.0375 26.712 55.1569L26.715 55.1509Z" fill="#5D2B6F"/>
<path d="M30.7477 44.6653C30.6789 44.6951 30.5383 45.0654 30.5353 45.0892C29.8682 45.6058 28.133 45.6117 26.9812 45.8297C24.935 46.2208 22.9366 46.8597 20.8813 47.2061C20.8783 47.0777 20.4565 47.0538 20.7766 46.8896C21.701 46.8657 22.7571 46.4507 23.7473 46.2537C25.6141 45.8864 27.5167 45.5878 29.3716 45.1937C30.8853 44.8743 30.4515 45.0863 30.3259 44.4533C30.5772 44.4294 30.7298 44.6563 30.7507 44.6653H30.7477Z" fill="#11153B"/>
<path d="M20.5612 60.973C22.1049 60.6774 23.6186 60.2564 25.1234 59.8086C25.9611 60.0743 24.3815 60.4624 23.6904 60.6565C23.0203 60.8446 20.8215 61.4656 20.5612 60.973Z" fill="#221721"/>
<path d="M28.0941 35.0305C28.1689 37.3892 29.6139 39.7927 29.581 42.1245C29.1591 40.8645 26.8227 34.6931 26.3979 34.0244C23.6665 29.713 14.4224 29.1308 10.0576 30.4774C10.0067 30.4923 9.91398 30.4684 9.84517 30.4774C10.2939 29.2443 10.5991 27.9216 11.0119 26.6647C12.2684 27.014 14.3925 26.9543 15.8404 26.8767C16.1306 27.0289 15.1463 27.5962 15.8942 27.5126C16.5434 27.438 18.3205 26.1482 19.1312 25.8197L25.0726 26.6677C26.2632 29.3876 27.0979 32.2419 28.0971 35.0335L28.0941 35.0305Z" fill="url(#paint0_linear_3165_11089)"/>
<path d="M15.8913 27.5126C15.1433 27.5962 16.1276 27.0319 15.8374 26.8767C14.3895 26.9543 12.2654 27.017 11.0089 26.6647C11.1615 26.1989 11.0987 24.9688 11.8047 24.9718C12.1009 24.9718 16.0887 26.2258 17.6414 26.0317C18.0841 26.2885 16.2203 27.005 15.8913 27.5156V27.5126Z" fill="#945EB2"/>
<path d="M32.444 46.6776C32.5397 46.8986 32.5247 47.2628 32.7611 47.4181C32.6863 47.442 33.0094 47.7883 32.2316 47.3136C31.8606 45.6953 31.5136 45.6595 31.3819 44.931C31.2383 44.719 31.0768 44.7847 31.0648 44.7728C30.9481 44.6742 30.8165 44.6951 30.7477 44.6683C30.7268 44.6593 30.5742 44.4324 30.3229 44.4563C30.1703 43.683 29.8323 42.8769 29.581 42.1275C29.6139 39.7957 28.1719 37.3892 28.0941 35.0335C29.5271 39.0462 30.7716 42.7485 32.444 46.6806V46.6776Z" fill="#D293FF"/>
<path d="M8.25362 42.7604C9.58789 43.2083 11.0149 43.6113 12.391 43.9248C13.5877 44.4055 14.6647 45.2236 14.8322 44.5608C15.1852 44.7668 15.8494 45.1251 15.7866 44.9847C16.2413 45.34 16.6481 46.0118 17.061 45.6207C17.8239 46.8508 18.5209 47.2867 15.1523 46.7851C13.2556 45.773 11.1555 45.4087 9.10324 44.8802C8.46603 44.716 7.42195 44.5488 6.98218 44.1398C9.77038 44.2234 13.7971 45.8745 10.5362 44.4563C9.57592 44.3398 8.35534 43.7487 7.40699 43.8203C7.44289 43.477 6.60224 43.5128 6.13255 43.2381C7.22151 42.1394 7.95147 43.8382 8.25362 42.7604Z" fill="#B1ABD7"/>
<path d="M11.4367 41.384C11.4218 41.8617 14.0125 42.4947 14.6198 42.8679C15.4246 43.3605 16.5554 44.8056 17.061 45.6207C16.6511 46.0118 16.2413 45.34 15.7866 44.9847C12.8877 42.7127 11.2782 42.4768 7.93651 41.172C8.14293 40.554 8.24165 40.4704 8.25362 40.4316L11.4367 41.384Z" fill="#E0CAC6"/>
<path d="M14.8322 44.5608C14.6647 45.2236 13.5877 44.4055 12.391 43.9248C10.7845 43.2799 9.56096 42.7903 7.82881 42.4409C7.82282 42.1155 8.75621 42.0558 9.10324 41.805C11.0837 42.6738 12.9595 43.4621 14.8322 44.5578V44.5608Z" fill="#D0BCC8"/>
<path d="M15.1493 46.7851C15.3647 47.5405 13.139 46.4567 11.9124 46.1492C11.0239 45.9282 10.1084 45.7879 9.20795 45.6207L9.10324 44.8802C11.1525 45.4087 13.2556 45.773 15.1523 46.7851H15.1493Z" fill="#E0CAC6"/>
<path d="M7.93651 41.172C11.2782 42.4768 12.8906 42.7127 15.7866 44.9847C15.8494 45.1251 15.1852 44.7668 14.8322 44.5608C12.9565 43.465 11.0837 42.6768 9.10324 41.808C8.84297 41.6945 7.93651 41.4228 7.88266 41.384C7.52964 41.1273 7.92753 41.1929 7.93651 41.172Z" fill="#0D0E03"/>
<path d="M6.97918 44.1368C4.1132 45.149 6.30308 43.9039 7.404 43.8203C8.35234 43.7487 9.57293 44.3398 10.5332 44.4563C13.7941 45.8715 9.76739 44.2234 6.97918 44.1398V44.1368Z" fill="#0D0E03"/>
<path d="M7.82881 42.4439C9.56096 42.7903 10.7845 43.2829 12.391 43.9278C11.0149 43.6113 9.58789 43.2113 8.25362 42.7634C7.80188 42.6111 6.49454 42.1782 7.82881 42.4469V42.4439Z" fill="#0D0E03"/>
<path d="M4.75341 53.3506C4.98077 53.5476 5.48038 54.106 5.60303 54.1985C5.20215 54.2194 5.34276 54.3538 5.39063 54.6225C5.0795 54.3508 4.45125 54.0731 4.22389 53.882C3.7572 53.4879 3.44906 52.8729 2.94946 52.5056C2.93749 52.4519 2.94048 52.3534 2.94946 52.2937C2.96142 52.216 2.96142 52.1772 3.05416 52.1892C3.45205 52.646 4.67264 53.2879 4.75042 53.3536L4.75341 53.3506Z" fill="#3B0E4C"/>
<path d="M2.84176 51.7622C2.92253 51.8876 2.9674 52.0847 3.05416 52.1862C2.95843 52.1742 2.96142 52.216 2.94946 52.2907C2.51567 51.8757 2.44088 51.4607 2.31224 50.9143C2.3242 50.9621 2.74602 51.6099 2.84176 51.7622Z" fill="#7D348C"/>
<path d="M7.404 51.5502C9.82423 51.9981 10.273 51.8996 7.67025 52.8221L10.0037 52.7176C11.0149 55.145 9.56695 53.4252 8.04121 54.2523C8.00531 54.4613 8.18182 54.3448 8.25362 54.518C8.43312 54.942 8.56176 54.8822 8.67843 55.0464C8.87588 55.3271 9.03743 55.6973 9.20795 55.9989C9.17803 56.0407 9.43232 56.2437 9.2618 56.3154C8.5109 56.6378 6.23726 54.6762 5.60004 54.1985C5.48038 54.1089 4.97778 53.5476 4.75042 53.3506C4.45125 52.9923 4.57092 53.0789 4.85512 52.8221C5.26199 52.4549 6.80567 51.7652 7.401 51.5502H7.404Z" fill="#7569E7"/>
<path d="M6.87448 51.1263C6.49155 51.2785 6.16546 51.4427 5.81245 51.6547C5.48337 51.2994 4.81923 51.8159 5.17523 52.0787C4.73546 52.4131 4.27176 52.3832 4.85812 52.8191C4.57092 53.0789 4.45425 52.9893 4.75341 53.3476C4.67563 53.2789 3.45504 52.64 3.05715 52.1832C2.9704 52.0817 2.92552 51.8846 2.84475 51.7592C3.12895 51.8339 3.27255 51.9264 3.58667 51.9712C4.4363 52.0936 4.17303 51.7503 4.6487 51.5472C4.7564 51.4995 4.57092 51.6906 4.96582 51.4427C5.01667 51.4099 5.58808 51.3084 6.02784 50.8068L6.87747 51.1233L6.87448 51.1263Z" fill="#C974FF"/>
<path d="M4.00849 47.1016C2.47678 49.0244 3.24264 49.938 3.47897 50.9143C3.49094 50.965 3.44008 51.3114 3.58368 51.9742C3.26956 51.9294 3.12596 51.8368 2.84176 51.7622C2.74602 51.6099 2.3242 50.965 2.31224 50.9143C1.92033 49.3378 2.81782 47.7196 3.84994 46.5731C4.10423 46.6955 3.94866 46.9553 4.00849 47.1016Z" fill="#C974FF"/>
<path d="M4.96582 51.4427C4.57092 51.6935 4.7564 51.5025 4.6487 51.5472C4.1491 51.3771 4.04439 51.1442 4.01148 51.1233C3.57471 50.2186 3.84096 48.4989 4.22389 47.5226C4.51109 48.6511 4.6128 50.2365 4.96582 51.4398V51.4427Z" fill="#2C1338"/>
<path d="M4.2209 47.5255C3.83797 48.5019 3.57171 50.2216 4.00849 51.1263C3.98456 51.1113 3.73027 51.0874 3.47897 50.9143C3.24264 49.938 2.47678 49.0244 4.00849 47.1016C4.01747 47.1225 4.1132 47.1016 4.2209 47.5255Z" fill="#C974FF"/>
<path d="M9.20795 51.0188C9.45327 51.2815 9.69559 51.2099 9.73747 51.2845C9.77636 51.3502 9.80927 52.1772 9.84218 52.2369C9.96783 52.4489 10.261 52.3474 10.4794 52.6072C11.0508 53.5387 10.7098 54.6762 10.7965 55.7302C9.53703 55.6167 9.79132 55.1629 9.20496 55.9959C9.03444 55.6943 8.87289 55.3241 8.67544 55.0435C11.6102 55.6107 10.4674 54.2314 8.25063 54.515C8.17883 54.3448 8.00232 54.4583 8.03822 54.2493C9.56396 53.4222 11.0119 55.142 10.0007 52.7146L7.66726 52.8191C10.27 51.8966 9.82423 51.9981 7.401 51.5472C7.89462 51.3711 8.39123 51.3173 8.88785 51.1233C9.00153 51.0785 9.06136 50.983 9.20496 51.0188H9.20795Z" fill="#211D2B"/>
<path d="M8.89084 51.1263C8.39722 51.3203 7.90061 51.3711 7.404 51.5502C6.80866 51.7622 5.26498 52.4519 4.85812 52.8221C4.27475 52.3862 4.73845 52.4161 5.17523 52.0817C5.31883 51.9742 5.64492 51.7592 5.81245 51.6577C6.16247 51.4427 6.49155 51.2815 6.87448 51.1292C7.67324 50.8128 7.93351 50.3769 8.89084 51.1292V51.1263Z" fill="#E2B1FF"/>
<path d="M8.67843 55.0435C8.56176 54.8792 8.43312 54.939 8.25362 54.515C10.4674 54.2314 11.6132 55.6137 8.67843 55.0435Z" fill="#E9A2FF"/>
<path d="M4.00849 51.1263C4.0414 51.1442 4.14611 51.38 4.64571 51.5502C4.17303 51.7503 4.4333 52.0966 3.58368 51.9742C3.43709 51.3114 3.49094 50.968 3.47897 50.9143C3.73027 51.0845 3.98456 51.1113 4.00849 51.1263Z" fill="#E2B1FF"/>
<path d="M5.81245 51.6547C5.64791 51.7562 5.31883 51.9712 5.17523 52.0787C4.81923 51.8159 5.48038 51.3024 5.81245 51.6547Z" fill="#4A4A68"/>
<path d="M32.2316 47.3136C32.2316 47.3136 31.9713 47.2449 32.0191 47.4718C32.2944 48.063 32.4799 48.675 32.5487 49.3259C32.5606 49.4244 32.8359 49.9589 32.5487 50.1738C32.4739 50.1738 32.3841 50.2067 32.3363 50.1201C31.5884 48.7407 31.4507 45.1818 31.1695 50.5978C31.1336 50.6068 30.6939 50.8277 30.4785 50.9143C30.1464 50.971 30.1284 50.7053 30.1075 50.7023C30.4266 48.7258 30.7447 46.7493 31.0618 44.7728C31.0618 44.7728 31.2353 44.719 31.3789 44.931C31.5106 45.6595 31.8576 45.6953 32.2286 47.3136H32.2316Z" fill="#D293FF"/>
<path d="M26.5026 44.4563C24.7555 45.1161 27.4958 44.4294 29.0485 44.2443C29.2309 44.4175 29.4583 44.1756 29.3656 45.1967C27.5138 45.5879 25.6081 45.8864 23.7413 46.2566C23.5259 45.9372 24.4264 46.1492 23.6366 45.1967C24.5909 44.8773 25.5572 44.6026 26.5026 44.2443V44.4563Z" fill="#E0CAC6"/>
<path d="M27.3522 42.6559C27.8608 42.6679 28.0253 42.9664 28.3604 43.2919C31.6811 42.0498 27.424 43.895 26.5026 44.2443C25.5602 44.6056 24.5939 44.8773 23.6366 45.1967C22.5536 45.561 21.3241 46.1253 20.2949 46.2566C21.1625 45.6923 28.0522 43.7576 28.0941 43.3456C28.0971 43.3038 27.5526 42.7694 27.5108 42.7634C27.0351 42.6828 21.9373 44.9191 21.0399 45.1997C20.6689 45.3162 20.3787 45.3311 20.7227 45.0952C21.1745 44.7817 26.9274 42.65 27.3552 42.6589L27.3522 42.6559Z" fill="#181161"/>
<path d="M20.4535 42.9724C20.4565 43.0052 20.4565 43.047 20.4535 43.0769C20.4146 43.3755 19.4334 44.4324 19.3915 45.0892C19.3885 45.1579 19.3915 45.2296 19.3915 45.3012C18.9308 45.6834 18.6077 46.1581 18.3294 46.6776C17.77 46.7582 18.0811 46.5791 17.6922 46.0417C18.6047 45.2923 19.2808 43.3605 20.4505 42.9694L20.4535 42.9724Z" fill="#E0CAC6"/>
<path d="M26.6073 41.805C24.5969 42.7634 21.0099 43.9577 19.3915 45.2982C19.3915 45.2266 19.3885 45.1579 19.3915 45.0863C20.9441 43.8382 22.772 43.1008 24.5909 42.3335C25.2252 42.0677 25.9731 41.9603 26.6073 41.6975V41.805Z" fill="#0D0E03"/>
<path d="M20.3488 48.3735C20.3488 48.4451 20.3488 48.5138 20.3488 48.5855C20.2052 48.4242 19.7235 48.7138 19.7116 48.7437C19.574 49.0841 19.547 55.0763 19.4992 56.1034C19.3825 58.6979 18.5478 62.9853 20.0287 61.8209C20.0287 61.8329 20.2441 61.9045 20.2411 61.9792C20.2082 63.0331 16.3968 62.9346 15.5741 62.4569C15.4934 62.3136 15.4485 62.1523 15.3617 62.0329C15.4066 62.0329 15.6639 61.9224 15.6789 61.9284C15.9272 61.9822 17.0071 62.5255 16.7409 62.0329C16.7349 61.9822 16.6631 61.8597 16.6362 61.8209H16.7409C16.9742 61.9433 17.2554 61.8747 17.4828 61.9254C17.5277 61.9344 17.7341 62.2986 18.3324 62.0837C18.497 58.7606 18.2068 52.0249 18.4371 49.4304C18.4401 49.3946 18.4312 49.3587 18.4371 49.3259C18.4551 49.1975 18.4371 49.1378 18.3324 49.0602L18.5987 48.9019L20.3488 48.3735Z" fill="#0A1517"/>
<path d="M20.3488 48.5855C20.3338 50.9889 20.2082 53.3834 20.1364 55.7869C19.7684 55.757 20.1364 56.2168 19.4992 56.1034C19.547 55.0763 19.574 49.0841 19.7116 48.7437C19.7235 48.7138 20.2052 48.4242 20.3488 48.5855Z" fill="#4A4A68"/>
<path d="M20.1364 55.7839C20.0765 57.7962 20.0347 59.8056 20.0317 61.8209C18.5478 62.9853 19.3825 58.6979 19.5022 56.1034C20.1364 56.2168 19.7684 55.7541 20.1394 55.7869L20.1364 55.7839Z" fill="#3E289A"/>
<path d="M20.3488 47.1016C20.3578 47.3136 20.3338 47.5255 20.3488 47.7375C19.7505 47.8808 18.491 48.3615 18.3863 48.3735C17.3631 48.4959 14.8412 48.2272 15.4694 47.0508C15.5622 46.8777 17.6055 48.0271 19.3406 47.633C20.0795 47.4658 19.6667 47.006 20.3488 47.1046V47.1016Z" fill="#C2BFEF"/>
<path d="M18.4401 49.3259C18.4341 49.3617 18.4431 49.3976 18.4401 49.4304C18.0811 49.4961 17.7431 49.4871 17.3781 49.5349C17.07 49.5767 17.0101 49.3289 16.8486 49.5886C16.9682 53.6402 17.1388 57.9754 16.7439 61.8179H16.6392C16.5404 61.6896 16.3639 61.6179 16.2144 61.5015C16.1785 57.2658 16.1436 53.0301 16.1096 48.7945C16.702 49.0602 17.7969 49.1647 18.4431 49.3229L18.4401 49.3259Z" fill="#7153EE"/>
<path d="M16.1037 48.7974C16.1396 53.0331 16.1745 57.2688 16.2084 61.5044C16.1755 61.4776 15.8195 61.5731 15.4664 61.1342C15.5023 56.8806 15.5372 52.6271 15.5712 48.3735C15.9152 48.5466 16.0708 48.7825 16.1007 48.7974L16.1037 48.7974Z" fill="#FFCAFF"/>
<path d="M15.6789 61.9284C15.9272 61.9822 17.0071 62.5255 16.7409 62.0329C15.9122 61.7941 15.3169 61.1462 15.6789 61.9284Z" fill="#FFE7FF"/>
<path d="M18.4401 49.4304C18.2098 52.0249 18.5 58.7606 18.3354 62.0837C17.7371 62.2957 17.5307 61.9344 17.4858 61.9254C17.4499 57.7953 17.415 53.6661 17.3811 49.5379C17.7431 49.4871 18.0841 49.4991 18.4431 49.4334L18.4401 49.4304Z" fill="#FFBFEE"/>
<path d="M17.3781 49.5379C17.414 53.6681 17.4489 57.7972 17.4828 61.9254C17.2554 61.8747 16.9712 61.9404 16.7409 61.8209C17.1358 57.9754 16.9682 53.6432 16.8456 49.5916C17.0071 49.3349 17.067 49.5827 17.3751 49.5379H17.3781Z" fill="#3E289A"/>
<path d="M20.4535 42.9724C19.2838 43.3605 18.6077 45.2923 17.6952 46.0447C16.8217 44.8355 16.0139 43.5994 14.7245 42.7634C14.928 42.5604 19.7564 42.426 20.1872 42.5514C20.4804 42.635 20.4296 42.7515 20.4535 42.9754V42.9724Z" fill="#FDF7FF"/>
<path d="M14.8322 47.5255L15.0446 47.5793C15.0207 51.4099 15.1942 55.2345 15.1493 59.0681C13.2736 57.641 12.2744 55.5779 11.0119 53.6671C10.9132 52.9505 10.7965 52.9863 10.4824 52.6072C10.267 52.3474 9.97381 52.4489 9.84517 52.2369C9.80927 52.1772 9.77636 51.3502 9.74046 51.2845C9.69858 51.2099 9.45626 51.2845 9.21094 51.0188C7.84377 49.5498 7.89462 50.5232 6.76977 50.5948L6.45266 45.5132C6.48856 45.5162 6.52446 45.5072 6.55736 45.5132C6.6172 45.6864 6.88046 45.8745 7.03603 45.9372C7.39203 46.0775 14.0843 47.6927 14.4642 47.7375C14.6467 47.7584 14.7814 47.7226 14.8352 47.5255H14.8322Z" fill="#AB93DF"/>
<path d="M15.1493 59.0681C15.1493 59.1726 15.1493 59.2801 15.1493 59.3846C15.1434 59.7369 15.1673 60.0922 15.1493 60.4445L7.08688 58.3277C6.99414 58.1336 6.55736 56.7274 6.71592 56.6348C9.60883 56.8976 10.1503 57.632 9.5819 55.6824C10.0187 55.3958 11.5115 57.3066 11.0149 53.6701C12.2774 55.5809 13.2766 57.641 15.1523 59.0711L15.1493 59.0681Z" fill="#A153DF"/>
<path d="M15.1493 60.4445C15.1463 60.5102 15.3139 60.6147 15.254 60.9222C15.1314 61.0924 15.0656 61.0775 14.8831 61.0805C14.5031 61.0865 8.54082 59.3488 7.56255 59.0681C7.14672 58.7964 7.10782 58.3785 7.08389 58.3277L15.1463 60.4445H15.1493Z" fill="#8223AE"/>
<path d="M14.8322 47.5255C14.7784 47.7226 14.6437 47.7584 14.4613 47.7375C14.0813 47.6927 7.38904 46.0775 7.03303 45.9372C6.88046 45.8775 6.61421 45.6864 6.55437 45.5132C9.36651 45.9282 12.1607 46.5283 14.8292 47.5255H14.8322Z" fill="#E3DEFF"/>
<path d="M6.44966 45.5132L6.76678 50.5948C6.5095 50.6127 6.51249 50.7799 6.34197 50.5411L5.81245 45.4595L5.971 45.3012C6.04579 45.355 6.42274 45.5102 6.44966 45.5132Z" fill="#E3DEFF"/>
<path d="M29.581 42.1245C29.8323 42.8739 30.1703 43.68 30.3229 44.4533C30.4485 45.0863 30.8793 44.8743 29.3686 45.1937C29.4583 44.1726 29.2339 44.4115 29.0515 44.2413C28.4322 43.6591 27.2236 44.1816 26.5056 44.4533V44.2413C27.424 43.889 31.6841 42.0468 28.3634 43.2889C28.0283 42.9634 27.8638 42.6649 27.3552 42.6529L26.718 41.805C26.9244 41.7005 27.1637 41.5214 27.3552 41.381C30.4156 39.939 26.3739 40.9481 25.6051 41.2765C25.3568 41.381 23.7772 42.4618 24.5969 42.3365C22.778 43.1038 20.9501 43.8412 19.3975 45.0892C19.4363 44.4324 20.4176 43.3755 20.4595 43.0769L24.8093 41.3303C24.193 35.7799 11.6222 36.0158 11.4397 41.384L8.25661 40.4316C9.0105 37.9774 10.0845 32.9764 10.0606 30.4774C14.4254 29.1308 23.6695 29.713 26.4009 34.0243C26.8257 34.6931 29.1621 40.8675 29.584 42.1245H29.581Z" fill="#FDF7FF"/>
<path d="M27.3522 41.384C27.1607 41.5214 26.9214 41.7035 26.715 41.808C26.6881 41.8229 26.6372 41.7931 26.6103 41.808V41.7035C26.8077 41.6229 27.1787 41.4676 27.3522 41.387V41.384Z" fill="#8C30B6"/>
<path d="M23.2656 33.3377C24.1033 33.4272 22.5776 33.4093 22.787 34.2363C23.0802 35.3918 23.8251 33.9736 23.8999 33.9706C24.1871 33.9617 24.3007 35.9292 22.8378 35.6635C21.5425 35.4306 21.9822 33.1943 23.2626 33.3347L23.2656 33.3377Z" fill="#0D0E03"/>
<path d="M13.1868 33.3377C16.358 34.2722 12.7291 36.9623 12.391 34.9798C12.1577 33.6123 12.9954 34.7558 13.3992 34.6095C13.8899 34.4304 13.6176 33.5138 13.1868 33.3377Z" fill="#0A1517"/>
<path d="M27.3522 41.384C27.1787 41.4676 26.8077 41.6199 26.6103 41.7005C25.9761 41.9632 25.2281 42.0677 24.5939 42.3365C23.7742 42.4619 25.3538 41.384 25.6021 41.2765C26.3709 40.9511 30.4126 39.942 27.3522 41.381V41.384Z" fill="#D0BCC8"/>
<path d="M29.0485 44.2443C27.4958 44.4294 24.7525 45.1161 26.5026 44.4563C27.2206 44.1846 28.4292 43.6621 29.0485 44.2443Z" fill="#181161"/>
<path d="M32.5517 50.1738C32.3752 50.4157 31.4687 50.5202 31.1725 50.5978C31.4537 45.1848 31.5913 48.7407 32.3393 50.1201C32.3871 50.2067 32.4769 50.1738 32.5517 50.1738Z" fill="#805DFE"/>
<path d="M33.1859 47.421C34.0265 49.4274 35.298 50.0335 32.1239 52.8221C31.8995 52.4788 31.8277 52.7117 31.5943 52.9266C31.4448 53.064 31.3131 53.3058 31.1695 53.4551C29.937 54.5329 28.6296 55.4107 27.0859 55.9959C27.0112 56.3004 27.6783 55.8944 28.3065 55.8914L26.7688 56.4199L26.715 55.148V54.724C26.8227 54.6882 26.9244 54.6553 27.0321 54.6195C28.1031 54.2403 29.1562 53.885 30.1613 53.3476C30.652 51.5741 34.2539 51.9563 32.5487 49.3229C32.4799 48.672 32.2944 48.06 32.0191 47.4688C31.9683 47.2419 32.2345 47.3225 32.2316 47.3106C33.0094 47.7853 32.6863 47.439 32.7611 47.4151C32.8089 47.4002 32.5487 47.0807 33.1859 47.4151V47.421Z" fill="#2B283F"/>
<path d="M31.0648 44.7728C30.7457 46.7493 30.4276 48.7258 30.1105 50.7023C28.9348 50.5709 28.5489 50.1619 28.0941 50.2783C26.3949 51.3711 26.1585 50.8187 25.8654 53.0311C25.8594 53.0878 25.4824 53.258 25.7068 54.091L27.5646 53.9865C27.2894 54.0672 25.7846 54.4553 25.7068 54.515C25.4346 54.727 25.5183 55.1957 25.7068 55.2554C25.7607 55.2734 26.3979 54.8315 26.715 54.727V55.1509C26.3081 55.0345 25.7008 55.6824 25.3897 55.6794C24.199 55.6705 25.5064 51.5681 25.5482 50.8605C27.7591 49.1826 29.5211 50.2664 29.6857 50.1201C30.1254 48.466 30.3259 46.7851 30.5353 45.0892C30.5353 45.0654 30.6789 44.6951 30.7477 44.6653C30.8165 44.6951 30.9511 44.6742 31.0648 44.7698V44.7728Z" fill="#0A1517"/>
<path d="M27.0321 54.6195C26.7359 54.3597 27.5437 54.4344 28.0941 53.8253C28.0343 53.6611 27.7471 53.9298 27.5646 53.9835L25.7068 54.088C25.4824 53.258 25.8594 53.0849 25.8654 53.0281C27.433 52.5982 28.3065 51.3353 27.8279 51.3353C25.8624 53.8582 25.8265 51.9085 27.2984 51.0188C27.3702 50.977 28.7613 51.1322 28.0941 50.2783C28.5489 50.1589 28.9348 50.5709 30.1105 50.7023C30.1314 50.7023 30.1494 50.971 30.4814 50.9143C30.6968 50.8277 31.1336 50.6068 31.1725 50.5978C31.4687 50.5202 32.3752 50.4157 32.5517 50.1738C32.8389 49.9589 32.5636 49.4244 32.5517 49.3259C34.2569 51.9563 30.655 51.5741 30.1643 53.3506C29.1591 53.888 28.1061 54.2403 27.0351 54.6225L27.0321 54.6195Z" fill="#7569E7"/>
<path d="M27.0321 54.6195C26.9244 54.6583 26.8197 54.6882 26.715 54.724C26.3979 54.8315 25.7607 55.2704 25.7068 55.2525C25.5183 55.1927 25.4346 54.724 25.7068 54.512C25.7816 54.4523 27.2894 54.0642 27.5646 53.9835C27.7471 53.9298 28.0343 53.6581 28.0941 53.8253C27.5437 54.4344 26.7359 54.3597 27.0321 54.6195Z" fill="#FC90FF"/>
<path d="M25.8654 53.0311C26.1585 50.8187 26.3919 51.3711 28.0941 50.2783C28.7613 51.1322 27.3702 50.977 27.2984 51.0188C25.8265 51.9085 25.8654 53.8582 27.8279 51.3353C28.3065 51.3353 27.433 52.5982 25.8654 53.0281L25.8654 53.0311Z" fill="#FFBFEE"/>
<path d="M20.4535 43.0799C20.4565 43.047 20.4565 43.0052 20.4535 42.9754C20.4326 42.7515 20.4804 42.635 20.1872 42.5514C19.7564 42.426 14.928 42.5604 14.7245 42.7634C14.7185 42.7694 14.7485 42.8798 14.6198 42.8679C14.0125 42.4947 11.4218 41.8617 11.4367 41.384C11.6192 36.0158 24.19 35.7829 24.8063 41.3303L20.4565 43.0769L20.4535 43.0799Z" fill="#0D0E03"/>
<path d="M16.0528 37.7833C17.402 37.7057 16.8695 38.8193 16.3699 38.9477C15.1643 39.2642 14.5181 37.8699 16.0528 37.7833Z" fill="#FDF7FF"/>
<path d="M17.4319 37.6788C18.6675 37.0906 19.7953 38.4013 18.494 38.7387C17.5277 38.9895 16.9533 37.9087 17.4319 37.6788Z" fill="#FDF7FF"/>
<path d="M19.4483 37.7833C19.5321 37.7236 21.2882 37.6788 20.986 38.5775C20.648 39.5867 18.5807 38.3984 19.4483 37.7833Z" fill="#FDF7FF"/>
<defs>
<linearGradient id="paint0_linear_3165_11089" x1="22.6642" y1="4.5944" x2="20.141" y2="13.7043" gradientUnits="userSpaceOnUse">
<stop stop-color="#9B64B8"/>
<stop offset="1" stop-color="#EAAEDA"/>
</linearGradient>
</defs>
</svg>
